SplineFontDB: 3.0
FontName: Pro-BoldCond
FullName: Pro Bold Condensed
FamilyName: Pro
Weight: Bold
Copyright: 
Version: 0.001
ItalicAngle: 0
UnderlinePosition: -100
UnderlineWidth: 50
Ascent: 750
Descent: 250
InvalidEm: 0
sfntRevision: 0x00000048
LayerCount: 2
Layer: 0 0 "+BBcEMAQ0BD0EOAQ5 +BD8EOwQwBD0A" 1
Layer: 1 0 "+BB8ENQRABDUENAQ9BDgEOQAA +BD8EOwQwBD0A" 0
XUID: [1021 157 1657886286 16364]
BaseHoriz: 2 'ideo' 'romn'
BaseScript: 'DFLT' 1  -163 0
BaseScript: 'cyrl' 1  -163 0
BaseScript: 'grek' 1  -163 0
BaseScript: 'latn' 1  -163 0
StyleMap: 0x0020
FSType: 8
OS2Version: 4
OS2_WeightWidthSlopeOnly: 1
OS2_UseTypoMetrics: 1
CreationTime: 1300968463
ModificationTime: 1554973899
PfmFamily: 17
TTFWeight: 700
TTFWidth: 3
LineGap: 200
VLineGap: 0
Panose: 2 11 7 6 3 4 3 2 2 4
OS2TypoAscent: 750
OS2TypoAOffset: 0
OS2TypoDescent: -250
OS2TypoDOffset: 0
OS2TypoLinegap: 200
OS2WinAscent: 958
OS2WinAOffset: 0
OS2WinDescent: 250
OS2WinDOffset: 0
HheadAscent: 750
HheadAOffset: 0
HheadDescent: -250
HheadDOffset: 0
OS2SubXSize: 650
OS2SubYSize: 600
OS2SubXOff: 0
OS2SubYOff: 75
OS2SupXSize: 650
OS2SupYSize: 600
OS2SupXOff: 0
OS2SupYOff: 350
OS2StrikeYSize: 50
OS2StrikeYPos: 290
OS2CapHeight: 674
OS2XHeight: 484
OS2Vendor: '    '
OS2CodePages: 2000019f.00000000
OS2UnicodeRanges: 20000287.00000001.00000000.00000000
Lookup: 1 0 0 "'aalt' +BBIEQQQ1 +BDAEOwRMBEIENQRABD0EMARCBDgEMgQ9BEsENQAA +BDIEMARABDgEMAQ9BEIESwAA lookup 0" { "'aalt' +BBIEQQQ1 +BDAEOwRMBEIENQRABD0EMARCBDgEMgQ9BEsENQAA +BDIEMARABDgEMAQ9BEIESwAA lookup 0 subtable"  } ['aalt' ('DFLT' <'dflt' > 'cyrl' <'dflt' > 'grek' <'dflt' > 'latn' <'AZE ' 'CRT ' 'MOL ' 'ROM ' 'TRK ' 'dflt' > ) ]
Lookup: 3 0 0 "'aalt' +BBIEQQQ1 +BDAEOwRMBEIENQRABD0EMARCBDgEMgQ9BEsENQAA +BDIEMARABDgEMAQ9BEIESwAA lookup 1" { "'aalt' +BBIEQQQ1 +BDAEOwRMBEIENQRABD0EMARCBDgEMgQ9BEsENQAA +BDIEMARABDgEMAQ9BEIESwAA lookup 1 subtable"  } ['aalt' ('DFLT' <'dflt' > 'cyrl' <'dflt' > 'grek' <'dflt' > 'latn' <'AZE ' 'CRT ' 'MOL ' 'ROM ' 'TRK ' 'dflt' > ) ]

StartChar: .notdef
Encoding: 65536 -1 0
Width: 500
Flags: W
HStem: 0 40<80 420> 630 70<90 410>
VStem: 0 60<235 585> 0 50<85 435> 440 60<235 585> 450 50<85 435>
LayerCount: 2
Fore
SplineSet
0 0 m 1xd4
 0 700 l 1
 500 700 l 1
 500 0 l 1
 0 0 l 1xd4
250 395 m 5
 410 630 l 1
 90 630 l 1
 250 395 l 5
280 350 m 5
 450 85 l 1xc4
 440 585 l 1xc8
 280 350 l 5
80 40 m 1
 420 40 l 1
 250 305 l 5
 80 40 l 1
60 585 m 1xe0
 50 85 l 1xd0
 220 350 l 5
 60 585 l 1xe0
EndSplineSet
Validated: 1
EndChar

StartChar: exclam
Encoding: 33 33 2
Width: 256
Flags: W
HStem: -14 159<76 207> 654 20G<67 210>
VStem: 67 143<461.667 674> 76 131<129.1 140 219 269.556>
LayerCount: 2
Fore
SplineSet
76 145 m 1xd0
 207 140 l 1
 207 -19 l 1
 66 -14 l 1
 76 145 l 1xd0
204 219 m 1
 82 219 l 1
 67 674 l 1
 210 674 l 1xe0
 204 219 l 1
EndSplineSet
Validated: 1
EndChar

StartChar: quotedbl
Encoding: 34 34 3
Width: 331
Flags: W
HStem: 422 273 666 20G<33 147.44>
VStem: 46 95<436 566.615> 201 84<425 557>
LayerCount: 2
Fore
SplineSet
33 682 m 1x70
 148 686 l 5
 141 436 l 5
 46 432 l 1
 33 682 l 1x70
193 695 m 1xb0
 299 692 l 1
 285 422 l 1
 201 425 l 1
 193 695 l 1xb0
EndSplineSet
Validated: 1
EndChar

StartChar: numbersign
Encoding: 35 35 4
Width: 426
Flags: W
HStem: -8 21G<63.7822 138.463> 195 75<15 82.4385 171 232 321.409 391> 637 20G<124.063 218 287.446 381>
VStem: 208 68.7939<9.20625 43.4167>
LayerCount: 2
Fore
SplineSet
171 270 m 1
 242 270 l 1
 256.016601562 385.450195312 l 1
 183.1640625 390.021484375 l 1
 171 270 l 1
136 -8 m 1
 63.7822265625 -1.66015625 l 1
 82.4384765625 194.048828125 l 1
 15 195 l 1
 15 270 l 1
 89.998046875 269.333984375 l 1
 100.580078125 395.20703125 l 1
 34.47265625 399.614257812 l 1
 39.3017578125 474.458984375 l 1
 107.970703125 470.848632812 l 1
 126 657 l 5
 218 650 l 1
 197.971679688 464.22265625 l 1
 265.82421875 460.651367188 l 1
 290 650 l 1
 381 641 l 1
 352.8125 454.00390625 l 1
 413.5234375 450.315429688 l 1
 408.6953125 375.471679688 l 1
 338.360351562 380.279296875 l 1
 321.409179688 270.813476562 l 1
 391 270 l 1
 391 195 l 1
 309.73828125 196.182617188 l 1
 276.793945312 2.19921875 l 1
 208 10 l 1
 232 195 l 1
 161 195 l 1
 136 -8 l 1
EndSplineSet
Validated: 1
Substitution2: "'onum' Oldstyle Figures lookup 14 subtable" numbersign.taboldstyle
Substitution2: "'aalt' +BBIEQQQ1 +BDAEOwRMBEIENQRABD0EMARCBDgEMgQ9BEsENQAA +BDIEMARABDgEMAQ9BEIESwAA lookup 0 subtable" numbersign.taboldstyle
EndChar

StartChar: dollar
Encoding: 36 36 5
Width: 426
Flags: W
HStem: 17 96<76.2693 162> 523 110<261 346.672>
VStem: 56 123<410.71 513.423> 167 85<-80 17> 258 117<126.041 230.01>
LayerCount: 2
Fore
SplineSet
252 -80 m 1xd8
 167 -85 l 1xd8
 162 17 l 1
 108 18 84 23 55 33 c 1
 75 127 l 1
 102 118 134 113 164 113 c 0
 169 113 174 113 179 113 c 0
 258 117 258 141 258 179 c 0
 258 220 227 244 176 276 c 0
 97 325 56 382 56 460 c 0
 56 589 72 609 166 623 c 1
 156 725 l 1
 251 735 l 1
 261 633 l 1
 284 633 344 628 370 618 c 1
 348 508 l 1
 320 520 270 523 251 523 c 0
 181 523 179 495 179 461 c 0xe8
 179 427 192 408 261 366 c 0
 346 315 375 262 375 191 c 0
 375 57 350 41 247 26 c 1
 252 -80 l 1xd8
EndSplineSet
Validated: 1
Substitution2: "'onum' Oldstyle Figures lookup 14 subtable" dollar.taboldstyle
Substitution2: "'subs' +BB0EOAQ2BD0EOAQ5 +BDgEPQQ0BDUEOgRB lookup 13 subtable" dollar.inferior
Substitution2: "'sups' +BBIENQRABEUEPQQ4BDkA +BDgEPQQ0BDUEOgRB lookup 12 subtable" dollar.superior
Substitution2: "'dnom' Denominators lookup 6 subtable" dollar.denominator
Substitution2: "'numr' Numerators lookup 5 subtable" dollar.numerator
AlternateSubs2: "'aalt' +BBIEQQQ1 +BDAEOwRMBEIENQRABD0EMARCBDgEMgQ9BEsENQAA +BDIEMARABDgEMAQ9BEIESwAA lookup 1 subtable" dollar.numerator dollar.denominator dollar.superior dollar.inferior dollar.taboldstyle
EndChar

StartChar: percent
Encoding: 37 37 6
Width: 657
Flags: W
HStem: -6 70<473.062 543.107> 273 79<479.079 544.403> 289 70<114.977 176.204> 589 79<116.42 181.948> 658 20G<458.943 503>
VStem: 18 88<362.22 584.772> 190 91<365.81 585.454> 376 88<71.3754 265.254> 551 88<67.5938 271.594>
LayerCount: 2
Fore
SplineSet
150 668 m 0xb780
 256 668 281 653 281 550 c 0
 281 528 280 502 278 471 c 0
 268 302 254 291 149 289 c 0
 142 289 136 289 130 289 c 0
 18 289 18 309 18 466 c 0
 18 656 65 668 150 668 c 0xb780
149 589 m 0
 148 589 146 589 145 589 c 0
 119 589 106 586 106 469 c 0
 106 361 117 359 146 359 c 0
 147 359 148 359 149 359 c 0
 180 359 190 387 190 468 c 0
 190 583 181 589 149 589 c 0
178 -38 m 1
 119 -18 l 1
 469 678 l 1x8f80
 537 638 l 1
 178 -38 l 1
511 352 m 0xc780
 514 352 518 352 521 352 c 0
 610 352 636 349 639 186 c 0
 639 182 639 178 639 174 c 0
 639 -1 575 -5 510 -6 c 0
 501 -6 493 -6 485 -6 c 0
 397 -6 376 9 376 98 c 0
 376 121 377 148 379 181 c 0
 389 339 404 352 511 352 c 0xc780
510 273 m 0
 481 273 474 271 467 184 c 0
 465 162 464 143 464 128 c 0
 464 77 476 65 510 64 c 0
 512 64 515 64 517 64 c 0
 542 64 551 73 551 183 c 0
 551 273 542 273 510 273 c 0
EndSplineSet
Validated: 1
Substitution2: "'onum' Oldstyle Figures lookup 14 subtable" percent.oldstyle
Substitution2: "'aalt' +BBIEQQQ1 +BDAEOwRMBEIENQRABD0EMARCBDgEMgQ9BEsENQAA +BDIEMARABDgEMAQ9BEIESwAA lookup 0 subtable" percent.oldstyle
EndChar

StartChar: ampersand
Encoding: 38 38 7
Width: 530
Flags: W
HStem: -14 101<181.067 341.551> 560 122<219.787 421.52>
VStem: 32 137<96.7468 277.473> 72 136<433.359 548.804> 360 112<127.375 293.039>
LayerCount: 2
Fore
SplineSet
427 542 m 1xd8
 393 554 312 560 293 560 c 0
 237 560 208 558 208 481 c 0xd8
 208 416 226 426 472 401 c 1
 462 -68 l 1
 340 -63 l 1
 342 4 l 1
 328 3 273 -7 263 -8 c 0
 237 -12 213 -14 192 -14 c 0
 89 -14 32 34 32 192 c 0xe8
 32 340 67 335 146 351 c 1
 146 353 l 1
 78 370 72 378 72 506 c 0
 72 670 132 682 260 682 c 0
 299 682 404 668 449 653 c 1
 427 542 l 1xd8
352 104 m 5
 360 291 l 5
 321 295 289 297 264 297 c 4
 182 297 169 271 169 186 c 4xe8
 169 113 176 87 227 87 c 4
 240 87 256 89 276 92 c 4
 282 93 342 103 352 104 c 5
EndSplineSet
Validated: 1
EndChar

StartChar: quoteright
Encoding: 8217 8217 8
Width: 190
Flags: W
HStem: 400 284
VStem: 4 180
LayerCount: 2
Fore
SplineSet
71 684 m 1
 184 672 l 1
 71 400 l 5
 4 421 l 1
 71 684 l 1
EndSplineSet
Validated: 1
EndChar

StartChar: parenleft
Encoding: 40 40 9
Width: 258
Flags: HW
HStem: 682 20G<109 241>
VStem: 32 103<129.815 523.421>
LayerCount: 2
Fore
SplineSet
137 702 m 1
 241 692 l 1
 183 601 135 531 135 344 c 0
 135 163 173 -16 231 -110 c 1
 147 -130 l 1
 91 -55 32 152 32 345 c 0
 36 540 81 626 137 702 c 1
EndSplineSet
Substitution2: "'subs' +BB0EOAQ2BD0EOAQ5 +BDgEPQQ0BDUEOgRB lookup 13 subtable" parenleft.inferior
Substitution2: "'sups' +BBIENQRABEUEPQQ4BDkA +BDgEPQQ0BDUEOgRB lookup 12 subtable" parenleft.superior
Substitution2: "'dnom' Denominators lookup 6 subtable" parenleft.denominator
Substitution2: "'numr' Numerators lookup 5 subtable" parenleft.numerator
Substitution2: "'case' +BCAENQQzBDgEQQRCBEAEPgQ3BDAEMgQ4BEEEOAQ8BEsENQAA +BEQEPgRABDwESwAA lookup 4 subtable" parenleft.cap
AlternateSubs2: "'aalt' +BBIEQQQ1 +BDAEOwRMBEIENQRABD0EMARCBDgEMgQ9BEsENQAA +BDIEMARABDgEMAQ9BEIESwAA lookup 1 subtable" parenleft.cap parenleft.numerator parenleft.denominator parenleft.superior parenleft.inferior
EndChar

StartChar: parenright
Encoding: 41 41 10
Width: 258
Flags: W
HStem: 682 20G<17 149>
VStem: 123 103<81.7217 457.624>
LayerCount: 2
Fore
SplineSet
101 -130 m 1
 17 -120 l 1
 75 -28 123 66 123 248 c 4
 123 430 75 590 17 682 c 1
 121 702 l 1
 177 629 226 446 226 248 c 4
 222 50 157 -52 101 -130 c 1
EndSplineSet
Validated: 1
Substitution2: "'subs' +BB0EOAQ2BD0EOAQ5 +BDgEPQQ0BDUEOgRB lookup 13 subtable" parenright.inferior
Substitution2: "'sups' +BBIENQRABEUEPQQ4BDkA +BDgEPQQ0BDUEOgRB lookup 12 subtable" parenright.superior
Substitution2: "'dnom' Denominators lookup 6 subtable" parenright.denominator
Substitution2: "'numr' Numerators lookup 5 subtable" parenright.numerator
Substitution2: "'case' +BCAENQQzBDgEQQRCBEAEPgQ3BDAEMgQ4BEEEOAQ8BEsENQAA +BEQEPgRABDwESwAA lookup 4 subtable" parenright.cap
AlternateSubs2: "'aalt' +BBIEQQQ1 +BDAEOwRMBEIENQRABD0EMARCBDgEMgQ9BEsENQAA +BDIEMARABDgEMAQ9BEIESwAA lookup 1 subtable" parenright.cap parenright.numerator parenright.denominator parenright.superior parenright.inferior
EndChar

StartChar: asterisk
Encoding: 42 42 11
Width: 385
Flags: W
HStem: 451 91<15 65.75 317.062 370> 656 20G<93.7143 138.862> 672 20G<245.758 290.652>
LayerCount: 2
Fore
SplineSet
255 692 m 1xa0
 337 646 l 1
 248 529 l 1
 249 526 l 1
 370 542 l 1
 370 445 l 1
 248 447 l 1
 247 444 l 1
 333 334 l 1
 259 292 l 1
 190 428 l 1
 188 425 l 1
 133 318 l 5
 58 365 l 5
 135 449 l 1
 133 450 l 1
 15 451 l 1
 15 542 l 1
 131 526 l 1
 134 529 l 1
 56 634 l 1
 128 676 l 1xc0
 191 560 l 1
 194 560 l 1
 255 692 l 1xa0
EndSplineSet
Validated: 1
EndChar

StartChar: plus
Encoding: 43 43 12
Width: 596
Flags: W
HStem: 216.044 91.9854<40 237.588 344.915 546>
VStem: 237.588 107.327<115.644 216.044 308.092 531.988>
LayerCount: 2
Fore
SplineSet
234.040039062 532.063476562 m 5
 349.185546875 531.98828125 l 1
 344.915039062 308.029296875 l 1
 546 308 l 1
 546 216 l 1
 343.352539062 216.043945312 l 1
 339.043945312 0.0849609375 l 1
 242.46484375 0.1298828125 l 5
 238.885742188 216.1015625 l 5
 40 216 l 1
 40 308 l 1
 237.587890625 308.091796875 l 5
 234.040039062 532.063476562 l 5
EndSplineSet
Validated: 1
EndChar

StartChar: comma
Encoding: 44 44 13
Width: 233
Flags: W
HStem: -136 308
VStem: 10 200
LayerCount: 2
Fore
SplineSet
114 -136 m 1
 10 -125 l 1
 77 172 l 1
 210 151 l 1
 114 -136 l 1
EndSplineSet
Validated: 1
Substitution2: "'subs' +BB0EOAQ2BD0EOAQ5 +BDgEPQQ0BDUEOgRB lookup 13 subtable" comma.inferior
Substitution2: "'sups' +BBIENQRABEUEPQQ4BDkA +BDgEPQQ0BDUEOgRB lookup 12 subtable" comma.superior
Substitution2: "'dnom' Denominators lookup 6 subtable" comma.denominator
Substitution2: "'numr' Numerators lookup 5 subtable" comma.numerator
AlternateSubs2: "'aalt' +BBIEQQQ1 +BDAEOwRMBEIENQRABD0EMARCBDgEMgQ9BEsENQAA +BDIEMARABDgEMAQ9BEIESwAA lookup 1 subtable" comma.numerator comma.denominator comma.superior comma.inferior
EndChar

StartChar: hyphen
Encoding: 45 45 14
Width: 259
Flags: W
HStem: 224 94<33 226>
VStem: 30 199
LayerCount: 2
Fore
SplineSet
30 318 m 1
 229 323 l 1
 226 229 l 5
 33 224 l 1
 30 318 l 1
EndSplineSet
Validated: 1
Substitution2: "'subs' +BB0EOAQ2BD0EOAQ5 +BDgEPQQ0BDUEOgRB lookup 13 subtable" hyphen.inferior
Substitution2: "'sups' +BBIENQRABEUEPQQ4BDkA +BDgEPQQ0BDUEOgRB lookup 12 subtable" hyphen.superior
Substitution2: "'dnom' Denominators lookup 6 subtable" hyphen.denominator
Substitution2: "'numr' Numerators lookup 5 subtable" hyphen.numerator
Substitution2: "'case' +BCAENQQzBDgEQQRCBEAEPgQ3BDAEMgQ4BEEEOAQ8BEsENQAA +BEQEPgRABDwESwAA lookup 4 subtable" hyphen.cap
AlternateSubs2: "'aalt' +BBIEQQQ1 +BDAEOwRMBEIENQRABD0EMARCBDgEMgQ9BEsENQAA +BDIEMARABDgEMAQ9BEIESwAA lookup 1 subtable" endash emdash hyphen.cap hyphen.superior hyphen.inferior hyphen.numerator hyphen.denominator
EndChar

StartChar: period
Encoding: 46 46 15
Width: 233
Flags: W
HStem: -11.1335 181.333<51.3291 196.674>
VStem: 47.7355 152.327<-8.84294 168.041>
LayerCount: 2
Fore
SplineSet
48 166 m 1
 67.1509387408 169.046740254 92.5534420495 170.199067003 117.693637284 170.199067003 c 0
 150.313983468 170.199067003 182.49270684 168.259005569 200 166 c 1
 200 151.75 200.0625 136.9375 200.0625 121.953125 c 0
 200.0625 77 199.5 30.5 195 -7 c 1
 179.322356372 -9.61294060472 153.266975666 -11.1334878328 125.682370813 -11.1334878328 c 0
 100.482375811 -11.1334878328 74.0061226785 -9.86447127434 53 -7 c 1
 48.5454545455 32.4545454545 47.7355371901 75.1487603306 47.7355371901 111.54770849 c 0
 47.7355371901 132.347107438 48 151.090909091 48 166 c 1
EndSplineSet
Validated: 1
Substitution2: "'subs' +BB0EOAQ2BD0EOAQ5 +BDgEPQQ0BDUEOgRB lookup 13 subtable" period.inferior
Substitution2: "'sups' +BBIENQRABEUEPQQ4BDkA +BDgEPQQ0BDUEOgRB lookup 12 subtable" period.superior
Substitution2: "'dnom' Denominators lookup 6 subtable" period.denominator
Substitution2: "'numr' Numerators lookup 5 subtable" period.numerator
AlternateSubs2: "'aalt' +BBIEQQQ1 +BDAEOwRMBEIENQRABD0EMARCBDgEMgQ9BEsENQAA +BDIEMARABDgEMAQ9BEIESwAA lookup 1 subtable" ellipsis period.superior period.inferior period.numerator period.denominator
EndChar

StartChar: slash
Encoding: 47 47 16
Width: 280
Flags: W
VStem: -22 320
LayerCount: 2
Fore
SplineSet
63 -50 m 1
 -22 -40 l 1
 192 712 l 5
 298 682 l 1
 63 -50 l 1
EndSplineSet
Validated: 1
Substitution2: "'frac' Diagonal Fractions lookup 8 subtable" slash.frac
Substitution2: "'dnom' Denominators lookup 6 subtable" fraction
Substitution2: "'numr' Numerators lookup 5 subtable" fraction
Substitution2: "'aalt' +BBIEQQQ1 +BDAEOwRMBEIENQRABD0EMARCBDgEMgQ9BEsENQAA +BDIEMARABDgEMAQ9BEIESwAA lookup 0 subtable" fraction
EndChar

StartChar: zero
Encoding: 48 48 17
Width: 426
Flags: W
HStem: -8 103.992<163.168 265.559> 548 124<166.714 267.901>
VStem: 25 130.348<105.32 541.155> 274 132.001<105.479 544.432>
LayerCount: 2
Fore
SplineSet
227 672 m 0
 383 672 406 663 406 339 c 0
 406 332 406.00085025 325.524816665 406.00085025 318.984226552 c 0
 406.00085025 8.30619619513 404.082474227 -8 218 -8 c 0
 32 -8 25 17 25 329 c 0
 25 664 32 672 227 672 c 0
222 548 m 0
 162.352941176 548 155.335640138 537.474048443 155.335640138 441.742926929 c 0
 155.335640138 412.287197232 156 374.764705882 156 327 c 0
 156 272.941747573 155.348477708 231.533886323 155.348477708 199.816101368 c 0
 155.348477708 96.5751631617 162.251312265 95.9999269486 220.994237684 95.9999269486 c 0
 223 96 l 0
 224.984126984 96 226.891093474 95.9921264802 228.723898907 95.9921264802 c 0
 273.077790375 95.9921264802 274 100.603174603 274 333 c 0
 274 382.268292683 274.594883998 420.293277811 274.594883998 449.628603764 c 0
 274.594883998 540.568114218 268.87804878 548 222 548 c 0
EndSplineSet
Validated: 1
Substitution2: "'zero' Slashed Zero lookup 19 subtable" zero.slash
Substitution2: "'pnum' Proportional Numbers lookup 16 subtable" zero.fitted
Substitution2: "'onum' Oldstyle Figures lookup 14 subtable" zero.taboldstyle
Substitution2: "'subs' +BB0EOAQ2BD0EOAQ5 +BDgEPQQ0BDUEOgRB lookup 13 subtable" zero.inferior
Substitution2: "'sups' +BBIENQRABEUEPQQ4BDkA +BDgEPQQ0BDUEOgRB lookup 12 subtable" zero.superior
Substitution2: "'dnom' Denominators lookup 6 subtable" zero.denominator
Substitution2: "'numr' Numerators lookup 5 subtable" zero.numerator
AlternateSubs2: "'aalt' +BBIEQQQ1 +BDAEOwRMBEIENQRABD0EMARCBDgEMgQ9BEsENQAA +BDIEMARABDgEMAQ9BEIESwAA lookup 1 subtable" zero.fitted zero.oldstyle zero.taboldstyle zero.numerator zero.denominator zero.superior zero.inferior zero.slash
EndChar

StartChar: one
Encoding: 49 49 18
Width: 426
Flags: W
HStem: -10.7402 21G<173.057 303.422> 631.374 20G<200.909 315.887>
VStem: 173.057 129.976<-8.20898 330.69> 183.341 132.546<289.34 489.691>
LayerCount: 2
Fore
SplineSet
173.056640625 -8.208984375 m 1xe0
 183.340820312 489.69140625 l 1
 181.340820312 489.73046875 l 1
 181.340820312 489.73046875 103 454 67 431 c 1
 50 458 27 525 22 561 c 1
 92 609 200.909179688 651.374023438 200.909179688 651.374023438 c 1
 315.88671875 648.134765625 l 5xd0
 303.032226562 -10.740234375 l 1
 173.056640625 -8.208984375 l 1xe0
EndSplineSet
Validated: 1
Substitution2: "'pnum' Proportional Numbers lookup 16 subtable" one.fitted
Substitution2: "'onum' Oldstyle Figures lookup 14 subtable" one.taboldstyle
Substitution2: "'subs' +BB0EOAQ2BD0EOAQ5 +BDgEPQQ0BDUEOgRB lookup 13 subtable" one.inferior
Substitution2: "'sups' +BBIENQRABEUEPQQ4BDkA +BDgEPQQ0BDUEOgRB lookup 12 subtable" one.superior
Substitution2: "'dnom' Denominators lookup 6 subtable" one.denominator
Substitution2: "'numr' Numerators lookup 5 subtable" one.numerator
AlternateSubs2: "'aalt' +BBIEQQQ1 +BDAEOwRMBEIENQRABD0EMARCBDgEMgQ9BEsENQAA +BDIEMARABDgEMAQ9BEIESwAA lookup 1 subtable" one.fitted one.oldstyle one.taboldstyle one.numerator one.denominator one.superior one.inferior
EndChar

StartChar: two
Encoding: 50 50 19
Width: 426
Flags: W
HStem: -10.4495 115.449<182.463 379.34> 539 119<55.1223 245.097>
VStem: 252 119<367.613 528.205>
LayerCount: 2
Fore
SplineSet
376 -10 m 1
 355.724137931 -10.3103448276 335.929845422 -10.4494649227 316.734470458 -10.4494649227 c 0
 150.374554102 -10.4494649227 29 -3.38271077815e-017 29 0 c 1
 24 88 l 1
 89 171 l 2
 206 321 252 367 252 460 c 0
 252 528 252 539 159 539 c 4
 137 539 99 534 51 516 c 1
 28 628 l 1
 77 644 146 658 183 658 c 0
 315 658 371 658 371 470 c 0
 371 348 343 318 220 163 c 2
 181 114 l 1
 181 112 l 1
 181 112 260 106 380 105 c 1
 381.291868154 93.0502195728 381.853582353 78.8056695695 381.853582353 64.3550029865 c 0
 381.853582353 34.0621977686 379.385164807 2.86362626711 376 -10 c 1
EndSplineSet
Validated: 1
Substitution2: "'pnum' Proportional Numbers lookup 16 subtable" two.fitted
Substitution2: "'onum' Oldstyle Figures lookup 14 subtable" two.taboldstyle
Substitution2: "'subs' +BB0EOAQ2BD0EOAQ5 +BDgEPQQ0BDUEOgRB lookup 13 subtable" two.inferior
Substitution2: "'sups' +BBIENQRABEUEPQQ4BDkA +BDgEPQQ0BDUEOgRB lookup 12 subtable" two.superior
Substitution2: "'dnom' Denominators lookup 6 subtable" two.denominator
Substitution2: "'numr' Numerators lookup 5 subtable" two.numerator
AlternateSubs2: "'aalt' +BBIEQQQ1 +BDAEOwRMBEIENQRABD0EMARCBDgEMgQ9BEsENQAA +BDIEMARABDgEMAQ9BEIESwAA lookup 1 subtable" two.fitted two.oldstyle two.taboldstyle two.numerator two.denominator two.superior two.inferior
EndChar

StartChar: three
Encoding: 51 51 20
Width: 400
Flags: W
HStem: -8 100<46.041 228.016> 291 109<100 205.74> 560 122<41.5627 211.213>
VStem: 223 136<417.488 548.804> 242 137<107.036 265.599>
LayerCount: 2
Fore
SplineSet
44 542 m 1xf0
 12 653 l 1
 57 668 132 682 171 682 c 0
 299 682 359 670 359 506 c 0xf0
 359 378 333 370 265 353 c 1
 265 351 l 1
 344 335 379 340 379 192 c 0
 379 2.22044604925e-014 279 -8 158 -8 c 4
 122 -8 55 0 22 12 c 5
 51 109 l 5
 80 98 125 92 145 92 c 4
 215 92 242 94 242 186 c 0xe8
 242 298 180 291 109 291 c 2
 100 291 l 1
 90 400 l 1
 103 400 l 2
 163 400 223 392 223 481 c 0
 223 558 194 560 138 560 c 0
 119 560 78 554 44 542 c 1xf0
EndSplineSet
Validated: 33
Substitution2: "'pnum' Proportional Numbers lookup 16 subtable" three.fitted
Substitution2: "'onum' Oldstyle Figures lookup 14 subtable" three.taboldstyle
Substitution2: "'subs' +BB0EOAQ2BD0EOAQ5 +BDgEPQQ0BDUEOgRB lookup 13 subtable" three.inferior
Substitution2: "'sups' +BBIENQRABEUEPQQ4BDkA +BDgEPQQ0BDUEOgRB lookup 12 subtable" three.superior
Substitution2: "'dnom' Denominators lookup 6 subtable" three.denominator
Substitution2: "'numr' Numerators lookup 5 subtable" three.numerator
AlternateSubs2: "'aalt' +BBIEQQQ1 +BDAEOwRMBEIENQRABD0EMARCBDgEMgQ9BEsENQAA +BDIEMARABDgEMAQ9BEIESwAA lookup 1 subtable" three.fitted three.oldstyle three.taboldstyle three.numerator three.denominator three.superior three.inferior
EndChar

StartChar: four
Encoding: 52 52 21
Width: 426
Flags: W
HStem: -10.9844 21G<225.618 342.125> 155 105<122 230.062 348.366 410>
VStem: 225.618 115.972<-8.40723 154.978 260.528 367.463> 240.726 116.306<334.681 491.314>
LayerCount: 2
Fore
SplineSet
341.58984375 -10.984375 m 5xe0
 225.618164062 -8.4072265625 l 5xe0
 230.0625 155.5546875 l 1
 21 155 l 1
 11 255 l 1
 231.061523438 661.654296875 l 1
 357.03125 648.85546875 l 1xd0
 348.366210938 259.951171875 l 1
 410 260 l 1
 415 155 l 1
 346.033203125 154.977539062 l 1
 341.58984375 -10.984375 l 5xe0
122 260 m 1
 232.39453125 260.528320312 l 1
 240.725585938 491.314453125 l 1xd0
 236.7265625 491.403320312 l 1
 122 262 l 1
 122 260 l 1
EndSplineSet
Validated: 1
Substitution2: "'pnum' Proportional Numbers lookup 16 subtable" four.fitted
Substitution2: "'onum' Oldstyle Figures lookup 14 subtable" four.taboldstyle
Substitution2: "'subs' +BB0EOAQ2BD0EOAQ5 +BDgEPQQ0BDUEOgRB lookup 13 subtable" four.inferior
Substitution2: "'sups' +BBIENQRABEUEPQQ4BDkA +BDgEPQQ0BDUEOgRB lookup 12 subtable" four.superior
Substitution2: "'dnom' Denominators lookup 6 subtable" four.denominator
Substitution2: "'numr' Numerators lookup 5 subtable" four.numerator
AlternateSubs2: "'aalt' +BBIEQQQ1 +BDAEOwRMBEIENQRABD0EMARCBDgEMgQ9BEsENQAA +BDIEMARABDgEMAQ9BEIESwAA lookup 1 subtable" four.fitted four.oldstyle four.taboldstyle four.numerator four.denominator four.superior four.inferior
EndChar

StartChar: five
Encoding: 53 53 22
Width: 426
Flags: W
HStem: -8 97<44.8988 238.741> 316 104<178 238.835> 526 119<193 277.3> 531 124<193 355>
LayerCount: 2
Fore
SplineSet
355 655 m 1xd0
 365 531 l 1xd0
 193 526 l 1
 178 420 l 1
 184 420 241 420 248 420 c 0
 345.572265625 416.515625 386 391 376 222 c 0
 363.713655613 14.360779857 342 -8 200 -8 c 0
 154 -8 53 -3 28 8 c 5
 48 102 l 5
 71 95 146 89 181 89 c 0
 255 89 239.795405675 98.2351051658 247 200 c 0
 255 313 241 312 146 316 c 0
 128.016187685 316.75721315 112 317 60 318 c 1
 96 645 l 1xe0
 355 655 l 1xd0
EndSplineSet
Validated: 33
Substitution2: "'pnum' Proportional Numbers lookup 16 subtable" five.fitted
Substitution2: "'onum' Oldstyle Figures lookup 14 subtable" five.taboldstyle
Substitution2: "'subs' +BB0EOAQ2BD0EOAQ5 +BDgEPQQ0BDUEOgRB lookup 13 subtable" five.inferior
Substitution2: "'sups' +BBIENQRABEUEPQQ4BDkA +BDgEPQQ0BDUEOgRB lookup 12 subtable" five.superior
Substitution2: "'dnom' Denominators lookup 6 subtable" five.denominator
Substitution2: "'numr' Numerators lookup 5 subtable" five.numerator
AlternateSubs2: "'aalt' +BBIEQQQ1 +BDAEOwRMBEIENQRABD0EMARCBDgEMgQ9BEsENQAA +BDIEMARABDgEMAQ9BEIESwAA lookup 1 subtable" five.fitted five.oldstyle five.taboldstyle five.numerator five.denominator five.superior five.inferior
EndChar

StartChar: six
Encoding: 54 54 23
Width: 426
Flags: W
HStem: -8 85<167.915 269.113> 552 106<227.052 346.321>
VStem: 23 133<83.429 510.231> 277 129<81.5438 307.026>
LayerCount: 2
Fore
SplineSet
345 658 m 5
 365 552 l 5
 162 525 156 536 156 392 c 1
 159 392 l 1
 182 423 216.337239444 429.374835976 259 424 c 0
 386 408 406 402 406 222 c 0
 406 14 406 -8 221 -8 c 0
 24 -8 23 28 23 260 c 0
 23 593 22 631 345 658 c 5
219 77 m 0
 272 77 277 80 277 203 c 0
 277 306 272 309 216 320 c 0
 176.426757812 327.7734375 156 315 156 209 c 0
 156 77 166 77 219 77 c 0
EndSplineSet
Validated: 33
Substitution2: "'pnum' Proportional Numbers lookup 16 subtable" six.fitted
Substitution2: "'onum' Oldstyle Figures lookup 14 subtable" six.taboldstyle
Substitution2: "'subs' +BB0EOAQ2BD0EOAQ5 +BDgEPQQ0BDUEOgRB lookup 13 subtable" six.inferior
Substitution2: "'sups' +BBIENQRABEUEPQQ4BDkA +BDgEPQQ0BDUEOgRB lookup 12 subtable" six.superior
Substitution2: "'dnom' Denominators lookup 6 subtable" six.denominator
Substitution2: "'numr' Numerators lookup 5 subtable" six.numerator
AlternateSubs2: "'aalt' +BBIEQQQ1 +BDAEOwRMBEIENQRABD0EMARCBDgEMgQ9BEsENQAA +BDIEMARABDgEMAQ9BEIESwAA lookup 1 subtable" six.fitted six.oldstyle six.taboldstyle six.numerator six.denominator six.superior six.inferior
EndChar

StartChar: seven
Encoding: 55 55 24
Width: 426
Flags: W
HStem: 535 115<150.1 281> 545 115<46 208.4>
LayerCount: 2
Fore
SplineSet
46 660 m 5x40
 393 650 l 1
 393 534 l 1
 189 -30 l 1
 81 0 l 1
 281 533 l 1
 281 535 l 1x80
 39 545 l 1
 46 660 l 5x40
EndSplineSet
Validated: 1
Substitution2: "'pnum' Proportional Numbers lookup 16 subtable" seven.fitted
Substitution2: "'onum' Oldstyle Figures lookup 14 subtable" seven.taboldstyle
Substitution2: "'subs' +BB0EOAQ2BD0EOAQ5 +BDgEPQQ0BDUEOgRB lookup 13 subtable" seven.inferior
Substitution2: "'sups' +BBIENQRABEUEPQQ4BDkA +BDgEPQQ0BDUEOgRB lookup 12 subtable" seven.superior
Substitution2: "'dnom' Denominators lookup 6 subtable" seven.denominator
Substitution2: "'numr' Numerators lookup 5 subtable" seven.numerator
AlternateSubs2: "'aalt' +BBIEQQQ1 +BDAEOwRMBEIENQRABD0EMARCBDgEMgQ9BEsENQAA +BDIEMARABDgEMAQ9BEIESwAA lookup 1 subtable" seven.fitted seven.oldstyle seven.taboldstyle seven.numerator seven.denominator seven.superior seven.inferior
EndChar

StartChar: eight
Encoding: 56 56 25
Width: 426
Flags: W
HStem: -8 78<164.22 264.425> 560 98<172.156 262.057>
LayerCount: 2
Fore
SplineSet
210 -8 m 0
 40 -8 30 0 20 159 c 4
 14.9157060166 239.840274336 36 272 118 327 c 5
 118 329 l 5
 42 382 34.3228483791 426.13273591 38 477 c 4
 50 643 54 658 222 658 c 0
 372 658 380 644 390 488 c 4
 392.750764414 445.088075141 394 398 305 344 c 5
 305 342 l 5
 392 289 408.263730929 248.930800467 405 172 c 4
 398 7 384 -8 210 -8 c 0
215 70 m 0
 264 70 272.501984296 72.1592291084 278 167 c 4
 282 236 240 258 203 277 c 1
 170 254 143.609762008 223.884930454 147 174 c 4
 154 71 170 70 215 70 c 0
217 560 m 0
 179 560 168 556 161 481 c 4
 156.725245226 435.199055996 187 403 225 383 c 1
 253 398 271.997235659 438.052522485 270 476 c 4
 266 552 266 560 217 560 c 0
EndSplineSet
Validated: 33
Substitution2: "'pnum' Proportional Numbers lookup 16 subtable" eight.fitted
Substitution2: "'onum' Oldstyle Figures lookup 14 subtable" eight.taboldstyle
Substitution2: "'subs' +BB0EOAQ2BD0EOAQ5 +BDgEPQQ0BDUEOgRB lookup 13 subtable" eight.inferior
Substitution2: "'sups' +BBIENQRABEUEPQQ4BDkA +BDgEPQQ0BDUEOgRB lookup 12 subtable" eight.superior
Substitution2: "'dnom' Denominators lookup 6 subtable" eight.denominator
Substitution2: "'numr' Numerators lookup 5 subtable" eight.numerator
AlternateSubs2: "'aalt' +BBIEQQQ1 +BDAEOwRMBEIENQRABD0EMARCBDgEMgQ9BEsENQAA +BDIEMARABDgEMAQ9BEIESwAA lookup 1 subtable" eight.fitted eight.oldstyle eight.taboldstyle eight.numerator eight.denominator eight.superior eight.inferior
EndChar

StartChar: nine
Encoding: 57 57 26
Width: 426
Flags: W
HStem: -14 106<91.6792 210.41> 567 105<158.887 260.085>
VStem: 22 129<336.974 561.708> 272 133<133.633 560.32>
LayerCount: 2
Fore
SplineSet
93 -14 m 5
 73 92 l 1
 276 119 272 108 272 252 c 1
 269 252 l 1
 246 221 211.663085938 214.625 169 220 c 0
 42 236 22 242 22 422 c 0
 22 630 22 672 207 672 c 0
 404 672 405 616 405 384 c 0
 405 51 416 13 93 -14 c 5
209 567 m 0
 156 567 151 564 151 441 c 0
 151 338 156 335 212 324 c 0
 251.573242188 316.2265625 272 329 272 435 c 0
 272 567 262 567 209 567 c 0
EndSplineSet
Validated: 33
Substitution2: "'pnum' Proportional Numbers lookup 16 subtable" nine.fitted
Substitution2: "'onum' Oldstyle Figures lookup 14 subtable" nine.taboldstyle
Substitution2: "'subs' +BB0EOAQ2BD0EOAQ5 +BDgEPQQ0BDUEOgRB lookup 13 subtable" nine.inferior
Substitution2: "'sups' +BBIENQRABEUEPQQ4BDkA +BDgEPQQ0BDUEOgRB lookup 12 subtable" nine.superior
Substitution2: "'dnom' Denominators lookup 6 subtable" nine.denominator
Substitution2: "'numr' Numerators lookup 5 subtable" nine.numerator
AlternateSubs2: "'aalt' +BBIEQQQ1 +BDAEOwRMBEIENQRABD0EMARCBDgEMgQ9BEsENQAA +BDIEMARABDgEMAQ9BEIESwAA lookup 1 subtable" nine.fitted nine.oldstyle nine.taboldstyle nine.numerator nine.denominator nine.superior nine.inferior
EndChar

StartChar: colon
Encoding: 58 58 27
Width: 233
Flags: W
HStem: 10 147<60 190> 319 165<52 196>
VStem: 52 154<371.4 484> 52 144<28.375 157 321 337.8> 60 130<10 157>
LayerCount: 2
Fore
SplineSet
52 319 m 0xd0
 52 484 l 0
 206 489 l 0xe0
 196 321 l 0
 52 319 l 0xd0
60 10 m 4xc8
 54 157 l 0
 192 157 l 0
 190 10 l 4
 60 10 l 4xc8
EndSplineSet
Validated: 1
EndChar

StartChar: semicolon
Encoding: 59 59 28
Width: 233
Flags: W
HStem: 320 162<64 200>
VStem: 69 134<138.897 151.896 322 395.6>
LayerCount: 2
Fore
SplineSet
101 -116 m 1
 11 -95 l 1
 69 171 l 5
 203 151 l 1
 101 -116 l 1
64 320 m 0
 54 482 l 0
 200 487 l 0
 204 322 l 0
 64 320 l 0
EndSplineSet
Validated: 1
EndChar

StartChar: less
Encoding: 60 60 29
Width: 596
Flags: W
LayerCount: 2
Fore
SplineSet
58 235 m 1
 58 307 l 1
 508 532 l 5
 538 430 l 1
 196 266 l 1
 196 264 l 1
 538 101 l 1
 498 10 l 5
 58 235 l 1
EndSplineSet
Validated: 1
EndChar

StartChar: equal
Encoding: 61 61 30
Width: 596
Flags: W
HStem: 128.534 81.9863<60.7285 445.806> 137.152 81.9863<150.089 535.166> 323.52 101.97<293.829 555.81> 326.163 111.97<40.5096 317.479>
LayerCount: 2
Fore
SplineSet
554.8671875 323.51953125 m 5x20
 407 330 238.052734375 329.813476562 39.021484375 326.163085938 c 1
 35 365 37 410 41.521484375 438.1328125 c 1x10
 235.012993096 442.452224433 391 436 557.366210938 425.489257812 c 5
 560 396 559.158439407 348.000000076 554.8671875 323.51953125 c 5x20
536.650390625 137.15234375 m 1x40
 60.728515625 128.534179688 l 1
 59.244140625 210.520507812 l 1x80
 535.166015625 219.138671875 l 1
 536.650390625 137.15234375 l 1x40
EndSplineSet
Validated: 33
EndChar

StartChar: greater
Encoding: 62 62 31
Width: 596
Flags: W
HStem: 0 21G<89.9192 139.509>
LayerCount: 2
Fore
SplineSet
538 310 m 1
 538 212 l 1
 98 0 l 5
 58 99 l 1
 432 265 l 1
 432 267 l 1
 68 433 l 1
 108 522 l 5
 538 310 l 1
EndSplineSet
Validated: 1
EndChar

StartChar: question
Encoding: 63 63 32
Width: 334
Flags: W
HStem: -8 21G<77.4103 213> 569 113<40.6543 186.195>
VStem: 88 111<99 148 211 229> 192 124<443.865 562.218>
LayerCount: 2
Fore
SplineSet
199 204 m 1xe0
 88 211 l 1xe0
 86 229 l 2
 76.6829268293 312.853658537 90 322 139 396 c 0
 167.634644605 439.244157158 192 469 192 507 c 4
 192 562 186 569 116 569 c 4
 94 569 68 566 42 561 c 1
 20 670 l 1
 69 678 112 682 147 682 c 0
 269 682 316 678 316 528 c 0xd0
 316 459 276.928336337 403.049106954 242 352 c 0
 203 295 199 293 199 229 c 2
 199 204 l 1xe0
76 -8 m 0
 87 148 l 0
 197 154 l 0
 213 0 l 0
 76 -8 l 0
EndSplineSet
Validated: 33
EndChar

StartChar: at
Encoding: 64 64 33
Width: 621
Flags: W
HStem: -98 56<189.96 397.384> -26 20G<406 431.769> 65 75<248.154 342.854 408 489.21> 367 61<280.993 361.219> 507 85<205.116 471.73>
VStem: 358 79<151.807 366.683> 517 74<183.744 465.865>
LayerCount: 2
Fore
SplineSet
358 232 m 2
 362 362 l 1
 355 366 335.999798383 367 325 367 c 0
 280 367 270 365 250 190 c 0
 246.025880683 155.226455972 245.030342442 135.457069065 280 134 c 0
 328 132 355.445731852 148.986285174 358 232 c 2
426 -6 m 1
 441 -58 l 1
 389 -88 339 -98 282 -98 c 0
 101 -98 19.2438255657 3.34931732304 31 201 c 0
 47 470 99 592 355 592 c 0
 553 592 598 485 591 334 c 0
 582.988736048 161.185591892 542 65 433 65 c 0
 383 65 368 70 370 130 c 1
 367 130 l 1
 345 56 290.984363894 63.8270836295 247 65 c 0
 172 67 151 74 161 185 c 0
 182.71404797 426.025932465 188 428 338 428 c 0
 371 428 400 425 443 417 c 1
 437 223 l 2
 435.424187726 172.048736462 425 140 455 140 c 0
 495 140 512.651641936 186.070571635 517 320 c 0
 522 474 503 507 344 507 c 0
 181 507 116 488 96 201 c 0
 84.1819706841 31.4112793164 155 -42 296 -42 c 0
 343 -42 386 -29 426 -6 c 1
EndSplineSet
Validated: 33
Substitution2: "'case' +BCAENQQzBDgEQQRCBEAEPgQ3BDAEMgQ4BEEEOAQ8BEsENQAA +BEQEPgRABDwESwAA lookup 4 subtable" at.cap
Substitution2: "'aalt' +BBIEQQQ1 +BDAEOwRMBEIENQRABD0EMARCBDgEMgQ9BEsENQAA +BDIEMARABDgEMAQ9BEIESwAA lookup 0 subtable" at.cap
EndChar

StartChar: A
Encoding: 65 65 34
Width: 546
Flags: HW
HStem: 0 11G<22 148.082 412 529.959> 257 138<225 329>
VStem: 22 126<3 471> 224 116<565.838 567 579 683.481> 224 105<257 393> 224 10<567 577> 412 118<-8 467>
LayerCount: 2
Fore
SplineSet
224 393 m 1xea
 329 395 l 1
 329 257 l 1
 225 256 l 1
 224 393 l 1xea
414 477 m 1
 529 475 l 1
 530 -10 l 1
 412 -8 l 1
 414 477 l 1
21 484 m 1
 150 486 l 1
 148 0 l 1
 22 3 l 1
 21 484 l 1
317 579 m 1
 359.3515625 577.608398438 393.294921875 577.6171875 431 577 c 1
 432 467 l 1
 319 470 l 1
 317 579 l 1
234 577 m 1xe6
 235 471 l 1
 130 471 l 1
 130 580 l 1
 168.232421875 579.651367188 202 579 234 577 c 1xe6
219 683 m 5xf2
 256.484375 686.548828125 294.856445312 687.431640625 335 683 c 5
 335 565 l 5
 293.666992188 567.655273438 260.333007812 564.319335938 219 567 c 5
 219 683 l 5xf2
EndSplineSet
Position2: "'cpsp' +BBgEPQRCBDUEQAQyBDAEOwAA +BD8EQAQ+BD8EOARBBD0ESwRF lookup 0 subtable" dx=10 dy=0 dh=20 dv=0
EndChar

StartChar: B
Encoding: 66 66 35
Width: 483
Flags: HW
HStem: -4.9248 94.751<194.304 303.419> 302.779 96.9795<189.867 292.544>
VStem: 51.3135 136.533<399.759 569.701> 65.1025 129.201<89.8262 302.779> 315 136<101.029 285.617>
LayerCount: 2
Fore
SplineSet
166 381 m 5
 343 383 l 5
 343 275 l 5
 167 274 l 5
 166 381 l 5
335 279 m 5
 449 277 l 5
 449 78 l 5
 336 81 l 5
 335 279 l 5
162 108 m 5
 342 109 l 5
 342 -6 l 5
 162 -7 l 5
 162 108 l 5
51 573 m 5
 180 575 l 5
 178 82 l 5
 52 85 l 5
 51 573 l 5
315 579 m 5
 357.3515625 577.608398438 391.294921875 577.6171875 429 577 c 5
 430 373 l 5
 317 376 l 5
 315 579 l 5
159 683 m 5
 196.484375 686.548828125 280.856445312 687.431640625 321 683 c 5
 321 565 l 5
 279.666992188 560.801757812 200.333007812 558.209960938 159 567 c 5
 159 683 l 5
EndSplineSet
Position2: "'cpsp' +BBgEPQRCBDUEQAQyBDAEOwAA +BD8EQAQ+BD8EOARBBD0ESwRF lookup 0 subtable" dx=10 dy=0 dh=20 dv=0
EndChar

StartChar: C
Encoding: 67 67 36
Width: 453
Flags: HW
VStem: 25 139<144.455 525.088>
LayerCount: 2
Fore
SplineSet
314 188 m 1
 428 186 l 1
 428 78 l 1
 315 81 l 1
 314 188 l 1
219 186 m 1
 216 79 l 1
 108 80 l 1
 105 187 l 1
 219 186 l 1
208 108 m 1
 326 109 l 1
 326 -6 l 1
 208 -7 l 1
 208 108 l 1
21 484 m 1
 150 486 l 1
 148 172 l 1
 22 175 l 1
 21 484 l 1
317 579 m 1
 359.3515625 577.608398438 393.294921875 577.6171875 431 577 c 1
 432 467 l 1
 319 470 l 1
 317 579 l 1
234 577 m 1
 235 471 l 1
 120 471 l 1
 120 580 l 1
 158.232421875 579.651367188 202 579 234 577 c 1
224 683 m 1
 261.48394004 686.548840104 299.856364957 687.431729606 340 683 c 1
 340 565 l 1
 298.666992188 560.801757812 265.333007812 558.209960938 224 567 c 1
 224 683 l 1
EndSplineSet
Position2: "'cpsp' +BBgEPQRCBDUEQAQyBDAEOwAA +BD8EQAQ+BD8EOARBBD0ESwRF lookup 0 subtable" dx=10 dy=0 dh=20 dv=0
EndChar

StartChar: D
Encoding: 68 68 37
Width: 491
Flags: HW
HStem: 550 122<194 319.675>
VStem: 58 131<93 550> 330 136<102.523 546.917>
LayerCount: 2
Fore
SplineSet
251 188 m 1
 365 186 l 1
 365 78 l 1
 252 81 l 1
 251 188 l 1
145 108 m 1
 263 109 l 1
 263 -6 l 1
 145 -7 l 1
 145 108 l 1
351 477 m 1
 466 475 l 1
 467 170 l 1
 349 172 l 1
 351 477 l 1
21 574 m 1
 150 576 l 1
 148 93 l 5
 22 96 l 5
 21 574 l 1
254 579 m 1
 296.3515625 577.608398438 330.294921875 577.6171875 368 577 c 1
 369 467 l 1
 256 470 l 1
 254 579 l 1
142 683 m 1
 179.484375 686.548828125 217.856445312 687.431640625 258 683 c 1
 258 565 l 1
 216.666992188 560.801757812 183.333007812 558.209960938 142 567 c 1
 142 683 l 1
EndSplineSet
Position2: "'cpsp' +BBgEPQRCBDUEQAQyBDAEOwAA +BD8EQAQ+BD8EOARBBD0ESwRF lookup 0 subtable" dx=10 dy=0 dh=20 dv=0
EndChar

StartChar: E
Encoding: 69 69 38
Width: 394
Flags: HW
HStem: -3.89453 107.98<196.566 329.667> 4 104<196.566 359> 286 118.943<190.969 343> 560 124<184.534 361.415>
VStem: 48.0977 139.211<442.285 557.594> 68.8262 127.74<104.086 223.607>
LayerCount: 2
Fore
SplineSet
323 405 m 5
 323 286 l 5
 190.96875 286 l 1
 196.56640625 104.0859375 l 1
 359 108 l 1
 363 4 l 1
 184 -0.803694138112 l 1
 184 94 l 1
 65.8140542838 94 l 1
 51.444927662 561 l 1
 174 561 l 1
 174 683.820603763 l 1
 227.635116944 687.38459344 294.164198822 688.970933416 365 684 c 1
 366 646 364 601 361 560 c 1
 304 564 218 560 182.849609375 554.875 c 1
 187.30859375 404.943359375 l 1
 323 405 l 5
EndSplineSet
Position2: "'cpsp' +BBgEPQRCBDUEQAQyBDAEOwAA +BD8EQAQ+BD8EOARBBD0ESwRF lookup 0 subtable" dx=10 dy=0 dh=20 dv=0
EndChar

StartChar: F
Encoding: 70 70 39
Width: 392
Flags: HW
HStem: -10 21G<57.8851 189> 278 119<189 338.602> 560 119.677<189 269.285> 565.591 123.935<189 356.879>
VStem: 58 131<-10 278 397 560>
LayerCount: 2
Fore
SplineSet
54.703414898 564 m 1
 178 564 l 1
 178 683.708082559 l 1
 356.87890625 689.525390625 l 1
 360.909179688 565.590820312 l 1
 189 560 l 1
 189 397 l 1
 324.543945312 391.861328125 l 5
 318.6015625 273.009765625 l 5
 189 278 l 1
 189 -10 l 1
 58 -10 l 1
 54.703414898 564 l 1
EndSplineSet
Position2: "'cpsp' +BBgEPQRCBDUEQAQyBDAEOwAA +BD8EQAQ+BD8EOARBBD0ESwRF lookup 0 subtable" dx=10 dy=0 dh=20 dv=0
EndChar

StartChar: G
Encoding: 71 71 40
Width: 472
Flags: HW
HStem: 271 122<241 311>
VStem: 25 136<152.611 527.736> 306 116<98 271> 311 121<122 271>
LayerCount: 2
Fore
SplineSet
224 683 m 1
 261.48394004 686.548840104 299.856364957 687.431729606 340 683 c 1
 340 565 l 1
 298.666992188 560.801757812 265.333007812 558.209960938 224 567 c 1
 224 683 l 1
234 577 m 1
 235 471 l 1
 120 471 l 1
 120 580 l 1
 158.232421875 579.651367188 202 579 234 577 c 1
317 579 m 1
 359.3515625 577.608398438 393.294921875 577.6171875 431 577 c 1
 432 467 l 1
 319 470 l 1
 317 579 l 1
21 484 m 1
 150 486 l 1
 148 172 l 1
 22 175 l 1
 21 484 l 1
208 108 m 1
 326 109 l 1
 326 -6 l 1
 208 -7 l 1
 208 108 l 1
219 186 m 1
 216 79 l 1
 108 80 l 1
 105 187 l 1
 219 186 l 1
224 381 m 5
 428 376 l 5
 428 78 l 1
 315 81 l 1
 314.347275729 274.85910842 l 1
 225 274 l 1
 224 381 l 5
EndSplineSet
Position2: "'cpsp' +BBgEPQRCBDUEQAQyBDAEOwAA +BD8EQAQ+BD8EOARBBD0ESwRF lookup 0 subtable" dx=10 dy=0 dh=20 dv=0
EndChar

StartChar: H
Encoding: 72 72 41
Width: 595
Flags: HW
HStem: 450.988 0.000566727G<-941.083 -7.51024> 450.995 0.00329179<-46.5472 911.845> 451.006 0.00053974G<953.931 1887>
VStem: -1031.6 968.164<450.999 451.006> -938.314 930.804<450.988 450.995> 879.68 930.861<450.988 450.995 450.999 451> 925.291 961.711<450.994 450.995 450.999 451.006>
LayerCount: 2
Fore
SplineSet
264 403 m 5
 369 405 l 5
 369 257 l 1
 265 256 l 1
 264 403 l 5
444 675 m 1
 559 673 l 1
 560 -2 l 1
 442 0 l 1
 444 675 l 1
51 665 m 1
 180 667 l 1
 178 -8 l 1
 52 -5 l 1
 51 665 l 1
EndSplineSet
Position2: "'cpsp' +BBgEPQRCBDUEQAQyBDAEOwAA +BD8EQAQ+BD8EOARBBD0ESwRF lookup 0 subtable" dx=10 dy=0 dh=20 dv=0
EndChar

StartChar: I
Encoding: 73 73 42
Width: 248
Flags: W
HStem: 0 21G<57.8494 189.151>
VStem: 58 131<0 664>
LayerCount: 2
Fore
SplineSet
53 664 m 1
 194 664 l 1
 189 0 l 1
 58 0 l 1
 53 664 l 1
EndSplineSet
Validated: 1
Position2: "'cpsp' +BBgEPQRCBDUEQAQyBDAEOwAA +BD8EQAQ+BD8EOARBBD0ESwRF lookup 0 subtable" dx=10 dy=0 dh=20 dv=0
EndChar

StartChar: J
Encoding: 74 74 43
Width: 296
Flags: HW
HStem: -151 21G<15.52 77> 664 20G<111 247>
VStem: 115 132<6.7666 684>
LayerCount: 2
Fore
SplineSet
1 -41 m 5
 146 -33 l 5
 146 -141 l 5
 2 -148 l 5
 1 -41 l 5
133 685 m 5
 248 683 l 5
 249 -50 l 5
 209.666992188 -50.798828125 170.333007812 -48.80859375 131 -48 c 5
 133 685 l 5
EndSplineSet
Position2: "'cpsp' +BBgEPQRCBDUEQAQyBDAEOwAA +BD8EQAQ+BD8EOARBBD0ESwRF lookup 0 subtable" dx=10 dy=0 dh=20 dv=0
EndChar

StartChar: K
Encoding: 75 75 44
Width: 535
Flags: HW
HStem: 0 21G<58 189> 634 20G<58 189> 664 20G<315.502 406.667>
VStem: 58 131<0 334 371 654>
LayerCount: 2
Fore
SplineSet
288 300 m 5
 406 301 l 5
 406 107 l 5
 288 106 l 5
 288 300 l 5
288 561 m 5
 406 562 l 5
 406 403 l 5
 288 402 l 5
 288 561 l 5
180 408 m 5
 298 409 l 5
 298 294 l 5
 180 293 l 5
 180 408 l 5
380 671 m 5
 498 672 l 5
 498 557 l 5
 380 556 l 5
 380 671 l 5
391 115 m 5
 509 116 l 5
 509 1 l 5
 391 0 l 5
 391 115 l 5
58 0 m 5
 58 654 l 5
 189 654 l 5
 189 0 l 5
 58 0 l 5
EndSplineSet
Position2: "'cpsp' +BBgEPQRCBDUEQAQyBDAEOwAA +BD8EQAQ+BD8EOARBBD0ESwRF lookup 0 subtable" dx=10 dy=0 dh=20 dv=0
EndChar

StartChar: L
Encoding: 76 76 45
Width: 380
Flags: HW
HStem: -14 111<193.742 362> 654 20G<58 189>
VStem: 58 131<102 674>
LayerCount: 2
Fore
SplineSet
58 95 m 1
 58 674 l 1
 189 674 l 1
 189 102 l 1
 189 102 273 94 362 97 c 1
 362 -14 l 1
 293.272776664 -16.9334790448 228.760393805 -15.8277359662 177 -13.5530189928 c 1
 177 95 l 1
 58 95 l 1
EndSplineSet
Position2: "'cpsp' +BBgEPQRCBDUEQAQyBDAEOwAA +BD8EQAQ+BD8EOARBBD0ESwRF lookup 0 subtable" dx=10 dy=0 dh=20 dv=0
EndChar

StartChar: M
Encoding: 77 77 46
Width: 637
Flags: HW
HStem: 0 11G<33 157.111 470.95 599> 672 20G<420 549.474>
LayerCount: 2
Fore
SplineSet
257 416 m 5
 376 418 l 5
 376 260 l 5
 258 259 l 5
 257 416 l 5
370 582 m 5
 478 583 l 5
 478 414 l 5
 370 413 l 5
 370 582 l 5
156 582 m 5
 264 583 l 5
 264 408 l 5
 156 407 l 5
 156 582 l 5
29 674 m 5
 159.984375 671.96875 l 5
 159.225585938 -1.947265625 l 5
 28.2412109375 0.0830078125 l 5
 29 674 l 5
471 696 m 5
 601.984375 693.96875 l 5
 601.225585938 0.052734375 l 5
 470.241210938 2.0830078125 l 5
 471 696 l 5
EndSplineSet
Position2: "'cpsp' +BBgEPQRCBDUEQAQyBDAEOwAA +BD8EQAQ+BD8EOARBBD0ESwRF lookup 0 subtable" dx=10 dy=0 dh=20 dv=0
EndChar

StartChar: N
Encoding: 78 78 47
Width: 608
Flags: HW
HStem: -3 21G<323 453.292> 664 20G<347.768 463>
VStem: 53 116<203.2 429> 63 115<10 335.889> 343 110<253 475.8> 348 115<253 681>
LayerCount: 2
Fore
SplineSet
264 416 m 5
 373 418 l 5
 373 260 l 5
 265 259 l 5
 264 416 l 5
363 272 m 5
 471 273 l 5
 471 104 l 5
 363 103 l 5
 363 272 l 5
163 582 m 5
 271 583 l 5
 271 408 l 5
 163 407 l 5
 163 582 l 5
178 10 m 1
 63 7 l 1
 53 661 l 1
 183 664 l 1
 178 10 l 1
453 684 m 1
 568 681 l 1
 558 -3 l 1
 448 0 l 1
 453 684 l 1
EndSplineSet
Position2: "'cpsp' +BBgEPQRCBDUEQAQyBDAEOwAA +BD8EQAQ+BD8EOARBBD0ESwRF lookup 0 subtable" dx=10 dy=0 dh=20 dv=0
EndChar

StartChar: O
Encoding: 79 79 48
Width: 546
Flags: HW
HStem: -8 103.928<182.79 301.631> 558 124<169.56 311.242>
VStem: 23.4893 130.47<128.033 545.569> 326.063 131.48<119.972 543.331>
LayerCount: 2
Fore
SplineSet
224 393 m 5
 329 395 l 5
 329 257 l 5
 225 256 l 5
 224 393 l 5
314 188 m 1
 428 186 l 1
 428 78 l 1
 315 81 l 1
 314 188 l 1
219 186 m 1
 216 79 l 1
 108 80 l 1
 105 187 l 1
 219 186 l 1
208 108 m 1
 326 109 l 1
 326 -6 l 1
 208 -7 l 1
 208 108 l 1
414 477 m 1
 529 475 l 1
 530 170 l 1
 412 172 l 1
 414 477 l 1
21 484 m 1
 150 486 l 1
 148 172 l 1
 22 175 l 1
 21 484 l 1
317 579 m 1
 359.3515625 577.608398438 393.294921875 577.6171875 431 577 c 1
 432 467 l 1
 319 470 l 1
 317 579 l 1
234 577 m 1
 235 471 l 1
 120 471 l 1
 120 580 l 1
 158.232421875 579.651367188 202 579 234 577 c 1
224 683 m 1
 261.48394004 686.548840104 299.856364957 687.431729606 340 683 c 1
 340 565 l 1
 298.666992188 560.801757812 265.333007812 558.209960938 224 567 c 1
 224 683 l 1
EndSplineSet
Position2: "'cpsp' +BBgEPQRCBDUEQAQyBDAEOwAA +BD8EQAQ+BD8EOARBBD0ESwRF lookup 0 subtable" dx=10 dy=0 dh=20 dv=0
EndChar

StartChar: P
Encoding: 80 80 49
Width: 457
Flags: HW
HStem: -4.9248 94.751<194.304 303.419> 302.779 96.9795<189.867 292.544>
VStem: 51.3135 136.533<399.759 569.701> 65.1025 129.201<89.8262 302.779> 315 136<101.029 285.617>
LayerCount: 2
Fore
SplineSet
166 325 m 5
 330 327 l 5
 330 219 l 5
 167 218 l 5
 166 325 l 5
51 573 m 5
 180 575 l 5
 178 -10 l 5
 52 -7 l 5
 51 573 l 5
315 579 m 5
 357.3515625 577.608398438 391.294921875 577.6171875 429 577 c 5
 430 314 l 5
 317 317 l 5
 315 579 l 5
159 683 m 5
 196.484375 686.548828125 280.856445312 687.431640625 321 683 c 5
 321 565 l 5
 279.666992188 560.801757812 200.333007812 558.209960938 159 567 c 5
 159 683 l 5
EndSplineSet
Position2: "'cpsp' +BBgEPQRCBDUEQAQyBDAEOwAA +BD8EQAQ+BD8EOARBBD0ESwRF lookup 0 subtable" dx=10 dy=0 dh=20 dv=0
EndChar

StartChar: Q
Encoding: 81 81 50
Width: 546
Flags: HW
HStem: -8 103.928<182.79 301.631> 558 124<169.56 311.242>
VStem: 23.4893 130.47<128.033 545.569> 326.063 131.48<119.972 543.331>
LayerCount: 2
Fore
SplineSet
410 90 m 1
 515 92 l 1
 514 -79 l 5
 410 -80 l 5
 410 90 l 1
314 188 m 1
 428 186 l 1
 428 78 l 1
 315 81 l 1
 314 188 l 1
219 186 m 1
 216 79 l 1
 108 80 l 1
 105 187 l 1
 219 186 l 1
208 108 m 1
 326 109 l 1
 326 -6 l 1
 208 -7 l 1
 208 108 l 1
414 477 m 1
 529 475 l 1
 530 170 l 1
 412 172 l 1
 414 477 l 1
21 484 m 1
 150 486 l 1
 148 172 l 1
 22 175 l 1
 21 484 l 1
317 579 m 1
 359.3515625 577.608398438 393.294921875 577.6171875 431 577 c 1
 432 467 l 1
 319 470 l 1
 317 579 l 1
234 577 m 1
 235 471 l 1
 120 471 l 1
 120 580 l 1
 158.232421875 579.651367188 202 579 234 577 c 1
224 683 m 1
 261.48394004 686.548840104 299.856364957 687.431729606 340 683 c 1
 340 565 l 1
 298.666992188 560.801757812 265.333007812 558.209960938 224 567 c 1
 224 683 l 1
EndSplineSet
Position2: "'cpsp' +BBgEPQRCBDUEQAQyBDAEOwAA +BD8EQAQ+BD8EOARBBD0ESwRF lookup 0 subtable" dx=10 dy=0 dh=20 dv=0
EndChar

StartChar: R
Encoding: 82 82 51
Width: 470
Flags: HW
HStem: -10 21G<324 355>
VStem: 58 131<10 261 359 563> 312 122<377.65 558.975> 338 117<7.21964 171>
LayerCount: 2
Fore
SplineSet
323 231 m 1
 365.3515625 229.608398438 399.294921875 229.6171875 437 229 c 1
 438 -11 l 1
 325 -8 l 1
 323 231 l 1
166 325 m 1
 330 327 l 1
 330 219 l 1
 167 218 l 1
 166 325 l 1
51 573 m 1
 180 575 l 1
 178 -10 l 1
 52 -7 l 1
 51 573 l 1
315 579 m 1
 357.3515625 577.608398438 391.294921875 577.6171875 429 577 c 1
 430 314 l 1
 317 317 l 1
 315 579 l 1
159 683 m 1
 196.484375 686.548828125 280.856445312 687.431640625 321 683 c 1
 321 565 l 1
 279.66699043 567.491712351 200.333005474 567.107056075 159 567 c 1
 159 683 l 1
EndSplineSet
Position2: "'cpsp' +BBgEPQRCBDUEQAQyBDAEOwAA +BD8EQAQ+BD8EOARBBD0ESwRF lookup 0 subtable" dx=10 dy=0 dh=20 dv=0
EndChar

StartChar: S
Encoding: 83 83 52
Width: 394
Flags: W
HStem: -6 114<60.5489 242.897> 557 123<166.208 350.577>
VStem: 257 119<122.232 237.759>
LayerCount: 2
Fore
SplineSet
44 11 m 1
 63 124 l 1
 91 115 131 108 164 108 c 0
 213 108 258 107 257 184 c 0
 256.36328125 232.99609375 235 246 159 294 c 0
 46.6135644702 364.98090665 30.1639213981 406.065886445 27 482 c 0
 20 650 73.9970760484 680 245 680 c 4
 283 680 331 673 364 666 c 5
 350 543 l 1
 318 551 270 557 239 557 c 4
 190 557 152 551 156 492 c 0
 158.706054688 452.091796875 178.229666842 443.809626141 254 391 c 0
 353 322 378.224229147 291.973681447 376 198 c 0
 372 29 341 -6 163 -6 c 0
 117 -6 72 2 44 11 c 1
EndSplineSet
Validated: 33
Position2: "'cpsp' +BBgEPQRCBDUEQAQyBDAEOwAA +BD8EQAQ+BD8EOARBBD0ESwRF lookup 0 subtable" dx=10 dy=0 dh=20 dv=0
EndChar

StartChar: T
Encoding: 84 84 53
Width: 393
Flags: W
HStem: 547.486 130.936<272.093 382.039> 559.073 130.936<16.3232 141.157>
VStem: 141 131<-20 550.932>
LayerCount: 2
Fore
SplineSet
141 -20 m 5xa0
 141.157226562 555.033203125 l 1
 12.220703125 559.073242188 l 1
 16.3232421875 690.008789062 l 1x60
 386.141601562 678.421875 l 1
 382.0390625 547.486328125 l 1
 272.092773438 550.931640625 l 1
 272 -20 l 5
 141 -20 l 5xa0
EndSplineSet
Validated: 1
Position2: "'cpsp' +BBgEPQRCBDUEQAQyBDAEOwAA +BD8EQAQ+BD8EOARBBD0ESwRF lookup 0 subtable" dx=10 dy=0 dh=20 dv=0
EndChar

StartChar: U
Encoding: 85 85 54
Width: 516
Flags: HW
HStem: -8 105<197.9 303.686> 664 20G<314 445>
VStem: 54 131<106.375 664> 314 131<109.01 684>
LayerCount: 2
Fore
SplineSet
160 108 m 1
 361 109 l 1
 361 -6 l 1
 160 -7 l 1
 160 108 l 1
347 677 m 1
 462 675 l 1
 463 99 l 1
 345 101 l 1
 347 677 l 1
56 660 m 1
 185 662 l 1
 183 100 l 1
 57 103 l 1
 56 660 l 1
EndSplineSet
Position2: "'cpsp' +BBgEPQRCBDUEQAQyBDAEOwAA +BD8EQAQ+BD8EOARBBD0ESwRF lookup 0 subtable" dx=10 dy=0 dh=20 dv=0
EndChar

StartChar: V
Encoding: 86 86 55
Width: 542
Flags: HW
HStem: -8 103.928<182.79 301.631> 558 124<169.56 311.242>
VStem: 23.4893 130.47<128.033 545.569> 326.063 131.48<119.972 543.331>
LayerCount: 2
Fore
SplineSet
314 208 m 1
 428 206 l 1
 428 98 l 1
 315 101 l 1
 314 208 l 1
219 206 m 1
 216 99 l 1
 108 100 l 1
 105 207 l 1
 219 206 l 1
208 108 m 1
 326 109 l 1
 326 -6 l 1
 208 -7 l 1
 208 108 l 1
414 676 m 1
 518 675 l 1
 517 187 l 1
 410 188 l 1
 414 676 l 1
21 657 m 1
 138 661 l 1
 136 193 l 1
 22 194 l 1
 21 657 l 1
EndSplineSet
Position2: "'cpsp' +BBgEPQRCBDUEQAQyBDAEOwAA +BD8EQAQ+BD8EOARBBD0ESwRF lookup 0 subtable" dx=10 dy=0 dh=20 dv=0
EndChar

StartChar: W
Encoding: 87 87 56
Width: 641
Flags: HW
HStem: -8 21G<124.552 248 402 550.531> 654 20G<13 141.839 532.591 666>
LayerCount: 2
Fore
SplineSet
257 264 m 1
 376 262 l 1
 376 420 l 1
 258 421 l 1
 257 264 l 1
370 98 m 1
 478 97 l 1
 478 266 l 1
 370 267 l 1
 370 98 l 1
156 98 m 1
 264 97 l 1
 264 272 l 1
 156 273 l 1
 156 98 l 1
29 6 m 1
 159.984375 8.03125 l 1
 159.225585938 681.947265625 l 1
 28.2412109375 679.916992188 l 1
 29 6 l 1
471 -16 m 1
 601.984375 -13.96875 l 1
 601.225585938 679.947265625 l 1
 470.241210938 677.916992188 l 1
 471 -16 l 1
EndSplineSet
Position2: "'cpsp' +BBgEPQRCBDUEQAQyBDAEOwAA +BD8EQAQ+BD8EOARBBD0ESwRF lookup 0 subtable" dx=10 dy=0 dh=20 dv=0
EndChar

StartChar: X
Encoding: 88 88 57
Width: 552
Flags: HW
HStem: 0 21G<2 132.574> 654 20G<267.178 399>
LayerCount: 2
Fore
SplineSet
414 197 m 5
 529 195 l 5
 530 0 l 5
 412 2 l 5
 414 197 l 5
21 184 m 5
 150 186 l 5
 148 2 l 5
 22 5 l 5
 21 184 l 5
224 403 m 5
 329 405 l 5
 329 267 l 5
 225 266 l 5
 224 403 l 5
314 278 m 5
 418 276 l 5
 418 168 l 5
 315 171 l 5
 314 278 l 5
229 276 m 5
 226 169 l 5
 128 170 l 5
 125 277 l 5
 229 276 l 5
414 677 m 5
 529 675 l 5
 530 486 l 5
 412 488 l 5
 414 677 l 5
21 664 m 5
 150 666 l 5
 148 488 l 5
 22 491 l 5
 21 664 l 5
317 499 m 5
 359.3515625 497.608398438 383.294921875 497.6171875 421 497 c 5
 422 387 l 5
 319 390 l 5
 317 499 l 5
234 497 m 5
 235 391 l 5
 130 391 l 5
 130 500 l 5
 168.232421875 499.651367188 202 499 234 497 c 5
EndSplineSet
Position2: "'cpsp' +BBgEPQRCBDUEQAQyBDAEOwAA +BD8EQAQ+BD8EOARBBD0ESwRF lookup 0 subtable" dx=10 dy=0 dh=20 dv=0
EndChar

StartChar: Y
Encoding: 89 89 58
Width: 554
Flags: HW
HStem: -10 21G<133 264> 654 20G<-15 130.066>
VStem: 133 131<-10 258>
LayerCount: 2
Fore
SplineSet
224 393 m 1
 329 395 l 1025
224 393 m 1
 329 395 l 1
 329 -13 l 1
 225 -14 l 1
 224 393 l 1
414 677 m 1
 529 675 l 1
 530 486 l 1
 412 488 l 1
 414 677 l 1
21 664 m 1
 150 666 l 1
 148 488 l 1
 22 491 l 1
 21 664 l 1
317 499 m 1
 421 502 l 1
 422 386 l 1
 319 384 l 1
 317 499 l 1
234 497 m 1
 235 385 l 1
 130 388 l 1
 130 503 l 1
 234 497 l 1
EndSplineSet
Position2: "'cpsp' +BBgEPQRCBDUEQAQyBDAEOwAA +BD8EQAQ+BD8EOARBBD0ESwRF lookup 0 subtable" dx=10 dy=0 dh=20 dv=0
EndChar

StartChar: Z
Encoding: 90 90 59
Width: 375
Flags: HW
HStem: -3.37305 103.951<179.595 359.325> 7.03516 99.1455<179.595 248.043> 549.784 130.267<75.5962 226.12>
LayerCount: 2
Fore
SplineSet
33 118 m 1
 340 118 l 1
 340 -2 l 1
 33 -2 l 1
 33 118 l 1
29 678 m 1
 340 678 l 1
 340 558 l 1
 29 558 l 1
 29 678 l 1
134 416 m 1
 243 418 l 1
 243 260 l 1
 135 259 l 1
 134 416 l 1
33 272 m 1
 141 273 l 1
 141 104 l 1
 33 103 l 1
 33 272 l 1
233 582 m 1
 341 583 l 1
 341 408 l 1
 233 407 l 1
 233 582 l 1
EndSplineSet
Position2: "'cpsp' +BBgEPQRCBDUEQAQyBDAEOwAA +BD8EQAQ+BD8EOARBBD0ESwRF lookup 0 subtable" dx=10 dy=0 dh=20 dv=0
EndChar

StartChar: bracketleft
Encoding: 91 91 60
Width: 258
Flags: W
HStem: -116 88<149 232> 578 108<149 232>
VStem: 40 109<126.2 578> 50 99<-28 443.8>
LayerCount: 2
Fore
SplineSet
232 -116 m 5xd0
 50 -112 l 1xd0
 40 682 l 1
 232 686 l 1
 235 582 l 1
 149 578 l 1xe0
 149 -28 l 1
 235 -32 l 1
 232 -116 l 5xd0
EndSplineSet
Validated: 1
Substitution2: "'case' +BCAENQQzBDgEQQRCBEAEPgQ3BDAEMgQ4BEEEOAQ8BEsENQAA +BEQEPgRABDwESwAA lookup 4 subtable" bracketleft.cap
Substitution2: "'aalt' +BBIEQQQ1 +BDAEOwRMBEIENQRABD0EMARCBDgEMgQ9BEsENQAA +BDIEMARABDgEMAQ9BEIESwAA lookup 0 subtable" bracketleft.cap
EndChar

StartChar: backslash
Encoding: 92 92 61
Width: 233
Flags: W
HStem: 672 20G<-17 82.8361>
VStem: -17 272
LayerCount: 2
Fore
SplineSet
255 -40 m 1
 170 -50 l 5
 -17 682 l 1
 78 692 l 1
 255 -40 l 1
EndSplineSet
Validated: 1
EndChar

StartChar: bracketright
Encoding: 93 93 62
Width: 258
Flags: W
HStem: -116 84<23 109> 596 104<23 109>
VStem: 109 109<130.4 592> 109 99<-28 453.6>
LayerCount: 2
Fore
SplineSet
23 700 m 1xe0
 218 696 l 1xe0
 208 -112 l 1
 23 -116 l 5
 20 -32 l 5
 109 -28 l 1xd0
 109 592 l 1
 20 596 l 1
 23 700 l 1xe0
EndSplineSet
Validated: 1
Substitution2: "'case' +BCAENQQzBDgEQQRCBEAEPgQ3BDAEMgQ4BEEEOAQ8BEsENQAA +BEQEPgRABDwESwAA lookup 4 subtable" bracketright.cap
Substitution2: "'aalt' +BBIEQQQ1 +BDAEOwRMBEIENQRABD0EMARCBDgEMgQ9BEsENQAA +BDIEMARABDgEMAQ9BEIESwAA lookup 0 subtable" bracketright.cap
EndChar

StartChar: asciicircum
Encoding: 94 94 63
Width: 596
Flags: W
HStem: 630 20G<254 349.571>
LayerCount: 2
Fore
SplineSet
552 207 m 1
 452 167 l 1
 298 534 l 1
 293 534 l 1
 133 177 l 1
 44 217 l 1
 254 644 l 1
 340 650 l 1
 552 207 l 1
EndSplineSet
Validated: 1
EndChar

StartChar: underscore
Encoding: 95 95 64
Width: 500
Flags: W
LayerCount: 2
Fore
SplineSet
0 -75 m 5
 196 -59 307 -59 500 -75 c 5
 504 -83 502 -126 500 -135 c 5
 313 -127 207 -133 0 -145 c 5
 2 -129 3 -89 0 -75 c 5
EndSplineSet
Validated: 33
EndChar

StartChar: quoteleft
Encoding: 8216 8216 65
Width: 190
Flags: W
HStem: 411 274
VStem: 8 180
LayerCount: 2
Fore
SplineSet
121 411 m 5
 8 431 l 1
 110 685 l 1
 188 672 l 1
 121 411 l 5
EndSplineSet
Validated: 1
EndChar

StartChar: a
Encoding: 97 97 66
Width: 422
Flags: HW
HStem: -8 103.928<182.79 301.631> 558 124<169.56 311.242>
VStem: 23.4893 130.47<128.033 545.569> 326.063 131.48<119.972 543.331>
LayerCount: 2
Fore
SplineSet
134 234 m 1
 127 99 l 1
 19 100 l 1
 20 235 l 1
 134 234 l 1
121 108 m 1
 289 107 l 1
 289 -8 l 1
 121 -7 l 1
 121 108 l 1
278 406 m 1
 393 404 l 1
 394 92 l 1
 276 94 l 1
 278 406 l 1
125 328 m 1
 167.3515625 326.608398438 248.294921875 331.6171875 286 331 c 1
 287 222 l 5
 127 220 l 5
 125 328 l 1
64 513 m 1
 101.484375 516.548828125 244.856445312 520.431640625 285 516 c 1
 285 398 l 1
 243.66699018 398.029427001 131.999996544 408.279183066 64 397 c 1
 64 513 l 1
EndSplineSet
Substitution2: "'sups' +BBIENQRABEUEPQQ4BDkA +BDgEPQQ0BDUEOgRB lookup 12 subtable" a.superior
Substitution2: "'ordn' Ordinals lookup 11 subtable" a.superior
AlternateSubs2: "'aalt' +BBIEQQQ1 +BDAEOwRMBEIENQRABD0EMARCBDgEMgQ9BEsENQAA +BDIEMARABDgEMAQ9BEIESwAA lookup 1 subtable" ordfeminine a.superior
EndChar

StartChar: b
Encoding: 98 98 67
Width: 447
Flags: HW
HStem: -8 97<186.956 271.713> 387 110<184.348 327.5> 387 83<184.119 226.531> 672 20G<45 176>
VStem: 45 131<97.4846 381.463 470 692> 288 130<101.706 376.934>
LayerCount: 2
Fore
SplineSet
166 389 m 5
 320 387 l 5
 320 495 l 5
 167 496 l 5
 166 389 l 5
51 111 m 5
 180 109 l 5
 178 694 l 5
 52 691 l 5
 51 111 l 5
305 105 m 5
 347.3515625 106.391601562 381.294921875 106.3828125 419 107 c 5
 420 400 l 5
 307 397 l 5
 305 105 l 5
159 1 m 5
 196.484375 -2.548828125 270.856445312 -3.431640625 311 1 c 5
 311 119 l 5
 273.0234375 115.120117188 202.221679688 121.245117188 159 117 c 5
 159 1 l 5
EndSplineSet
EndChar

StartChar: c
Encoding: 99 99 68
Width: 380
Flags: W
HStem: -2 21G<131 249> 101 105<249 350> 102 11<246 249> 110 4<131 142> 311 105<249 350> 399 13<243 249>
VStem: 131 11<399 412> 243 108<113 206 312 398> 243 6<102 113 398 417> 246 3<102 113 398 417>
LayerCount: 2
Fore
SplineSet
246 102 m 5xa240
 243 207 l 5xa280
 351 206 l 5
 350 101 l 5xc3
 246 102 l 5xa240
249 -2 m 5xa240
 131 -1 l 5
 131 114 l 5x9240
 249 113 l 5xa280
 249 -2 l 5xa240
246 312 m 5
 243 417 l 5x8a80
 351 416 l 5
 350 311 l 5x8b
 246 312 l 5
249 398 m 5
 131 399 l 5
 131 514 l 5
 249 513 l 5x8640
 249 398 l 5
142 110 m 5x96
 27 112 l 5
 26 414 l 5
 144 412 l 5
 142 110 l 5x96
EndSplineSet
EndChar

StartChar: d
Encoding: 100 100 69
Width: 447
Flags: HW
HStem: -8 97<173.747 261.984> 387 110<174.158 261.115>
VStem: 29 130<102.149 372.493> 270 131<94.1884 383.368 468 712>
LayerCount: 2
Fore
SplineSet
282 386 m 5
 128 384 l 5
 128 492 l 5
 281 493 l 5
 282 386 l 5
397 108 m 5
 268 106 l 5
 270 691 l 5
 396 688 l 5
 397 108 l 5
143 102 m 5
 100.6484375 103.391601562 66.705078125 103.3828125 29 104 c 5
 28 397 l 5
 141 394 l 5
 143 102 l 5
289 -2 m 5
 251.515625 -5.548828125 177.143554688 -6.431640625 137 -2 c 5
 137 116 l 5
 174.9765625 112.120117188 245.778320312 118.245117188 289 114 c 5
 289 -2 l 5
EndSplineSet
EndChar

StartChar: e
Encoding: 101 101 70
Width: 419
Flags: HW
HStem: -6 90<175.128 343.183> 188 92<156 244.2> 392 105<169.032 278.232>
VStem: 29 126<105.424 188 280 383.795>
LayerCount: 2
Fore
SplineSet
286 282 m 5
 293 417 l 5
 401 416 l 5
 400 281 l 5
 286 282 l 5
299 398 m 5
 131 399 l 5
 131 514 l 5
 299 513 l 5
 299 398 l 5
142 110 m 5
 27 112 l 5
 26 424 l 5
 144 422 l 5
 142 110 l 5
295 186 m 5
 252.6484375 187.391601562 171.705078125 188.3828125 134 189 c 5
 133 294 l 5
 293 296 l 5
 295 186 l 5
356 -1 m 5
 318.515625 -4.548828125 175.143554688 -4.431640625 135 0 c 5
 135 118 l 5
 176.333007812 117.970703125 284 113 356 115 c 5
 356 -1 l 5
EndSplineSet
EndChar

StartChar: f
Encoding: 102 102 71
Width: 286
Flags: HW
HStem: 371.071 110.782<3.12012 68.9014 200.086 280.306> 378.468 98.125<200.086 284.861> 583 117<207.576 300>
VStem: 69.1084 130.978<-10 372.334 480.622 577.594>
LayerCount: 2
Fore
SplineSet
152 489 m 1
 258 492 l 1
 258 384 l 1
 153 382 l 1
 152 489 l 1
141 695 m 5
 255 700 l 1
 255 592 l 1
 142 588 l 5
 141 695 l 5
40 600 m 1
 155 598 l 1
 156 -8 l 1
 116.666992188 -8.798828125 77.3330078125 -6.80859375 38 -6 c 1
 40 600 l 1
EndSplineSet
EndChar

StartChar: g
Encoding: 103 103 72
Width: 447
Flags: HW
HStem: -200 93<94.3617 257.726> 3 103<168.686 267.101> 377 120<169.792 267.627> 469 20G<288.172 407>
VStem: 29 130<111 366.508> 272 130<-94.9531 32 108.113 374.715>
LayerCount: 2
Fore
SplineSet
292 -93 m 1
 138 -91 l 1
 138 -199 l 1
 291 -200 l 1
 292 -93 l 1
292 108 m 1
 138 110 l 1
 138 2 l 1
 291 1 l 1
 292 108 l 1
407 386 m 1
 278 388 l 1
 280 -105 l 5
 406 -102 l 5
 407 386 l 1
153 392 m 1
 110.6484375 390.608398438 76.705078125 390.6171875 39 390 c 1
 38 97 l 1
 151 100 l 1
 153 392 l 1
299 496 m 1
 261.515625 499.548828125 187.143554688 500.431640625 147 496 c 1
 147 378 l 1
 299 380 l 1
 299 496 l 1
EndSplineSet
EndChar

StartChar: h
Encoding: 104 104 73
Width: 458
Flags: HW
HStem: -1.78711 21G<51.2894 182.577> 682.113 20G<40.9795 172.267>
VStem: 40.9795 134.825<237.138 381.314 448.143 700.133> 51.5918 130.985<0.193359 383.925 448.143 461.207> 277.481 130.985<11.1914 381.977>
LayerCount: 2
Fore
SplineSet
158 389 m 5
 312 387 l 5
 312 495 l 5
 159 496 l 5
 158 389 l 5
43 2 m 5
 172 0 l 5
 170 694 l 5
 44 691 l 5
 43 2 l 5
297 -2 m 5
 339.3515625 -0.6083984375 373.294921875 -0.6171875 411 0 c 5
 412 400 l 5
 299 397 l 5
 297 -2 l 5
EndSplineSet
EndChar

StartChar: i
Encoding: 105 105 74
Width: 223
Flags: HW
HStem: 469 20G<46 177> 568 132<35 168>
VStem: 35 133<568 700> 46 131<10 489>
LayerCount: 2
Fore
SplineSet
55 700 m 1xe0
 174 700 l 1
 168 578 l 5
 55 578 l 5
 55 700 l 1xe0
177 10 m 1xd0
 46 10 l 1
 46 489 l 1
 177 489 l 1
 177 10 l 1xd0
EndSplineSet
Substitution2: "'locl' Localized Forms in Latin lookup 2 subtable" i.dot
Substitution2: "'aalt' +BBIEQQQ1 +BDAEOwRMBEIENQRABD0EMARCBDgEMgQ9BEsENQAA +BDIEMARABDgEMAQ9BEIESwAA lookup 0 subtable" i.dot
EndChar

StartChar: j
Encoding: 106 106 75
Width: 224
Flags: HW
HStem: -200 21G<12.2281 100.5> 469 20G<37 169.461>
VStem: 37 132<188.7 489> 47 132<-58.5902 358.8>
LayerCount: 2
Fore
SplineSet
-39 -91 m 1
 67 -87 l 1
 67 -195 l 1
 -38 -198 l 1
 -39 -91 l 1
53 488 m 1
 168 486 l 1
 169 -100 l 1
 129.666992188 -100.798828125 90.3330078125 -98.80859375 51 -98 c 1
 53 488 l 1
47 720 m 1xd0
 178 710 l 1
 168 579 l 5
 37 589 l 5xe0
 47 720 l 1xd0
EndSplineSet
EndChar

StartChar: k
Encoding: 107 107 76
Width: 413
Flags: HW
HStem: 0 21G<45 176> 479 20G<276.357 333.442> 672 20G<45 176>
VStem: 45 131<0 249 275 692>
LayerCount: 2
Fore
SplineSet
170 318 m 1
 288 319 l 1
 288 204 l 1
 170 203 l 1
 170 318 l 1
280 501 m 1
 398 502 l 1
 388 317 l 1
 270 316 l 1
 280 501 l 1
281 215 m 1
 399 216 l 1
 409 1 l 1
 291 0 l 1
 281 215 l 1
48 0 m 1
 48 654 l 1
 179 654 l 1
 179 0 l 1
 48 0 l 1
EndSplineSet
EndChar

StartChar: l
Encoding: 108 108 77
Width: 225
Flags: HW
VStem: 39.2275 130.977<-8.86523 266.55> 54.5762 132.867<412.043 595.026>
LayerCount: 2
Fore
SplineSet
-39 713 m 1
 70 710 l 1
 70 602 l 1
 -38 606 l 1
 -39 713 l 1
53 608 m 1
 168 606 l 1
 169 -10 l 1
 129.666992188 -10.798828125 90.3330078125 -8.80859375 51 -8 c 1
 53 608 l 1
EndSplineSet
EndChar

StartChar: m
Encoding: 109 109 78
Width: 669
Flags: HW
HStem: -10 31G<55.3377 186 275 405 494 624.633> 379 118<419.175 503.414> 389 108<187.627 271.824>
VStem: 46 130<98 385.252> 56 130<8 211.4> 275 130<-10 368.201> 494 130<0 194.6> 504 130<88.8 373.719>
LayerCount: 2
Fore
SplineSet
384 389 m 1
 519 387 l 1
 519 495 l 1
 385 496 l 1
 384 389 l 1
507 -2 m 1
 549.3515625 -0.6083984375 583.294921875 -0.6171875 621 0 c 1
 622 400 l 1
 509 397 l 1
 507 -2 l 1
158 389 m 1
 292 387 l 1
 292 495 l 1
 159 496 l 1
 158 389 l 1
43 2 m 1
 172 0 l 1
 170 401 l 1
 44 398 l 1
 43 2 l 1
277 -2 m 1
 319.3515625 -0.6083984375 353.294921875 -0.6171875 391 0 c 1
 392 400 l 1
 279 397 l 1
 277 -2 l 1
EndSplineSet
EndChar

StartChar: n
Encoding: 110 110 79
Width: 458
Flags: HW
HStem: 0 21G<46 177> 377 120<195.298 279.252>
VStem: 46 131<0 370.563> 281 131<10 373.689>
LayerCount: 2
Fore
SplineSet
158 389 m 5
 312 387 l 5
 312 495 l 5
 159 496 l 5
 158 389 l 5
43 2 m 5
 172 0 l 5
 170 401 l 5
 44 398 l 5
 43 2 l 5
297 -2 m 5
 339.3515625 -0.6083984375 373.294921875 -0.6171875 411 0 c 5
 412 400 l 5
 299 397 l 5
 297 -2 l 5
EndSplineSet
EndChar

StartChar: o
Encoding: 111 111 80
Width: 431
Flags: HW
HStem: -8 90<173.31 257.792> 388 109<170.384 261.134>
VStem: 29 130<92.7728 380.724> 272 131<90.2159 380.783>
LayerCount: 2
Fore
SplineSet
142 103 m 1
 294 104 l 5
 294 -11 l 5
 142 -12 l 1
 142 103 l 1
287 391 m 1
 402 389 l 1
 403 84 l 1
 285 86 l 1
 287 391 l 1
23 398 m 1
 152 400 l 1
 150 86 l 1
 24 89 l 1
 23 398 l 1
146 491 m 1
 183.484375 494.548828125 255.856445312 498.431640625 296 494 c 1
 296 376 l 1
 254.666992188 371.801757812 187.333007812 366.209960938 146 375 c 1
 146 491 l 1
EndSplineSet
Substitution2: "'sups' +BBIENQRABEUEPQQ4BDkA +BDgEPQQ0BDUEOgRB lookup 12 subtable" o.superior
Substitution2: "'ordn' Ordinals lookup 11 subtable" o.superior
AlternateSubs2: "'aalt' +BBIEQQQ1 +BDAEOwRMBEIENQRABD0EMARCBDgEMgQ9BEsENQAA +BDIEMARABDgEMAQ9BEIESwAA lookup 1 subtable" ordmasculine o.superior
EndChar

StartChar: p
Encoding: 112 112 81
Width: 447
Flags: HW
HStem: -194.125 21G<51.7731 183.103> 20.1348 68.8652<186.55 209.627> 377 121.506<181.182 280.813>
VStem: 42.9199 114.899<452.823 506.709> 52.123 130.979<-191.833 20.1348 92.075 205.896> 287.084 128.297<102.286 366.989>
LayerCount: 2
Fore
SplineSet
166 105 m 5
 320 107 l 5
 320 -1 l 5
 167 -2 l 5
 166 105 l 5
51 383 m 5
 180 385 l 5
 178 -200 l 5
 52 -197 l 5
 51 383 l 5
305 389 m 5
 347.3515625 387.608398438 381.294921875 387.6171875 419 387 c 5
 420 94 l 5
 307 97 l 5
 305 389 l 5
159 493 m 5
 196.484375 496.548828125 270.856445312 497.431640625 311 493 c 5
 311 375 l 5
 273.0234375 378.879882812 202.221611525 372.755085984 159 377 c 5
 159 493 l 5
EndSplineSet
EndChar

StartChar: q
Encoding: 113 113 82
Width: 447
Flags: HW
HStem: -202 21G<271 402> -8 97<108.515 252.154> 32 57<248.279 263.896> 387 110<174.901 263.302>
VStem: 29 131<102.051 372.953> 271 131<-202 32 95.0826 381.32>
LayerCount: 2
Fore
SplineSet
292 108 m 5
 138 110 l 5
 138 2 l 5
 291 1 l 5
 292 108 l 5
407 386 m 5
 278 388 l 5
 280 -197 l 5
 406 -194 l 5
 407 386 l 5
153 392 m 5
 110.6484375 390.608398438 76.705078125 390.6171875 39 390 c 5
 38 97 l 5
 151 100 l 5
 153 392 l 5
299 496 m 5
 261.515625 499.548828125 187.143554688 500.431640625 147 496 c 5
 147 378 l 5
 299 380 l 5
 299 496 l 5
EndSplineSet
EndChar

StartChar: r
Encoding: 114 114 83
Width: 294
Flags: HW
HStem: -7 21G<44.4269 177> 365 130<172.453 285.367>
VStem: 35 132<97.7 363.578> 45 132<0 173.6>
LayerCount: 2
Fore
SplineSet
138 496 m 1
 291 495 l 1
 291 387 l 1
 139 389 l 1
 138 496 l 1
39 404 m 1
 154 402 l 1
 156 -10 l 1
 116.666992188 -10.798828125 77.3330078125 -8.80859375 38 -8 c 1
 39 404 l 1
EndSplineSet
EndChar

StartChar: s
Encoding: 115 115 84
Width: 380
Flags: HW
HStem: -6 92<47.9617 190.437> 389 108<141.616 275.999>
VStem: 17 120<309.338 384.507> 193 110<89.7266 160.323>
LayerCount: 2
Fore
SplineSet
139 309 m 1
 244 311 l 1
 244 203 l 1
 140 202 l 1
 139 309 l 1
242 102 m 1xa240
 239 209 l 1xa280
 351 208 l 1
 350 101 l 1xc3
 242 102 l 1xa240
249 -2 m 1xa240
 51 -1 l 1
 51 114 l 1x9240
 249 113 l 1xa280
 249 -2 l 1xa240
339 398 m 1
 131 399 l 1
 131 514 l 1
 339 513 l 1x8640
 339 398 l 1
146 300 m 1x96
 27 302 l 1
 26 414 l 1
 148 412 l 1
 146 300 l 1x96
EndSplineSet
EndChar

StartChar: t
Encoding: 116 116 85
Width: 277
Flags: HW
HStem: -37 122<172.808 241> 396 105.354<166 261.669> 396 97.6689<-23 34.8574>
VStem: 35 131<93.9394 396 501.354 640>
LayerCount: 2
Fore
SplineSet
152 494 m 5
 258 492 l 5
 258 384 l 5
 153 387 l 5
 152 494 l 5
135 67 m 5
 241 65 l 5
 241 -43 l 5
 136 -40 l 5
 135 67 l 5
40 640 m 5
 155 638 l 5
 156 52 l 5
 116.666992188 51.201171875 77.3330078125 53.19140625 38 54 c 5
 40 640 l 5
EndSplineSet
EndChar

StartChar: u
Encoding: 117 117 86
Width: 452
Flags: W
HStem: -18 100<113.5 265.079> 0 21G<290.625 408> 469 20G<42 174>
VStem: 42 132<90.676 489> 273 131<85.0836 479>
LayerCount: 2
Fore
SplineSet
404 479 m 5xb8
 404 179 l 2
 404 127 406 56 408 10 c 1
 295 0 l 1x78
 288 32 l 1
 286 32 l 1
 262 -16 223 -18 173 -18 c 0
 54 -18 42 0 42 183 c 2
 42 489 l 1
 174 489 l 1
 174 187 l 2
 174 88 186 82 223 82 c 0
 258.946289062 82 273 84 273 157 c 2
 273 479 l 5
 404 479 l 5xb8
EndSplineSet
Validated: 1
EndChar

StartChar: v
Encoding: 118 118 87
Width: 395
Flags: W
HStem: 0 21G<132.56 264.47> 469 20G<257.696 390>
LayerCount: 2
Fore
SplineSet
5 489 m 1
 136 509 l 1
 202 144 l 5
 204 144 l 5
 261 489 l 1
 390 479 l 1
 259 0 l 1
 138 0 l 1
 5 489 l 1
EndSplineSet
Validated: 1
EndChar

StartChar: w
Encoding: 119 119 88
Width: 647
Flags: HW
HStem: -9 30G<120.082 237 371 487.153> 469 20G<5 148.43 478.858 608>
LayerCount: 2
Fore
SplineSet
379 -1 m 5
 514 -3 l 5
 514 105 l 5
 380 106 l 5
 379 -1 l 5
502 88 m 1
 544.3515625 89.3916015625 578.294921875 89.3828125 616 90 c 1
 617 490 l 1
 504 487 l 1
 502 88 l 1
153 -1 m 5
 287 -3 l 5
 287 105 l 5
 154 106 l 5
 153 -1 l 5
38 92 m 1
 167 90 l 1
 165 491 l 1
 39 488 l 1
 38 92 l 1
272 88 m 1
 314.3515625 89.3916015625 348.294921875 89.3828125 386 90 c 1
 387 490 l 1
 274 487 l 1
 272 88 l 1
EndSplineSet
EndChar

StartChar: x
Encoding: 120 120 89
Width: 396
Flags: W
HStem: 0 21G<16 145.627> 469 20G<249.903 379>
LayerCount: 2
Fore
SplineSet
7 489 m 1
 143 509 l 1
 200 334 l 1
 202 334 l 1
 257 489 l 1
 379 469 l 1
 278 259 l 1
 391 0 l 1
 255 -20 l 1
 205 153 l 5
 203 153 l 5
 137 0 l 1
 16 20 l 1
 125 233 l 1
 7 489 l 1
EndSplineSet
Validated: 1
EndChar

StartChar: y
Encoding: 121 121 90
Width: 391
Flags: W
HStem: 469 20G<15 149.742>
LayerCount: 2
Fore
SplineSet
15 469 m 1
 146 489 l 1
 207 163 l 5
 209 163 l 5
 272 509 l 1
 390 489 l 1
 290 112 l 2
 217.780370607 -160.268002813 220 -167 70 -215 c 1
 30 -102 l 5
 122 -71 144 -68 143 18 c 4
 142.930237274 23.9995944165 141 30 139 36 c 2
 15 469 l 1
EndSplineSet
Validated: 33
EndChar

StartChar: z
Encoding: 122 122 91
Width: 351
Flags: W
HStem: 0 107<163 311> 392 107<23.6511 192.083>
VStem: 21 306
LayerCount: 2
Fore
SplineSet
38 0 m 1
 28 82 l 1
 194 379 l 1
 194 382 l 1
 194 382 110 395 21 392 c 1
 16 425 19 474 25 499 c 1
 174 512 327 479 327 479 c 1
 327 380 l 1
 163 110 l 1
 163 107 l 1
 321 107 l 1
 311 0 l 5
 38 0 l 1
EndSplineSet
Validated: 33
EndChar

StartChar: braceleft
Encoding: 123 123 92
Width: 258
Flags: W
HStem: 218 89<16 65.7061> 600 83<160.569 229.37>
VStem: 10 225
LayerCount: 2
Fore
SplineSet
16 218 m 1
 10 307 l 1
 64 307 76 336 76 363 c 0
 76 417.862304688 70.1788555104 485.214147808 64 540 c 0
 49 673 118.612716763 668.01734104 216 683 c 2
 229 685 l 1
 235 602 l 1
 220 600 l 2
 134.565435656 588.608724754 149.900394767 585.987715068 174 391 c 0
 185 302 182 302 108 270 c 1
 108 268 l 1
 186 258 184 241 174 144 c 0
 159.153004555 -0.0158558154598 143.529411765 -15.8823529412 212 -33 c 6
 228 -37 l 5
 223 -114 l 5
 204 -112 l 6
 115.506849315 -102.684931507 72 -98 78 31 c 0
 81.7215551879 111.01343654 86 118.217773438 86 172 c 0
 86 196 70 218 16 218 c 1
EndSplineSet
Validated: 33
Substitution2: "'case' +BCAENQQzBDgEQQRCBEAEPgQ3BDAEMgQ4BEEEOAQ8BEsENQAA +BEQEPgRABDwESwAA lookup 4 subtable" braceleft.cap
Substitution2: "'aalt' +BBIEQQQ1 +BDAEOwRMBEIENQRABD0EMARCBDgEMgQ9BEsENQAA +BDIEMARABDgEMAQ9BEIESwAA lookup 0 subtable" braceleft.cap
EndChar

StartChar: bar
Encoding: 124 124 93
Width: 218
Flags: W
VStem: 61 97<-240 750>
LayerCount: 2
Fore
SplineSet
55 750 m 1
 162 760 l 5
 158 -240 l 5
 61 -250 l 1
 55 750 l 1
EndSplineSet
Validated: 1
EndChar

StartChar: braceright
Encoding: 125 125 94
Width: 258
Flags: W
HStem: -113 72<27 84.9556> 228 89<187.472 248>
VStem: 84 98<-35.8133 222.283 324.439 564.948>
LayerCount: 2
Fore
SplineSet
248 317 m 1
 248 228 l 1
 194 228 182 216 182 192 c 0
 182 138.2578125 190.643681405 66.1206373517 194 12 c 0
 202 -117 170.341628959 -106.174208145 48 -112 c 6
 27 -113 l 5
 23 -41 l 1
 36 -41 l 1
 82 -37 96 -29 92 19 c 0
 88.5416910182 60.4997077821 84 123.6171875 84 164 c 0
 84 232 110 262 160 278 c 1
 160 280 l 1
 110 296 84 327 84 391 c 0
 84 432.88671875 92 501.934570312 92 546 c 0
 92 584 76 591 38 595 c 1
 23 595 l 1
 31 706 l 1
 49 705 l 2
 192.224615385 697.043076923 202 690 194 550 c 0
 190.854907446 494.960880302 182 417.858398438 182 363 c 0
 182 336 194 317 248 317 c 1
EndSplineSet
Validated: 33
Substitution2: "'case' +BCAENQQzBDgEQQRCBEAEPgQ3BDAEMgQ4BEEEOAQ8BEsENQAA +BEQEPgRABDwESwAA lookup 4 subtable" braceright.cap
Substitution2: "'aalt' +BBIEQQQ1 +BDAEOwRMBEIENQRABD0EMARCBDgEMgQ9BEsENQAA +BDIEMARABDgEMAQ9BEIESwAA lookup 0 subtable" braceright.cap
EndChar

StartChar: asciitilde
Encoding: 126 126 95
Width: 596
Flags: W
LayerCount: 2
Fore
SplineSet
141 201 m 5
 57 221 l 5
 128 442 154 398 325 320 c 0
 421.079648488 276.174195427 418 255 456 361 c 1
 539 341 l 1
 471 160 460.123667393 159.611703381 286 237 c 4
 187 281 182 300 141 201 c 5
EndSplineSet
Validated: 33
EndChar

StartChar: exclamdown
Encoding: 161 161 96
Width: 236
Flags: W
HStem: 241 20G<61.3658 174.677> 333 161<47 175>
VStem: 47 143<-212 -5.0625> 47 128<333 426.917> 62 112<54.0625 261>
LayerCount: 2
Fore
SplineSet
190 -212 m 1xe0
 47 -212 l 1xe0
 62 261 l 1
 174 261 l 1xc8
 190 -212 l 1xe0
184 495 m 0
 175 333 l 0
 47 333 l 4xd0
 35 494 l 0
 184 495 l 0
EndSplineSet
Validated: 1
Substitution2: "'case' +BCAENQQzBDgEQQRCBEAEPgQ3BDAEMgQ4BEEEOAQ8BEsENQAA +BEQEPgRABDwESwAA lookup 4 subtable" exclamdown.cap
Substitution2: "'aalt' +BBIEQQQ1 +BDAEOwRMBEIENQRABD0EMARCBDgEMgQ9BEsENQAA +BDIEMARABDgEMAQ9BEIESwAA lookup 0 subtable" exclamdown.cap
EndChar

StartChar: cent
Encoding: 162 162 97
Width: 426
Flags: W
HStem: -7 21G<202 296> 461 101<298 360.77>
VStem: 55 130<203.273 439.646> 202 94<-7 90 562 656>
LayerCount: 2
Fore
SplineSet
296 -7 m 1
 202 -7 l 1
 202 93 l 1
 105.43752004 104.141824611 55 135 55 324 c 0
 55 526 108 543 204 555 c 1
 204 656 l 1
 298 656 l 1
 298 562 l 1
 332 561 361 554 378 545 c 1
 362 445 l 1
 336 458 294 461 267 461 c 0
 209 461 185 446 185 322 c 0
 185 206 191 188 273 188 c 0
 290 188 326 191 352 198 c 5
 362 100 l 5
 343 94 321 91 296 90 c 5
 296 -7 l 1
EndSplineSet
Validated: 1
Substitution2: "'onum' Oldstyle Figures lookup 14 subtable" cent.taboldstyle
Substitution2: "'subs' +BB0EOAQ2BD0EOAQ5 +BDgEPQQ0BDUEOgRB lookup 13 subtable" cent.inferior
Substitution2: "'sups' +BBIENQRABEUEPQQ4BDkA +BDgEPQQ0BDUEOgRB lookup 12 subtable" cent.superior
Substitution2: "'dnom' Denominators lookup 6 subtable" cent.denominator
Substitution2: "'numr' Numerators lookup 5 subtable" cent.numerator
AlternateSubs2: "'aalt' +BBIEQQQ1 +BDAEOwRMBEIENQRABD0EMARCBDgEMgQ9BEsENQAA +BDIEMARABDgEMAQ9BEIESwAA lookup 1 subtable" cent.numerator cent.denominator cent.superior cent.inferior cent.taboldstyle
EndChar

StartChar: sterling
Encoding: 163 163 98
Width: 426
Flags: W
HStem: -10 110<244.7 377> 0 110<185 275.9> 0 82<40 70.3663> 275 87<48 108> 287 87<244 336> 548 110<213.011 346.585>
VStem: 108 124<371 435.873> 122 122<161.909 278>
LayerCount: 2
Fore
SplineSet
377 -10 m 1x85
 40 0 l 5
 36 82 l 1
 110.867627162 111.947050865 137.587890625 194.864257812 122 278 c 1x25
 48 275 l 1
 43 362 l 1
 108 365 l 1
 62 568 43 658 282 658 c 0
 304 658 337 656 365 651 c 1
 345 543 l 1
 331 546 314 548 289 548 c 0
 141 548 219.262695312 441.0546875 232 371 c 1x36
 336 374 l 1
 340 287 l 1
 244 284 l 1
 248.704101562 208.73828125 228.86165097 152.487677818 185 112 c 1
 185 110 l 1x4d
 384 100 l 1
 377 -10 l 1x85
EndSplineSet
Validated: 33
Substitution2: "'onum' Oldstyle Figures lookup 14 subtable" sterling.taboldstyle
Substitution2: "'aalt' +BBIEQQQ1 +BDAEOwRMBEIENQRABD0EMARCBDgEMgQ9BEsENQAA +BDIEMARABDgEMAQ9BEIESwAA lookup 0 subtable" sterling.taboldstyle
EndChar

StartChar: fraction
Encoding: 8260 8260 99
Width: 117
Flags: W
HStem: 678 20G<179.546 228>
LayerCount: 2
Fore
SplineSet
-81 -18 m 1
 -140 2 l 1
 189 698 l 5
 267 658 l 1
 -81 -18 l 1
EndSplineSet
Validated: 1
EndChar

StartChar: yen
Encoding: 165 165 100
Width: 426
Flags: W
HStem: -5 21G<152.1 272> 281 77<22 124 300 403> 640 20G<303.763 421>
VStem: 152 120<0 138.38 215.228 281>
LayerCount: 2
Fore
SplineSet
272 0 m 1
 152 -5 l 5
 152.719726562 138.379882812 l 1
 25.1796875 127.454101562 l 1
 19.5498046875 194.217773438 l 1
 152.08984375 205.142578125 l 1
 152 281 l 1
 22 281 l 1
 22 358 l 1
 124 358 l 1
 6 650 l 1
 125 670 l 1
 221 381 l 1
 223 381 l 1
 310 660 l 1
 421 640 l 1
 300 358 l 1
 403 358 l 1
 403 281 l 1
 272 281 l 1
 271.665039062 215.227539062 l 1
 399.201171875 226.236328125 l 1
 404.83203125 159.473632812 l 1
 272.295898438 148.463867188 l 1
 272 0 l 1
EndSplineSet
Validated: 1
Substitution2: "'onum' Oldstyle Figures lookup 14 subtable" yen.taboldstyle
Substitution2: "'aalt' +BBIEQQQ1 +BDAEOwRMBEIENQRABD0EMARCBDgEMgQ9BEsENQAA +BDIEMARABDgEMAQ9BEIESwAA lookup 0 subtable" yen.taboldstyle
EndChar

StartChar: florin
Encoding: 402 402 101
Width: 426
Flags: W
HStem: -64 84<23 95.843> 289 113<85 140 272 352>
LayerCount: 2
Fore
SplineSet
85 289 m 1
 76 402 l 1
 148 402 l 1
 152 448 l 2
 170.08630394 655.99249531 235 718 407 656 c 1
 390 539 l 1
 320.291363953 562.236212016 289.25633319 567.660798626 277 450 c 2
 272 402 l 1
 363 402 l 1
 352 289 l 5
 264 289 l 1
 247 107 l 2
 229.904857391 -76.0185855805 149 -119 5 -64 c 1
 23 20 l 1
 87 8 112.386232133 -0.132392956557 123 111 c 2
 140 289 l 1
 85 289 l 1
EndSplineSet
Validated: 33
Substitution2: "'onum' Oldstyle Figures lookup 14 subtable" florin.taboldstyle
Substitution2: "'aalt' +BBIEQQQ1 +BDAEOwRMBEIENQRABD0EMARCBDgEMgQ9BEsENQAA +BDIEMARABDgEMAQ9BEIESwAA lookup 0 subtable" florin.taboldstyle
EndChar

StartChar: section
Encoding: 167 167 102
Width: 431
Flags: W
HStem: 575 92<253.037 336>
VStem: 33 107<301.406 384.902> 266 107<26.0774 130.322> 306 92<240.957 333.885>
LayerCount: 2
Fore
SplineSet
140 333 m 0xd0
 139 298 198 280 281 234 c 1
 293 243 306 277 306 298 c 0
 306 340 241 357 172 396 c 1
 156 386 140.627929688 354.991210938 140 333 c 0xd0
356 667 m 5
 336 575 l 1
 216 605 177 619.3822168 177 551 c 0
 177 515 188 513 252 481 c 0
 392.82045306 410.58977347 398 381 398 316 c 0xd0
 398 265 360 210 341 189 c 1
 354 177 374.413258494 145.975025959 373 106 c 0
 366 -92 270 -110 79 -25 c 1
 102 50 l 1
 224 0 266 -1.752838228 266 88 c 0xe0
 266 120 252 133 173 169 c 0
 37.2646893197 230.854065626 33 248 33 329 c 0
 33 375 88 432 102 449 c 1
 84 469 66.5122687322 498.076391802 69 532 c 4
 80 682 98 731 356 667 c 5
EndSplineSet
Validated: 33
EndChar

StartChar: currency
Encoding: 164 164 103
Width: 426
Flags: W
HStem: 116 81<167.827 253.876> 435 101<168.302 253.889>
VStem: 45 111<207.954 425.665> 264 112<209.686 428.319>
LayerCount: 2
Fore
SplineSet
214 536 m 0
 266 536 289 522 313 500 c 1
 378 575 l 1
 432 519 l 1
 354 443 l 1
 369 409 376 394 376 328 c 0
 376 259 368 244 353 213 c 1
 431 132 l 1
 377 77 l 1
 310 154 l 1
 282 129 247 116 210 116 c 0
 155 116 138 129 112 152 c 1
 50 77 l 1
 -4 132 l 1
 69 207 l 1
 53 239 45 258 45 322 c 0
 45 391 55 410 72 443 c 1
 4 503 l 1
 60 561 l 1
 114 497 l 1
 142 523 162 536 214 536 c 0
211 435 m 4
 170 435 156 415 156 324 c 4
 156 200 175 197 211 197 c 0
 253 197 264 206 264 326 c 4
 264 419 254 435 211 435 c 4
EndSplineSet
Validated: 1
EndChar

StartChar: quotesingle
Encoding: 39 39 104
Width: 170
Flags: W
HStem: 422 260<43 128>
VStem: 23 115<591 682>
LayerCount: 2
Fore
SplineSet
23 682 m 1
 138 682 l 1
 128 422 l 1
 43 422 l 1
 23 682 l 1
EndSplineSet
Validated: 1
EndChar

StartChar: quotedblleft
Encoding: 8220 8220 105
Width: 337
Flags: W
HStem: 411 274
LayerCount: 2
Fore
SplineSet
117 431 m 1
 4 441 l 1
 106 685 l 5
 184 672 l 1
 117 431 l 1
272 411 m 1
 159 421 l 1
 272 685 l 1
 339 672 l 1
 272 411 l 1
EndSplineSet
Validated: 1
EndChar

StartChar: guillemotleft
Encoding: 171 171 106
Width: 383
Flags: W
LayerCount: 2
Fore
SplineSet
196 447 m 1
 113 259 l 1
 211 77 l 1
 131 57 l 1
 16 252 l 1
 101 467 l 1
 196 447 l 1
366 427 m 1
 278 243 l 1
 351 87 l 5
 272 67 l 5
 186 252 l 1
 271 447 l 1
 366 427 l 1
EndSplineSet
Validated: 1
Substitution2: "'case' +BCAENQQzBDgEQQRCBEAEPgQ3BDAEMgQ4BEEEOAQ8BEsENQAA +BEQEPgRABDwESwAA lookup 4 subtable" guillemotleft.cap
Substitution2: "'aalt' +BBIEQQQ1 +BDAEOwRMBEIENQRABD0EMARCBDgEMgQ9BEsENQAA +BDIEMARABDgEMAQ9BEIESwAA lookup 0 subtable" guillemotleft.cap
EndChar

StartChar: guilsinglleft
Encoding: 8249 8249 107
Width: 221
Flags: W
VStem: 16 200
LayerCount: 2
Fore
SplineSet
216 437 m 1
 108 252 l 1
 216 87 l 5
 121 67 l 1
 16 252 l 1
 121 457 l 1
 216 437 l 1
EndSplineSet
Validated: 1
Substitution2: "'case' +BCAENQQzBDgEQQRCBEAEPgQ3BDAEMgQ4BEEEOAQ8BEsENQAA +BEQEPgRABDwESwAA lookup 4 subtable" guilsinglleft.cap
Substitution2: "'aalt' +BBIEQQQ1 +BDAEOwRMBEIENQRABD0EMARCBDgEMgQ9BEsENQAA +BDIEMARABDgEMAQ9BEIESwAA lookup 0 subtable" guilsinglleft.cap
EndChar

StartChar: guilsinglright
Encoding: 8250 8250 108
Width: 221
Flags: W
VStem: 5 200
LayerCount: 2
Fore
SplineSet
113 252 m 1
 5 417 l 5
 99 437 l 1
 205 252 l 1
 100 47 l 5
 5 67 l 1
 113 252 l 1
EndSplineSet
Validated: 1
Substitution2: "'case' +BCAENQQzBDgEQQRCBEAEPgQ3BDAEMgQ4BEEEOAQ8BEsENQAA +BEQEPgRABDwESwAA lookup 4 subtable" guilsinglright.cap
Substitution2: "'aalt' +BBIEQQQ1 +BDAEOwRMBEIENQRABD0EMARCBDgEMgQ9BEsENQAA +BDIEMARABDgEMAQ9BEIESwAA lookup 0 subtable" guilsinglright.cap
EndChar

StartChar: fi
Encoding: 64257 64257 109
Width: 489
Flags: W
HStem: 0 21G<69 200 316.241 449> 384 93<16 69> 391 93<200 302> 577 113<207.029 383>
VStem: 69 131<0 384 484 583.305> 302 132<263.133 395> 317 132<5 184.333>
LayerCount: 2
Fore
SplineSet
200 0 m 1xbc
 69 0 l 1
 69 384 l 1
 16 383 l 5
 13 475 l 1
 69 477 l 1xdc
 69 515 l 2
 69 720 102 737 402 690 c 1
 383 577 l 1
 210 600 200 600.372298336 200 527 c 2
 200 484 l 1
 434 489 l 1xbc
 449 5 l 1
 317 0 l 1xba
 302 395 l 1
 200 391 l 1
 200 0 l 1xbc
EndSplineSet
Validated: 33
EndChar

StartChar: fl
Encoding: 64258 64258 110
Width: 489
Flags: W
HStem: 386 103<3 69 200 271> 587 113<204.077 310.47>
VStem: 69 131<-20 386 489 582.515> 312 132<20 586.572>
LayerCount: 2
Fore
SplineSet
200 -20 m 1
 69 -20 l 1
 69 386 l 1
 3 386 l 1
 3 489 l 1
 69 489 l 1
 69 578 l 2
 69 675.44921875 84 700 248 700 c 4
 309 700 389 694 444 684 c 5
 444 20 l 1
 312 20 l 1
 312 585 l 5
 302 586 289 587 270 587 c 0
 219 587 200 587 200 544 c 2
 200 489 l 1
 271 489 l 1
 271 386 l 1
 200 386 l 1
 200 -20 l 1
EndSplineSet
Validated: 1
EndChar

StartChar: endash
Encoding: 8211 8211 111
Width: 500
Flags: W
HStem: 205 100<40 334> 215 90<166 460>
LayerCount: 2
Fore
SplineSet
30 305 m 1x40
 470 305 l 1
 460 215 l 5x40
 40 205 l 1x80
 30 305 l 1x40
EndSplineSet
Validated: 1
Substitution2: "'case' +BCAENQQzBDgEQQRCBEAEPgQ3BDAEMgQ4BEEEOAQ8BEsENQAA +BEQEPgRABDwESwAA lookup 4 subtable" endash.cap
Substitution2: "'aalt' +BBIEQQQ1 +BDAEOwRMBEIENQRABD0EMARCBDgEMgQ9BEsENQAA +BDIEMARABDgEMAQ9BEIESwAA lookup 0 subtable" endash.cap
EndChar

StartChar: dagger
Encoding: 8224 8224 112
Width: 425
Flags: W
HStem: 364 127<32 170 269 393> 654 20G<157 268.106>
VStem: 157 111<-51 175.692 572.231 674> 170 99<143.308 370 485 586.769>
LayerCount: 2
Fore
SplineSet
157 674 m 1xe0
 268 674 l 1xe0
 269 485 l 5
 393 491 l 1
 393 364 l 1
 269 370 l 5xd0
 268 -51 l 1
 157 -51 l 1xe0
 170 370 l 5
 32 364 l 1
 32 491 l 1
 170 485 l 5xd0
 157 674 l 1xe0
EndSplineSet
Validated: 1
EndChar

StartChar: daggerdbl
Encoding: 8225 8225 113
Width: 425
Flags: W
HStem: 127 107<22 159 259 383> 383 117<42 166 265 403> 654 20G<157 268>
VStem: 159 100<-9.33333 133> 166 99<228 389 494 554>
LayerCount: 2
Fore
SplineSet
157 674 m 1xe8
 268 674 l 1
 265 494 l 1
 403 500 l 1
 403 383 l 1
 265 389 l 1xe8
 259 228 l 1
 383 234 l 5
 383 127 l 5
 259 133 l 1
 268 -50 l 1
 157 -50 l 1
 159 133 l 1xf0
 22 127 l 5
 22 234 l 5
 160 228 l 1
 166 389 l 1
 42 383 l 1
 42 500 l 1
 166 494 l 1
 157 674 l 1xe8
EndSplineSet
Validated: 1
EndChar

StartChar: periodcentered
Encoding: 183 183 114
Width: 276
Flags: HW
HStem: 183 173<54.9286 182.94>
VStem: 41 152<196.93 345.068>
LayerCount: 2
Fore
SplineSet
199 277 m 1
 196 170 l 1
 88 171 l 1
 85 278 l 1
 199 277 l 1
244 324 m 1
 241 217 l 1
 133 218 l 1
 130 325 l 1
 244 324 l 1
199 386 m 1
 196 279 l 1
 88 280 l 1
 85 387 l 1
 199 386 l 1
145 324 m 1
 142 217 l 1
 34 218 l 1
 31 325 l 1
 145 324 l 1
EndSplineSet
Substitution2: "'case' +BCAENQQzBDgEQQRCBEAEPgQ3BDAEMgQ4BEEEOAQ8BEsENQAA +BEQEPgRABDwESwAA lookup 4 subtable" periodcentered.cap
Substitution2: "'aalt' +BBIEQQQ1 +BDAEOwRMBEIENQRABD0EMARCBDgEMgQ9BEsENQAA +BDIEMARABDgEMAQ9BEIESwAA lookup 0 subtable" periodcentered.cap
EndChar

StartChar: paragraph
Encoding: 182 182 115
Width: 431
Flags: W
HStem: 601 73<242 298.339>
VStem: 21 221<339.783 571.461> 180 72<-70 264> 290 72<-30 411.7> 300 72<177.4 601>
LayerCount: 2
Fore
SplineSet
252 -70 m 1xa0
 180 -70 l 1xa0
 177 264 l 5
 170 264 l 6
 85 264 21 315 21 452 c 0
 21 564 57 674 234 674 c 0
 289 674 341 671 372 666 c 1xc8
 362 -32 l 1
 290 -30 l 1x90
 300 601 l 1
 242 601 l 1xc8
 252 -70 l 1xa0
EndSplineSet
Validated: 1
EndChar

StartChar: bullet
Encoding: 8226 8226 116
Width: 287
Flags: W
HStem: 158 219<77.7622 208.538>
VStem: 38 211<199.082 350.509>
LayerCount: 2
Fore
SplineSet
143 158 m 0
 84 158 38 201 38 266 c 0
 38 334 50 377 144 377 c 4
 240 377 249 336 249 267 c 0
 249 201 205 158 143 158 c 0
EndSplineSet
Validated: 1
EndChar

StartChar: quotesinglbase
Encoding: 8218 8218 117
Width: 190
Flags: W
HStem: -110 271
VStem: 4 180
LayerCount: 2
Fore
SplineSet
71 -110 m 1
 4 -99 l 1
 71 161 l 5
 184 141 l 1
 71 -110 l 1
EndSplineSet
Validated: 1
EndChar

StartChar: quotedblbase
Encoding: 8222 8222 118
Width: 337
Flags: W
HStem: -110 271
LayerCount: 2
Fore
SplineSet
68 -100 m 5
 0 -79 l 5
 67 161 l 5
 180 141 l 5
 68 -100 l 5
223 -110 m 1
 155 -99 l 1
 222 151 l 1
 335 141 l 1
 223 -110 l 1
EndSplineSet
Validated: 1
EndChar

StartChar: quotedblright
Encoding: 8221 8221 119
Width: 337
Flags: W
HStem: 420 264
LayerCount: 2
Fore
SplineSet
67 684 m 1
 180 672 l 1
 68 430 l 5
 -10 451 l 5
 67 684 l 1
222 684 m 1
 335 672 l 1
 223 420 l 1
 155 431 l 1
 222 684 l 1
EndSplineSet
Validated: 1
EndChar

StartChar: guillemotright
Encoding: 187 187 120
Width: 383
Flags: W
LayerCount: 2
Fore
SplineSet
114 252 m 1
 16 417 l 1
 100 437 l 1
 206 252 l 1
 102 47 l 5
 16 67 l 5
 114 252 l 1
275 252 m 1
 187 447 l 1
 271 467 l 1
 367 252 l 1
 262 67 l 1
 177 87 l 1
 275 252 l 1
EndSplineSet
Validated: 1
Substitution2: "'case' +BCAENQQzBDgEQQRCBEAEPgQ3BDAEMgQ4BEEEOAQ8BEsENQAA +BEQEPgRABDwESwAA lookup 4 subtable" guillemotright.cap
Substitution2: "'aalt' +BBIEQQQ1 +BDAEOwRMBEIENQRABD0EMARCBDgEMgQ9BEsENQAA +BDIEMARABDgEMAQ9BEIESwAA lookup 0 subtable" guillemotright.cap
EndChar

StartChar: ellipsis
Encoding: 8230 8230 121
Width: 1000
Flags: W
HStem: -8 174<115.315 219.152 774.202 887.152> 12 174<451.355 553.202>
VStem: 90 153<17.0623 150.466> 424 153<25.5527 159.779> 758 153<15.625 150.958>
CounterMasks: 1 38
LayerCount: 2
Fore
SplineSet
166 -8 m 0xb8
 125 -8 90 26 90 79 c 0
 90 129 98 166 167 166 c 0
 238 166 243 133 243 79 c 0
 243 26 212 -8 166 -8 c 0xb8
500 12 m 4x78
 430 12 424 46 424 99 c 4
 424 149 460 186 501 186 c 4
 543 186 577 153 577 99 c 4
 577 46 576 12 500 12 c 4x78
834 -8 m 0xb8
 792 -8 758 0 758 79 c 0
 758 159 794 166 835 166 c 0
 877 166 911 164 911 79 c 0
 911 26 880 -8 834 -8 c 0xb8
EndSplineSet
Validated: 1
EndChar

StartChar: perthousand
Encoding: 8240 8240 122
Width: 958
Flags: W
HStem: -7 70<475.833 543.718> 5 70<775.05 846.658> 279 70<113.833 181.718> 295 79<474.986 545.505 777.568 845.747> 579 79<112.721 183.747> 658 20G<458.939 537>
VStem: 18 88<353.321 577.372> 190 88<352.123 575.329> 380 88<67.3212 291.372> 552 88<66.1228 289.329> 680 88<76.4959 289.027> 852 88<75.5403 291.329>
LayerCount: 2
Fore
SplineSet
812 374 m 4x53f0
 909 374 940 372 940 187 c 4
 940 13 914 5 811 5 c 0
 694 5 680 10 680 182 c 4
 680 373 727 374 812 374 c 4x53f0
811 295 m 4
 782 295 768 287 768 185 c 4
 768 65 780 75 811 75 c 0
 842 75 852 63 852 184 c 4
 852 296 843 295 811 295 c 4
512 372 m 0
 609 372 640 370 640 185 c 0
 640 11 614 -7 511 -7 c 0x83f0
 394 -7 380 8 380 180 c 0
 380 371 427 372 512 372 c 0
511 293 m 0
 482 293 468 304 468 183 c 0
 468 63 480 63 511 63 c 0
 542 63 552 61 552 182 c 0
 552 294 543 293 511 293 c 0
150 658 m 0x2bf0
 247 658 278 656 278 471 c 0
 278 297 252 279 149 279 c 0
 32 279 18 294 18 466 c 0
 18 657 65 658 150 658 c 0x2bf0
149 579 m 0
 120 579 106 590 106 469 c 0
 106 349 118 349 149 349 c 0
 180 349 190 347 190 468 c 0
 190 580 181 579 149 579 c 0
188 -8 m 1
 139 22 l 1
 469 678 l 1
 537 658 l 1x07f0
 188 -8 l 1
EndSplineSet
Validated: 33
EndChar

StartChar: grave
Encoding: 96 96 124
Width: 300
Flags: HW
HStem: 559 130
VStem: 19 207
LayerCount: 2
Fore
SplineSet
168 695 m 1
 37 693 l 5
 37 609 l 5
 168 611 l 1
 168 695 l 1
244 546 m 1
 244 623 l 1
 146 623 l 1
 145 553 l 1
 244 546 l 1
EndSplineSet
Substitution2: "'case' +BCAENQQzBDgEQQRCBEAEPgQ3BDAEMgQ4BEEEOAQ8BEsENQAA +BEQEPgRABDwESwAA lookup 4 subtable" grave.cap
Substitution2: "'aalt' +BBIEQQQ1 +BDAEOwRMBEIENQRABD0EMARCBDgEMgQ9BEsENQAA +BDIEMARABDgEMAQ9BEIESwAA lookup 0 subtable" grave.cap
EndChar

StartChar: acute
Encoding: 180 180 125
Width: 300
Flags: HW
HStem: 549 140
VStem: 84 203
LayerCount: 2
Fore
SplineSet
156 692 m 5
 287 700 l 5
 287 616 l 5
 156 608 l 5
 156 692 l 5
80 543 m 5
 80 620 l 5
 178 620 l 5
 179 550 l 5
 80 543 l 5
EndSplineSet
Substitution2: "'case' +BCAENQQzBDgEQQRCBEAEPgQ3BDAEMgQ4BEEEOAQ8BEsENQAA +BEQEPgRABDwESwAA lookup 4 subtable" acute.cap
Substitution2: "'aalt' +BBIEQQQ1 +BDAEOwRMBEIENQRABD0EMARCBDgEMgQ9BEsENQAA +BDIEMARABDgEMAQ9BEIESwAA lookup 0 subtable" acute.cap
EndChar

StartChar: circumflex
Encoding: 710 710 126
Width: 300
Flags: W
HStem: 549 139<187.574 196>
VStem: 19 263
LayerCount: 2
Fore
SplineSet
105 685 m 5
 196 688 l 5
 282 579 l 1
 192 549 l 1
 149 617 l 1
 147 617 l 1
 110 549 l 1
 19 559 l 1
 105 685 l 5
EndSplineSet
Validated: 1
Substitution2: "'case' +BCAENQQzBDgEQQRCBEAEPgQ3BDAEMgQ4BEEEOAQ8BEsENQAA +BEQEPgRABDwESwAA lookup 4 subtable" circumflex.cap
Substitution2: "'aalt' +BBIEQQQ1 +BDAEOwRMBEIENQRABD0EMARCBDgEMgQ9BEsENQAA +BDIEMARABDgEMAQ9BEIESwAA lookup 0 subtable" circumflex.cap
EndChar

StartChar: tilde
Encoding: 732 732 127
Width: 300
Flags: W
VStem: 215 58<638.624 659.207>
LayerCount: 2
Fore
SplineSet
88 557 m 1
 28 577 l 5
 64 684 72 693 146 656.975647216 c 0
 189.834965715 635.636103038 201 620 215 668 c 1
 273 658 l 1
 236 548 230 546 153 582.443101953 c 0
 118.501421728 598.77083189 104 607 88 557 c 1
EndSplineSet
Validated: 33
Substitution2: "'case' +BCAENQQzBDgEQQRCBEAEPgQ3BDAEMgQ4BEEEOAQ8BEsENQAA +BEQEPgRABDwESwAA lookup 4 subtable" tilde.cap
Substitution2: "'aalt' +BBIEQQQ1 +BDAEOwRMBEIENQRABD0EMARCBDgEMgQ9BEsENQAA +BDIEMARABDgEMAQ9BEIESwAA lookup 0 subtable" tilde.cap
EndChar

StartChar: macron
Encoding: 175 175 128
Width: 300
Flags: W
HStem: 582 84<44 252>
VStem: 44 213
LayerCount: 2
Fore
SplineSet
44 666 m 1
 257 661 l 1
 252 577 l 5
 44 582 l 1
 44 666 l 1
EndSplineSet
Validated: 1
Substitution2: "'case' +BCAENQQzBDgEQQRCBEAEPgQ3BDAEMgQ4BEEEOAQ8BEsENQAA +BEQEPgRABDwESwAA lookup 4 subtable" macron.cap
Substitution2: "'aalt' +BBIEQQQ1 +BDAEOwRMBEIENQRABD0EMARCBDgEMgQ9BEsENQAA +BDIEMARABDgEMAQ9BEIESwAA lookup 0 subtable" macron.cap
EndChar

StartChar: breve
Encoding: 728 728 129
Width: 291
Flags: HW
HStem: -4.9248 94.751<194.304 303.419> 302.779 96.9795<189.867 292.544>
VStem: 51.3135 136.533<399.759 569.701> 65.1025 129.201<89.8262 302.779> 315 136<101.029 285.617>
LayerCount: 2
Fore
SplineSet
199 688 m 1
 241.3515625 686.608398438 244.294921875 687.6171875 282 687 c 1
 281 631 l 1
 199 633 l 1
 199 688 l 1
24 680 m 1
 66.3515625 678.608398438 69.294921875 679.6171875 107 679 c 1
 106 623 l 1
 24 625 l 1
 24 680 l 1
87 635 m 1
 124.484375 638.548828125 183.856445312 643.431640625 224 639 c 1
 222 555 l 1
 180.666992188 550.801757812 134.333007812 548.209960938 93 557 c 1
 87 635 l 1
EndSplineSet
Substitution2: "'case' +BCAENQQzBDgEQQRCBEAEPgQ3BDAEMgQ4BEEEOAQ8BEsENQAA +BEQEPgRABDwESwAA lookup 4 subtable" breve.cap
Substitution2: "'aalt' +BBIEQQQ1 +BDAEOwRMBEIENQRABD0EMARCBDgEMgQ9BEsENQAA +BDIEMARABDgEMAQ9BEIESwAA lookup 0 subtable" breve.cap
EndChar

StartChar: dotaccent
Encoding: 729 729 130
Width: 300
Flags: W
HStem: 560 129<91 208>
VStem: 91 117<561 688>
LayerCount: 2
Fore
SplineSet
91 560 m 0
 86 689 l 4
 212 688 l 0
 208 561 l 0
 91 560 l 0
EndSplineSet
Validated: 1
Substitution2: "'case' +BCAENQQzBDgEQQRCBEAEPgQ3BDAEMgQ4BEEEOAQ8BEsENQAA +BEQEPgRABDwESwAA lookup 4 subtable" dotaccent.cap
Substitution2: "'aalt' +BBIEQQQ1 +BDAEOwRMBEIENQRABD0EMARCBDgEMgQ9BEsENQAA +BDIEMARABDgEMAQ9BEIESwAA lookup 0 subtable" dotaccent.cap
EndChar

StartChar: dieresis
Encoding: 168 168 131
Width: 300
Flags: HW
HStem: 581 101<4 121 212.7 290> 586 106<177 290>
VStem: 4 122<585 682> 174 116<586 687>
LayerCount: 2
Fore
SplineSet
4 581 m 0xb0
 0 682 l 0
 111 686 l 0
 116 585 l 0
 4 581 l 0xb0
184 586 m 0x70
 187 692 l 0x70
 296 687 l 0
 290 581 l 0xb0
 184 586 l 0x70
EndSplineSet
Substitution2: "'case' +BCAENQQzBDgEQQRCBEAEPgQ3BDAEMgQ4BEEEOAQ8BEsENQAA +BEQEPgRABDwESwAA lookup 4 subtable" dieresis.cap
Substitution2: "'aalt' +BBIEQQQ1 +BDAEOwRMBEIENQRABD0EMARCBDgEMgQ9BEsENQAA +BDIEMARABDgEMAQ9BEIESwAA lookup 0 subtable" dieresis.cap
EndChar

StartChar: ring
Encoding: 730 730 132
Width: 300
Flags: W
HStem: 538 34<84.6019 147.998> 667 54<79.6078 153.479>
VStem: 13 206
LayerCount: 2
Fore
SplineSet
117 538 m 0
 48 538 20 540 13 627 c 0
 8.82956939063 678.832494716 16 721 118 721 c 0
 210 721 221.88444102 681.919938367 219 630 c 0
 214 540 182 538 117 538 c 0
115 572 m 0
 148 572 157 599 157 620 c 0
 157 641 158 667 114 667 c 4
 76 667 76 639 76 618 c 0
 76 601 85 572 115 572 c 0
EndSplineSet
Validated: 33
Substitution2: "'case' +BCAENQQzBDgEQQRCBEAEPgQ3BDAEMgQ4BEEEOAQ8BEsENQAA +BEQEPgRABDwESwAA lookup 4 subtable" ring.cap
Substitution2: "'aalt' +BBIEQQQ1 +BDAEOwRMBEIENQRABD0EMARCBDgEMgQ9BEsENQAA +BDIEMARABDgEMAQ9BEIESwAA lookup 0 subtable" ring.cap
EndChar

StartChar: cedilla
Encoding: 184 184 133
Width: 300
Flags: W
HStem: -204 60<80.7526 160.288>
VStem: 67 176
LayerCount: 2
Fore
SplineSet
131 5 m 5
 200 5 l 5
 176 -44 l 5
 216 -62 241.664027214 -75.5848436353 243 -117 c 4
 246 -210 202 -204 132 -204 c 4
 120 -204 86 -197 67 -187 c 5
 86 -131 l 5
 102 -139 117 -144 129 -144 c 4
 157 -144 164.169169492 -136.510511864 160 -119 c 4
 155 -98 131 -90 92 -82 c 5
 131 5 l 5
EndSplineSet
Validated: 33
Substitution2: "'case' +BCAENQQzBDgEQQRCBEAEPgQ3BDAEMgQ4BEEEOAQ8BEsENQAA +BEQEPgRABDwESwAA lookup 4 subtable" cedilla.cap
Substitution2: "'aalt' +BBIEQQQ1 +BDAEOwRMBEIENQRABD0EMARCBDgEMgQ9BEsENQAA +BDIEMARABDgEMAQ9BEIESwAA lookup 0 subtable" cedilla.cap
EndChar

StartChar: hungarumlaut
Encoding: 733 733 134
Width: 300
Flags: W
HStem: 549 140
VStem: 49 315
LayerCount: 2
Fore
SplineSet
111 689 m 1
 206 679 l 1
 116 549 l 1
 49 569 l 1
 111 689 l 1
259 689 m 1
 364 679 l 5
 264 549 l 5
 187 559 l 1
 259 689 l 1
EndSplineSet
Validated: 1
Substitution2: "'case' +BCAENQQzBDgEQQRCBEAEPgQ3BDAEMgQ4BEEEOAQ8BEsENQAA +BEQEPgRABDwESwAA lookup 4 subtable" hungarumlaut.cap
Substitution2: "'aalt' +BBIEQQQ1 +BDAEOwRMBEIENQRABD0EMARCBDgEMgQ9BEsENQAA +BDIEMARABDgEMAQ9BEIESwAA lookup 0 subtable" hungarumlaut.cap
EndChar

StartChar: ogonek
Encoding: 731 731 135
Width: 300
Flags: W
HStem: -205 84<146.144 229.635>
VStem: 57 186
LayerCount: 2
Fore
SplineSet
94 5 m 5
 174 5 l 1
 140 -70 122.993959414 -121 188 -121 c 0
 205 -121 217 -118 227 -114 c 1
 243 -191 l 1
 221 -199 181 -205 155 -205 c 0
 65 -205 57 -177 57 -120 c 4
 57 -88 76 -29 94 5 c 5
EndSplineSet
Validated: 33
Substitution2: "'case' +BCAENQQzBDgEQQRCBEAEPgQ3BDAEMgQ4BEEEOAQ8BEsENQAA +BEQEPgRABDwESwAA lookup 4 subtable" ogonek.cap
Substitution2: "'aalt' +BBIEQQQ1 +BDAEOwRMBEIENQRABD0EMARCBDgEMgQ9BEsENQAA +BDIEMARABDgEMAQ9BEIESwAA lookup 0 subtable" ogonek.cap
EndChar

StartChar: caron
Encoding: 711 711 136
Width: 300
Flags: W
HStem: 543 149
VStem: 20 262
LayerCount: 2
Fore
SplineSet
196 543 m 1
 104 549 l 1
 20 683 l 1
 108 692 l 1
 148 617 l 1
 150 617 l 1
 191 689 l 1
 282 669 l 1
 196 543 l 1
EndSplineSet
Validated: 1
Substitution2: "'case' +BCAENQQzBDgEQQRCBEAEPgQ3BDAEMgQ4BEEEOAQ8BEsENQAA +BEQEPgRABDwESwAA lookup 4 subtable" caron.cap
Substitution2: "'aalt' +BBIEQQQ1 +BDAEOwRMBEIENQRABD0EMARCBDgEMgQ9BEsENQAA +BDIEMARABDgEMAQ9BEIESwAA lookup 0 subtable" caron.cap
EndChar

StartChar: emdash
Encoding: 8212 8212 137
Width: 1000
Flags: W
HStem: 205 100<40 684> 215 90<316 960>
LayerCount: 2
Fore
SplineSet
30 305 m 1x40
 970 305 l 1
 960 215 l 5x40
 40 205 l 1x80
 30 305 l 1x40
EndSplineSet
Validated: 1
Substitution2: "'case' +BCAENQQzBDgEQQRCBEAEPgQ3BDAEMgQ4BEEEOAQ8BEsENQAA +BEQEPgRABDwESwAA lookup 4 subtable" emdash.cap
Substitution2: "'aalt' +BBIEQQQ1 +BDAEOwRMBEIENQRABD0EMARCBDgEMgQ9BEsENQAA +BDIEMARABDgEMAQ9BEIESwAA lookup 0 subtable" emdash.cap
EndChar

StartChar: AE
Encoding: 198 198 138
Width: 595
Flags: W
HStem: 0 114<417 560> 184 102<191 280> 275 119<408 549> 566.392 107.432<122.543 164.597 263.056 266.055 389.092 402.377> 566.465 118.551<389.092 574.256>
VStem: 266.055 123.037<425.682 566.465>
LayerCount: 2
Fore
SplineSet
118 -20 m 1xc4
 -6 10 l 1
 164.596679688 564.991210938 l 1
 122.54296875 562.96484375 l 1
 115.392578125 673.823242188 l 1xd4
 574.255859375 685.015625 l 1
 577.036132812 571.048828125 l 1
 389.091796875 566.46484375 l 1
 396 394 l 1
 549 394 l 1
 550 275 l 5
 408 275 l 5xac
 417 114 l 1
 560 114 l 1
 560 0 l 1
 302 0 l 1
 290 184 l 1
 167 184 l 1
 118 -20 l 1xc4
191 286 m 1
 280 286 l 1
 266.0546875 566.46484375 l 1xcc
 263.055664062 566.391601562 l 1
 191 286 l 1
EndSplineSet
Validated: 1
Position2: "'cpsp' +BBgEPQRCBDUEQAQyBDAEOwAA +BD8EQAQ+BD8EOARBBD0ESwRF lookup 0 subtable" dx=10 dy=0 dh=20 dv=0
EndChar

StartChar: ordfeminine
Encoding: 170 170 139
Width: 302
Flags: W
HStem: 258 67<111.374 175.401> 405 67<112.844 182> 520 68<74.6724 180.612>
VStem: 31 78<326.818 400.609> 184 80<335.235 405 472 518.668> 197 71<272.014 296>
LayerCount: 2
Fore
SplineSet
268 273 m 1xf4
 197 263 l 1xf4
 192 296 l 1
 190 296 l 1
 172 271 147 258 116 258 c 4
 38 258 31 266 31 354 c 4
 31 456 74 472 182 472 c 5
 182 480 l 2
 182 499 188 520 151 520 c 0
 123 520 106 519 77 511 c 1
 63 572 l 1
 90 581 133 588 166 588 c 0
 263 588 264 578 264 451 c 2
 264 338 l 2xf8
 264 313 265 296 268 273 c 1xf4
184 352 m 2xf8
 184 405 l 5
 122 405 109 404 109 363 c 4
 109 326 125 325 144 325 c 0
 156 325 170 321 178 335 c 0
 181 340 184 346 184 352 c 2xf8
EndSplineSet
Validated: 33
EndChar

StartChar: Lslash
Encoding: 321 321 140
Width: 382
Flags: W
HStem: -10 21G<60 364> 654 20G<60 191>
VStem: 60 131<101 232 436 664>
LayerCount: 2
Fore
SplineSet
364 0 m 1
 60 -10 l 1
 60 232 l 1
 11 196 l 1
 0 298 l 1
 60 345 l 1
 60 664 l 5
 191 674 l 1
 191 436 l 1
 285 508 l 1
 298 392 l 1
 191 315 l 1
 191 101 l 1
 359 111 l 1
 364 0 l 1
EndSplineSet
Validated: 1
Position2: "'cpsp' +BBgEPQRCBDUEQAQyBDAEOwAA +BD8EQAQ+BD8EOARBBD0ESwRF lookup 0 subtable" dx=10 dy=0 dh=20 dv=0
EndChar

StartChar: Oslash
Encoding: 216 216 141
Width: 481
Flags: W
HStem: -8 104<184.057 294.488> 568 114<170.596 286.877>
VStem: 25 133.173<272.921 550.44> 329.083 126.917<145.025 432.887>
LayerCount: 2
Fore
SplineSet
242 568 m 0
 156 568 149 557 156 337 c 0
 156.765312477 312.9468012 157.45794418 291.302184181 158.172911435 271.824067044 c 1
 286.877091161 565.269116561 l 1
 274.867690257 567.854975105 260.029118971 568 242 568 c 0
363.579101562 740.149414062 m 1
 456 713 l 1
 422.99539571 640.344636527 l 1
 460.531484469 597.321344142 459.369667271 512.428862659 456 349 c 0
 449.197322129 19.0701232477 428 -8 238 -8 c 0
 194.249880851 -8 159.789657298 -6.05653385974 132.553648436 0.974731318866 c 1
 112.698242188 -42.734375 l 1
 28.5927734375 -23.6181640625 l 1
 62.3430224572 53.3322777636 l 1
 35.7687501888 102.028772917 29.3104438171 188.134466401 25 339 c 0
 16 654 42 682 247 682 c 0
 282.17630552 682 311.59751592 680.865192512 336.178537408 677.676230035 c 1
 363.579101562 740.149414062 l 1
182.767329997 111.513650468 m 1
 194.839817817 97.7843670716 213.429054337 96.4050814474 243 96 c 0
 316 95 306.603664678 101.625847408 324 343 c 0
 326.559397146 378.511635402 328.299980073 408.419510994 329.082583144 433.607737882 c 1
 182.767329997 111.513650468 l 1
EndSplineSet
Validated: 33
Position2: "'cpsp' +BBgEPQRCBDUEQAQyBDAEOwAA +BD8EQAQ+BD8EOARBBD0ESwRF lookup 0 subtable" dx=10 dy=0 dh=20 dv=0
EndChar

StartChar: OE
Encoding: 338 338 142
Width: 650
Flags: W
HStem: -8 104<187.22 313.166 506.5 609> 296 119<445 589> 558 124<185.778 313.632 505.75 607>
VStem: 25 136<119.593 535.911> 314 275<296 415> 314 131<104 296 415 550>
LayerCount: 2
Fore
SplineSet
609 94 m 1xf4
 609 -10 l 1
 356 0 l 2
 327.016646773 0 292.294921875 -8 264 -8 c 0
 65 -8 25 -11 25 337 c 0
 25 681 91 682 270 682 c 4
 298.73828125 682 335.552160788 674 361 674 c 2
 607 684 l 1
 607 560 l 1
 445 550 l 1
 445 415 l 1xf4
 589 415 l 1
 589 296 l 1xf8
 445 296 l 1
 445 104 l 1
 609 94 l 1xf4
314 104 m 1
 314 548 l 1
 304 554 291 558 272 558 c 0
 169 558 161 552 161 341 c 0
 161 108 162 96 275 96 c 0
 291 96 306 99 314 104 c 1
EndSplineSet
Validated: 33
Position2: "'cpsp' +BBgEPQRCBDUEQAQyBDAEOwAA +BD8EQAQ+BD8EOARBBD0ESwRF lookup 0 subtable" dx=10 dy=0 dh=20 dv=0
EndChar

StartChar: ordmasculine
Encoding: 186 186 143
Width: 311
Flags: W
HStem: 258 69<121.139 185.136> 499 89<120.763 187.169>
VStem: 30 83<330.744 495.491> 193 84<330.623 496.118>
LayerCount: 2
Fore
SplineSet
155 588 m 4
 278 588 277 524 277 425 c 0
 277 291 242 258 154 258 c 4
 30 258 30 319 30 422 c 0
 30 535 60 588 155 588 c 4
154 499 m 0
 120 499 113 478 113 423 c 4
 113 338 124 327 154 327 c 4
 188 327 193 356 193 423 c 4
 193 482 186 499 154 499 c 0
EndSplineSet
Validated: 33
EndChar

StartChar: ae
Encoding: 230 230 144
Width: 633
Flags: W
HStem: -8 98<142.999 237.932> -8 88<408.866 558.463> 204 95<369 485> 214 102<149.878 240> 386 111<380.516 477.653> 400 107<70.0387 221.455>
VStem: 19 117<94.1863 199.511> 242 127<120.302 204 316 376.112> 485 120<299 377.013>
LayerCount: 2
Fore
SplineSet
601 204 m 1x2b80
 369 204 l 1
 369 112 418 80 476 80 c 0x6b80
 498 80 531 83 556 90 c 1x8380
 574 9 l 1
 531 -5 496 -8 453 -8 c 0x4380
 348 -8 323 6 299 77 c 1
 296 77 l 1
 279 10 253 -8 154 -8 c 0
 41 -8 19 6 19 146 c 0
 19 301 131 315 240 316 c 1
 240 331 l 2
 240 369 214 400 164 400 c 0
 132 400 98 394 74 383 c 1
 50 479 l 1
 82 495 140 507 189 507 c 0x9780
 297 507 305 481 315 430 c 1
 317 430 l 1
 333 486 349 497 450 497 c 0
 571 497 605 489 605 266 c 0
 605 247 603 221 601 204 c 1x2b80
242 160 m 2
 242 214 l 1
 198 214 136 220 136 151 c 0
 136 89 163 90 186 90 c 0x9380
 236 90 242 96 242 160 c 2
369 299 m 1x2b80
 485 299 l 1
 485 385 471 386 432 386 c 0
 389 386 369 373 369 299 c 1x2b80
EndSplineSet
Validated: 33
EndChar

StartChar: dotlessi
Encoding: 305 305 145
Width: 223
Flags: W
HStem: -10 21G<45.6071 177> 479 20G<36 177>
VStem: 36 141<142.7 499> 46 131<-7 346.3>
LayerCount: 2
Fore
SplineSet
177 -7 m 5xd0
 46 -10 l 1xd0
 36 499 l 1
 177 499 l 1xe0
 177 -7 l 5xd0
EndSplineSet
Validated: 1
EndChar

StartChar: lslash
Encoding: 322 322 146
Width: 227
Flags: W
HStem: 0 21G<48 179> 477 20G<196.571 223.093>
VStem: 48 131<0 275 462 577>
LayerCount: 2
Fore
SplineSet
179 0 m 1
 48 0 l 1
 48 275 l 1
 7 241 l 1
 -7 337 l 1
 48 384 l 1
 48 577 l 1
 9 583 l 5
 19 704 l 5
 179 692 l 1
 179 462 l 1
 220 497 l 1
 235 400 l 1
 179 353 l 1
 179 0 l 1
EndSplineSet
Validated: 1
EndChar

StartChar: oslash
Encoding: 248 248 147
Width: 431
Flags: W
HStem: -8 100<181.166 259.649> 398 99<160.216 252.878>
VStem: 29 114<185.535 379.715> 274 124<98.4583 303>
LayerCount: 2
Fore
SplineSet
217 497 m 0
 250 497 279 489 305 473 c 1
 338 530 l 1
 404 509 l 1
 355 426 l 1
 384 402 402 381 398 249 c 4
 390.541015625 2.8671875 372 -8 217 -8 c 0
 183 -8 152 0 126 16 c 1
 94 -41 l 1
 27 -14 l 1
 76 62 l 1
 44 89 28 127 29 243 c 0
 30.9826849492 472.991454103 52 497 217 497 c 0
158 182 m 1
 255 373 l 1
 248 389 236 398 216 398 c 0
 158 398 143 387 143 246 c 0
 143 227 151 206 154 184 c 1
 158 182 l 1
273 300 m 1
 179 117 l 1
 186 101 198 92 217 92 c 0
 266 92 267.733742793 95.142341451 274 233 c 4
 275 255 275 281 276 303 c 5
 273 300 l 1
EndSplineSet
Validated: 33
EndChar

StartChar: oe
Encoding: 339 339 148
Width: 665
Flags: W
HStem: -18 90<420.298 599.87> -8 100<172.643 265.579> 193 95<404 519> 388 109<170.28 265.297> 400 107<416.203 508.541>
VStem: 29 130<100.026 381.081> 276 126<98.7779 193 288 380.877> 519 120<288 388.516>
LayerCount: 2
Fore
SplineSet
636 193 m 1x2f
 402 193 l 1
 407 70 425 72 507 72 c 0
 546 72 577 80 601 88 c 1
 618 4 l 1
 576 -12 530.993184031 -18.7566339465 489 -18 c 0xaf
 378 -16 371 -6 340 55 c 1
 338 55 l 1
 310 -3 253 -8 205 -8 c 0
 63 -8 29 12 29 243 c 0
 29 476 42 497 216 497 c 0x77
 267 497 316 494 342 435 c 1
 344 435 l 5
 371 504 423 507 481 507 c 4
 579 507 639 510 639 256 c 4
 639 225 637 204 636 193 c 1x2f
218 388 m 0x77
 167 388 159 380 159 244 c 0
 159 96 173 92 218 92 c 0
 268 92 276 98 276 247 c 0
 276 382 266 388 218 388 c 0x77
404 288 m 5
 519 288 l 1
 519 392 505 400 468 400 c 4x2f
 423 400 404 396 404 288 c 5
EndSplineSet
Validated: 33
EndChar

StartChar: germandbls
Encoding: 223 223 149
Width: 493
Flags: W
HStem: -8 111<237.745 340.059>
VStem: 46 131<-20 588.178> 245 125<325.663 426.013> 319 124<467.779 583.342> 347 124<114.731 214.794>
LayerCount: 2
Fore
SplineSet
177 -20 m 1xd0
 46 -20 l 1
 46 432 l 2
 46 700 70.2016783976 708.820838243 263 700 c 4
 416 693 443 684 443 530 c 0xd0
 443 454.837674412 370 438.4134017 370 385 c 0xe0
 370 311.430974425 471 269 471 157 c 0
 471 1.06581410364e-014 436 -8 239 -8 c 1
 232 23 230 85 230 103 c 1
 325 110 347 103 347 156 c 0xc8
 347 228.108398438 245 280.223049185 245 363 c 0xe0
 245 440.355030537 319 451.567735076 319 525 c 0
 319 567 318 591 256 595 c 0
 190.136929608 599.249230348 177 624 177 443 c 6
 177 -20 l 1xd0
EndSplineSet
Validated: 33
EndChar

StartChar: onesuperior
Encoding: 185 185 150
Width: 239
Flags: W
HStem: 413 21G<88 182.508> 680 21G<31.25 86.5>
VStem: 88 94<417 617.9> 98 94<531.2 704>
LayerCount: 2
Fore
SplineSet
182 413 m 5xe0
 88 417 l 1xe0
 98 704 l 1
 96 704 l 1
 39 680 l 1
 8 760 l 1
 108 807 l 1
 192 807 l 1xd0
 182 413 l 5xe0
EndSplineSet
Validated: 1
EndChar

StartChar: logicalnot
Encoding: 172 172 151
Width: 596
Flags: W
HStem: 319 102<45 344.6> 329 102<194.8 473>
VStem: 462 83<111 249.727> 473 83<224.182 329>
LayerCount: 2
Fore
SplineSet
40 421 m 1x90
 556 431 l 1x50
 545 106 l 1
 462 111 l 5x60
 473 329 l 1x50
 45 319 l 1
 40 421 l 1x90
EndSplineSet
Validated: 1
EndChar

StartChar: mu
Encoding: 181 181 152
Width: 455
Flags: W
HStem: -192 21G<56.5 182> -1 98<182.975 272.011> 469 20G<276 407>
VStem: 45 132<-170.531 12 100.962 499> 276 131<115.55 479>
LayerCount: 2
Fore
SplineSet
303 49 m 1
 300 49 l 1
 286 6 258 0 225 -1 c 0
 217.932176542 -1.21417646844 184 0 171 12 c 1
 171 -17 l 2
 171 -88 176 -141 182 -172 c 1
 61 -192 l 1
 52 -167 45 -103 45 0 c 2
 45 499 l 1
 177 509 l 1
 177 160 l 2
 177 105 193 97 223 97 c 4
 274 97 276 115.954101562 276 157 c 2
 276 489 l 1
 407 479 l 5
 407 162 l 2
 407 121 428 112 452 107 c 1
 429 -2 l 1
 380 0 337 16 303 49 c 1
EndSplineSet
Validated: 33
EndChar

StartChar: trademark
Encoding: 8482 8482 153
Width: 539
Flags: W
HStem: 415 21G<223 291.875> 600 74<25 81 158 215 448 451>
VStem: 81 77<401 600> 341 70<446 474.568> 451 63<518.5 597> 456 70<411 561.5>
LayerCount: 2
Fore
SplineSet
25 674 m 1xf0
 215 674 l 1
 215 600 l 5
 158 600 l 5
 158 401 l 1
 81 401 l 1
 81 600 l 5
 25 600 l 5
 25 674 l 1xf0
526 411 m 1xf4
 456 405 l 1xf4
 451 597 l 1
 448 597 l 1
 411 446 l 1
 341 446 l 1
 311 607 l 1
 308 607 l 1
 290 415 l 1
 223 421 l 1
 246 669 l 1
 351 674 l 1
 375 541 l 1
 376 541 l 1
 404 674 l 1
 514 669 l 1xf8
 526 411 l 1xf4
EndSplineSet
Validated: 1
EndChar

StartChar: Eth
Encoding: 208 208 154
Width: 493
Flags: W
HStem: -6 97<192.592 309.97> 293 110<191 265> 293 101<10 61> 562 115<192.138 316.805>
VStem: 61 130<91.3865 293 403 560.997> 333 135<112.195 545.359>
LayerCount: 2
Fore
SplineSet
10 293 m 1xbc
 10 394 l 1
 61 397 l 1
 61 664 l 1
 93 672 212 677 264 677 c 0
 466.796875 677 468 671 468 345 c 4
 468 8 469 -6 239 -6 c 4
 197 -6 86 -2 61 2 c 1
 61 293 l 1
 10 293 l 1xbc
265 404 m 5
 267 293 l 1xbc
 191 293 l 1
 191 93 l 1
 198 91 238 91 245 91 c 0
 327 91 333 97 333 350 c 0
 333 562 327 562 247 562 c 0
 237 562 199 561 191 559 c 1
 191 403 l 5xdc
 265 404 l 5
EndSplineSet
Validated: 33
Position2: "'cpsp' +BBgEPQRCBDUEQAQyBDAEOwAA +BD8EQAQ+BD8EOARBBD0ESwRF lookup 0 subtable" dx=10 dy=0 dh=20 dv=0
EndChar

StartChar: onehalf
Encoding: 189 189 155
Width: 667
Flags: W
HStem: -10 84<502 619> 0 80<502 548.8> 263 21G<96 190> 316 79<424.188 568.774> 638 20G<428.36 507>
VStem: 96 94<263 570> 524 101<204.108 315.222>
LayerCount: 2
Fore
SplineSet
190 263 m 1x3e
 96 263 l 1
 96 570 l 1
 94 570 l 1
 34 540 l 1
 6 626 l 1
 106 673 l 1
 190 663 l 1
 190 263 l 1x3e
159 -8 m 1
 90 2 l 1
 439 658 l 1
 507 648 l 1
 159 -8 l 1
385 0 m 1x7e
 385 63 l 1
 432 110 l 2
 483 173 524 218 524 263 c 0
 524 301 523 316 494 316 c 4
 475 316 444 308 420 293 c 5
 400 362 l 5
 434 381 490 395 519 395 c 4
 615 395 625 380 625 282 c 0
 625 209 570 153 520 102 c 2
 502 83 l 1
 502 80 l 1x7e
 624 74 l 5
 619 -10 l 1xbe
 385 0 l 1x7e
EndSplineSet
Validated: 1
LCarets2: 2 0 0
Ligature2: "'frac' Diagonal Fractions lookup 9 subtable" one.numerator slash.frac two.numerator
Ligature2: "'frac' Diagonal Fractions lookup 9 subtable" one.numerator uni2215 two.numerator
Ligature2: "'frac' Diagonal Fractions lookup 9 subtable" one.numerator fraction two.numerator
EndChar

StartChar: plusminus
Encoding: 177 177 156
Width: 596
Flags: W
HStem: 0 82<60 536> 303.032 81.9473<41.7383 223.852> 321.526 81.9473<362.23 554.468>
VStem: 218.491 103.933<137.986 309.563> 226.364 103.934<395.434 565.008>
LayerCount: 2
Fore
SplineSet
231.6640625 565.0078125 m 5xc8
 335.59765625 568.735351562 l 5
 330.297851562 395.43359375 l 5xc8
 554.467773438 403.473632812 l 5
 557.407226562 321.526367188 l 5
 327.78515625 313.291015625 l 5
 322.423828125 137.986328125 l 5
 218.491210938 134.258789062 l 5xb0
 223.8515625 309.563476562 l 5
 41.73828125 303.032226562 l 5
 38.798828125 384.979492188 l 5
 226.364257812 391.706054688 l 5
 231.6640625 565.0078125 l 5xc8
60 82 m 1
 536 82 l 1
 536 0 l 1
 60 0 l 1
 60 82 l 1
EndSplineSet
Validated: 1
EndChar

StartChar: Thorn
Encoding: 222 222 157
Width: 453
Flags: W
HStem: -5 21G<58 186> 139 88<186 291.977> 454 106<186 292.568> 659 20G<53 186>
VStem: 58 128<0 143 228.058 452.828 558 674> 305 128<238.706 441.333>
LayerCount: 2
Fore
SplineSet
58 0 m 1
 53 674 l 5
 186 679 l 1
 186 558 l 1
 198 560 242 560 258 560 c 0
 364.442238719 560 432.132740565 559.000632298 433 363 c 0
 434 137 345 139 253 139 c 0
 238 139 195 141 186 143 c 1
 186 -5 l 1
 58 0 l 1
186 451 m 1
 186 230 l 1
 195 228 234 227 245 227 c 0
 303 227 305 272 305 333 c 0
 305 390 312 454 250 454 c 0
 237 454 196 453 186 451 c 1
EndSplineSet
Validated: 33
Position2: "'cpsp' +BBgEPQRCBDUEQAQyBDAEOwAA +BD8EQAQ+BD8EOARBBD0ESwRF lookup 0 subtable" dx=10 dy=0 dh=20 dv=0
EndChar

StartChar: onequarter
Encoding: 188 188 158
Width: 667
Flags: W
HStem: 81.0234 70.9043<591.681 632.377> 263 21G<106 201> 633 20G<75.4314 201>
VStem: 106 95<263 550> 507.797 83.8838<-16 81.0234 156.343 295>
LayerCount: 2
Fore
SplineSet
201 263 m 1
 106 263 l 1
 106 550 l 1
 104 550 l 1
 46 523 l 1
 11 602 l 1
 117 653 l 1
 201 643 l 1
 201 263 l 1
185 -18 m 1
 117 -8 l 1
 466 668 l 1
 534 658 l 1
 185 -18 l 1
591 -20 m 5
 507 -16 l 5
 506.169921875 85.4384765625 l 5
 358.375 93.216796875 l 5
 361.528320312 153.133789062 l 5
 499 391 l 5
 591 381 l 5
 591.680664062 151.927734375 l 5
 635.622070312 147.720703125 l 5
 631.99609375 78.81640625 l 5
 590.053710938 81.0234375 l 5
 591 -20 l 5
507.796875 156.342773438 m 5
 510.065429688 199.453125 505.73770835 258.770520976 510 295 c 5
 508 295 l 5
 439 160.072265625 l 5
 438.89453125 158.075195312 l 5
 507.796875 156.342773438 l 5
EndSplineSet
Validated: 33
LCarets2: 2 0 0
Ligature2: "'frac' Diagonal Fractions lookup 9 subtable" one.numerator slash.frac four.numerator
Ligature2: "'frac' Diagonal Fractions lookup 9 subtable" one.numerator uni2215 four.numerator
Ligature2: "'frac' Diagonal Fractions lookup 9 subtable" one.numerator fraction four.numerator
EndChar

StartChar: divide
Encoding: 247 247 159
Width: 596
Flags: W
HStem: 40 120<238 354> 216 112<40 220.6> 226 82<375.4 556> 385 127<234 360>
VStem: 234 126<388 512> 238 116<40 159>
LayerCount: 2
Fore
SplineSet
234 385 m 4x98
 228 512 l 4
 362 516 l 4
 360 388 l 4
 234 385 l 4x98
556 226 m 1xb0
 40 216 l 1
 40 328 l 1xd0
 556 308 l 1
 556 226 l 1xb0
238 33 m 0x94
 232 159 l 0
 354 160 l 0
 354 40 l 0
 238 33 l 0x94
EndSplineSet
Validated: 1
EndChar

StartChar: brokenbar
Encoding: 166 166 160
Width: 218
Flags: W
HStem: 654 20G<60.4286 168>
VStem: 51 107<-176 69 324 569> 61 107<-71 174 429 674>
LayerCount: 2
Fore
SplineSet
61 174 m 1xa0
 168 174 l 1xa0
 158 -176 l 5
 51 -176 l 5xc0
 61 174 l 1xa0
61 674 m 1
 168 674 l 1xa0
 158 324 l 1
 51 324 l 1xc0
 61 674 l 1
EndSplineSet
Validated: 1
EndChar

StartChar: degree
Encoding: 176 176 161
Width: 287
Flags: W
HStem: 440 51<102.401 196.292> 611 71<99.8219 205.063>
VStem: 26 69<497.311 607.89> 209 58<503.471 606.058>
LayerCount: 2
Fore
SplineSet
147 682 m 0
 262 682 267 627 267 563 c 0
 267 446 200 440 145 440 c 0
 32 440 26 490 26 557 c 0
 26 660 62 682 147 682 c 0
147 611 m 0
 114 611 95 614 95 558 c 4
 95 521 98 491 147 491 c 0
 181 491 209 506 209 559 c 0
 209 595 206 611 147 611 c 0
EndSplineSet
Validated: 33
EndChar

StartChar: thorn
Encoding: 254 254 162
Width: 447
Flags: W
HStem: -8 97<181.197 272.729> 15 74<181.054 211.282> 377 120<186.371 324> 672 20G<45 175>
VStem: 45 131<-212 15 93.4061 372.479 460 692> 287 131<98.1851 363.46>
LayerCount: 2
Fore
SplineSet
45 692 m 1x7c
 175 692 l 1
 175 460 l 1
 177 460 l 1
 197 503 230 497 274 497 c 0
 374 497 418 493 418 245 c 0
 418 -10 341 -8 268 -8 c 0xbc
 220 -8 191 -12 178 15 c 1
 176 15 l 1
 176 -212 l 1
 45 -212 l 1
 45 692 l 1x7c
176 331 m 2
 176 140 l 6
 176 97.21484375 196.427734375 89 224 89 c 4
 271 89 287 92 287 234 c 0
 287 378 265 377 227 377 c 0
 195.408203125 377 176 367.38671875 176 331 c 2
EndSplineSet
Validated: 33
EndChar

StartChar: threequarters
Encoding: 190 190 163
Width: 667
Flags: W
HStem: 0 21G<507 590.766> 81.0234 70.9043<591.681 632.377> 258 61<57.196 151.297> 429 62<80 149.616> 587 71<52.0827 218>
VStem: 156 98<323.334 421.896> 170 93<511.145 586.852> 507.797 83.8838<4 81.0234 156.343 295>
LayerCount: 2
Fore
SplineSet
591 0 m 1xf9
 507 4 l 1
 506.169921875 85.4384765625 l 1
 358.375 93.216796875 l 1
 361.528320312 153.133789062 l 1
 499 391 l 1
 591 381 l 1
 591.680664062 151.927734375 l 1
 635.622070312 147.720703125 l 1
 631.99609375 78.81640625 l 1
 590.053710938 81.0234375 l 1
 591 0 l 1xf9
507.796875 156.342773438 m 1
 510.065429688 199.453125 505.73770835 258.770520976 510 295 c 1
 508 295 l 1
 439 160.072265625 l 1
 438.89453125 158.075195312 l 1
 507.796875 156.342773438 l 1
56 569 m 1
 41 635 l 1
 64 647 139 658 176 658 c 4
 260 658 263 623 263 563 c 4xfb
 263 504 228 479 188 462 c 1
 188 460 l 1
 230 452 254 425 254 379 c 0
 254 272 236 258 142 258 c 0
 104 258 65 266 47 277 c 1
 61 336 l 1
 78 327 91 319 117 319 c 0
 150 319 156 341 156 372 c 0xfd
 156 422 134 429 92 429 c 2
 80 429 l 1
 80 491 l 1
 87 491 l 2
 120 491 170 513 170 546 c 4xfb
 170 572 172 587 145 587 c 4
 122 587 74 580 56 569 c 1
202 -18 m 1
 133 -8 l 1
 482 668 l 1
 550 658 l 1
 202 -18 l 1
EndSplineSet
Validated: 33
LCarets2: 2 0 0
Ligature2: "'frac' Diagonal Fractions lookup 9 subtable" three.numerator slash.frac four.numerator
Ligature2: "'frac' Diagonal Fractions lookup 9 subtable" three.numerator uni2215 four.numerator
Ligature2: "'frac' Diagonal Fractions lookup 9 subtable" three.numerator fraction four.numerator
EndChar

StartChar: twosuperior
Encoding: 178 178 164
Width: 274
Flags: W
HStem: 733 79<28.2081 143.657>
VStem: 146 101<621.247 729.586>
LayerCount: 2
Fore
SplineSet
8 427 m 1
 8 480 l 1
 54 527 l 2
 106 590 146 635 146 680 c 0
 146 718 146 733 96 733 c 0
 72 733 54 727 32 720 c 1
 13 789 l 1
 45 804 73 812 121 812 c 0
 248 812 247 752 247 699 c 0
 247 626 191 571 142 519 c 2
 125 500 l 1
 125 497 l 1
 241 487 l 1
 231 407 l 1
 8 427 l 1
EndSplineSet
Validated: 33
EndChar

StartChar: registered
Encoding: 174 174 165
Width: 374
Flags: W
HStem: 361 39<124.7 247.697> 499 31<169 208.653> 566 33<169.432 207.399> 642 40<124.7 249.511>
VStem: 27 47<448.599 592.554> 123 46<530 565> 209 47<530.112 565.562> 222 43<446.372 496.63> 300 47<448.703 592.659>
LayerCount: 2
Fore
SplineSet
167 499 m 1xfd80
 170 446 l 1
 129 444 l 1
 123 593 l 1
 132 595 167.021425936 597.885439459 196 599 c 0
 248 601 256 590.757920159 256 554 c 0xfe80
 256 527 254 522 233 521 c 1
 233 519 l 1
 253 512 256 509 265 448 c 5
 222 438 l 5
 212 496 211.041183594 499 182 499 c 2
 167 499 l 1xfd80
169 565 m 2
 169 530 l 1
 192 530 l 2
 208 530 209 537 209 548 c 0
 209 560 210 566 194 566 c 0
 188 566 172 565 169 565 c 2
187 682 m 0
 277 682 347 610 347 522 c 0
 347 433 277 361 187 361 c 0
 98 361 27 433 27 522 c 0
 27 610 98 682 187 682 c 0
187 642 m 0
 122 642 74 589 74 521 c 0
 74 454 122 400 187 400 c 0
 252 400 300 454 300 522 c 0
 300 589 252 642 187 642 c 0
EndSplineSet
Validated: 33
EndChar

StartChar: minus
Encoding: 8722 8722 166
Width: 596
Flags: W
HStem: 221 92<40 556>
LayerCount: 2
Fore
SplineSet
40 313 m 5
 556 308 l 1
 556 226 l 1
 40 221 l 5
 40 313 l 5
EndSplineSet
Validated: 1
EndChar

StartChar: eth
Encoding: 240 240 167
Width: 431
Flags: W
HStem: -8 100<174.909 262.181> 400 85<170.268 237.109>
VStem: 29 130<103.831 367.357>
LayerCount: 2
Fore
SplineSet
217 92 m 0
 263 92 278.687246731 109.165707302 272 241 c 0
 265 379 276.182979805 400 218 400 c 0
 168 400 159 392 159 246 c 0
 159 103 175 92 217 92 c 0
84 504 m 1
 56 547 l 1
 138 590 l 1
 122 606 99 624 76 641 c 1
 133 723 l 1
 159 706 207 668 237 641 c 1
 329 690 l 1
 357 644 l 1
 276 603 l 1
 310 568 337 524 361 478 c 0
 393 414 397 401 403 260 c 0
 414.060446825 0.0794996233624 375 -8 213 -8 c 0
 97 -8 29 8 29 243 c 0
 29 410 121 485 200 485 c 0
 209.947902528 485 227 482 238 480 c 1
 224 507 203 536 182 555 c 1
 84 504 l 1
EndSplineSet
Validated: 33
EndChar

StartChar: multiply
Encoding: 215 215 168
Width: 596
Flags: W
HStem: 0 21G<78.8451 117.608 477.49 516.344>
LayerCount: 2
Fore
SplineSet
50 456 m 5
 106 516 l 5
 288 331 l 1
 490 536 l 1
 556 466 l 1
 356 263 l 1
 556 61 l 1
 497 0 l 1
 298 204 l 1
 98 0 l 1
 30 71 l 1
 229 273 l 1
 50 456 l 5
EndSplineSet
Validated: 1
EndChar

StartChar: threesuperior
Encoding: 179 179 169
Width: 260
Flags: W
HStem: 412 71<41.214 140.599> 479 20G<40.1176 54.5> 583 72<59 135.236> 741 71<30.7567 139.239>
VStem: 140 92<661.464 740.644> 145 98<485.995 578.823>
LayerCount: 2
Fore
SplineSet
35 723 m 5xb8
 14 785 l 1
 36 797 98 812 135 812 c 0
 219 812 232 795 232 717 c 0xb8
 232 673 224 648 177 626 c 1
 177 624 l 1
 234 613 243 593 243 533 c 0
 243 428 205 412 111 412 c 0xb4
 74 412 45 420 26 431 c 1
 46 499 l 5x74
 63 490 80 483 107 483 c 0
 140 483 145 505 145 536 c 0xb4
 145 573 133 583 91 583 c 2
 59 583 l 1
 59 655 l 1
 87 655 l 2
 119 655 140 667 140 700 c 0
 140 726 141 741 114 741 c 0
 91 741 57 734 35 723 c 5xb8
EndSplineSet
Validated: 33
EndChar

StartChar: copyright
Encoding: 169 169 170
Width: 677
Flags: W
HStem: 30 56<242.015 432.752> 153 69<265.252 447.596> 223 20G<436 451.839> 417 21G<441.5 455.06> 441 79<270.11 450.761> 592 56<242.015 432.752>
VStem: 31 65<233.929 440.99> 169 71<247.233 412.221> 581 65<233.929 440.99>
LayerCount: 2
Fore
SplineSet
340 648 m 0
 511 648 646 510 646 340 c 0
 646 168 511 30 340 30 c 0
 168 30 31 168 31 340 c 0
 31 510 168 648 340 648 c 0
339 592 m 0
 203 592 96 479 96 339 c 0
 96 199 203 86 339 86 c 0
 474 86 581 199 581 339 c 0
 581 479 474 592 339 592 c 0
474 484 m 1
 447 417 l 5
 436 428 411 441 366 441 c 0
 290 441 240 437 240 321 c 0
 240 226 289 222 362 222 c 0
 389 222 425 232 447 243 c 1
 462 181 l 1
 427 162 401 153 351 153 c 0
 237 153 169 208 169 334 c 0
 169 485 254 520 369 520 c 0
 414 520 457 504 474 484 c 1
EndSplineSet
Validated: 1
EndChar

StartChar: Ccedilla
Encoding: 199 199 177
Width: 402
Flags: W
HStem: -204 60<170.753 250.288>
VStem: 25 139<140.952 525.088>
LayerCount: 2
Fore
SplineSet
358 120 m 1
 371 10 l 1
 286.608198284 -1.92492850334 l 1
 266 -44 l 1
 306 -62 331.6640625 -75.5849609375 333 -117 c 0
 336 -210 292 -204 222 -204 c 0
 210 -204 176 -197 157 -187 c 1
 176 -131 l 1
 192 -139 207 -144 219 -144 c 0
 247 -144 254.168945312 -136.510742188 250 -119 c 0
 245 -98 221 -90 182 -82 c 1
 214.557258267 -9.37227002057 l 1
 86.8463767693 -14.3181477197 34.5328461897 46.2143485929 25 327 c 0
 12.9124887232 683.032150334 101.902528495 697.93999738 297 680 c 2
 384 672 l 1
 371 548 l 1
 305 555 l 2
 188.932209783 567.310220175 156 563 164 334 c 0
 171.471424788 120.130465443 177 91 295 110 c 2
 358 120 l 1
EndSplineSet
Validated: 33
Position2: "'cpsp' +BBgEPQRCBDUEQAQyBDAEOwAA +BD8EQAQ+BD8EOARBBD0ESwRF lookup 0 subtable" dx=10 dy=0 dh=20 dv=0
EndChar

StartChar: Igrave
Encoding: 204 204 185
Width: 248
Flags: W
HStem: 0 21G<57.8494 189.151>
VStem: 58 131<0 664>
LayerCount: 2
Fore
SplineSet
-40.0751953125 823 m 1
 91.9248046875 823 l 1
 174.924804688 710 l 1
 81.9248046875 710 l 1
 -40.0751953125 823 l 1
EndSplineSet
Refer: 42 73 N 1 0 0 1 0 0 2
Validated: 1
Position2: "'cpsp' +BBgEPQRCBDUEQAQyBDAEOwAA +BD8EQAQ+BD8EOARBBD0ESwRF lookup 0 subtable" dx=10 dy=0 dh=20 dv=0
EndChar

StartChar: ccedilla
Encoding: 231 231 206
Width: 323
Flags: W
HStem: -204 60<120.753 200.288> -5.99925 96.9992<234.613 306.133> 389 107<182.725 313.843>
VStem: 31 128<118.214 360.654>
LayerCount: 2
Fore
SplineSet
306 96 m 1
 312 1 l 1
 294.201227205 -3.94410355418 252.936060854 -5.95490791383 234.61261286 -5.99924874381 c 1
 216 -44 l 1
 256 -62 281.6640625 -75.5849609375 283 -117 c 0
 286 -210 242 -204 172 -204 c 0
 160 -204 126 -197 107 -187 c 1
 126 -131 l 1
 142 -139 157 -144 169 -144 c 0
 197 -144 204.168945312 -136.510742188 200 -119 c 0
 195 -98 171 -90 132 -82 c 1
 167.100269087 -3.69939972903 l 1
 59.70261381 5.95154099525 38.024045398 51.9011936986 31 240 c 0
 22 481 70 496 253 496 c 0
 268 496 304 493 325 488 c 1
 313 383 l 1
 299 387 273 389 259 389 c 0
 196 389 154 388 159 244 c 0
 163.823482091 105.083715784 178 91 257 91 c 0
 266 91 294 92 306 96 c 1
EndSplineSet
Validated: 33
EndChar

StartChar: iacute
Encoding: 237 237 211
Width: 223
Flags: HW
HStem: 0 21G<46 177> 469 20G<46 177> 559 140
VStem: 46 131<0 489> 54 203
LayerCount: 2
Fore
SplineSet
177 0 m 1xf0
 46 0 l 1
 46 489 l 1
 177 489 l 1
 177 0 l 1xf0
EndSplineSet
Refer: 125 180 S 1 0 0 1 -30 10 2
EndChar

StartChar: icircumflex
Encoding: 238 238 212
Width: 223
Flags: W
HStem: 0 21G<46 177> 469 20G<46 177> 549 139<143.574 152>
VStem: -25 263 46 131<0 489>
LayerCount: 2
Fore
SplineSet
177 0 m 1xe8
 46 0 l 1
 46 489 l 1
 177 489 l 1
 177 0 l 1xe8
EndSplineSet
Refer: 126 710 S 1 0 0 1 -44 0 2
Validated: 1
EndChar

StartChar: idieresis
Encoding: 239 239 213
Width: 223
Flags: HW
HStem: 0 21G<46 177> 469 20G<46 177> 563 118.288<-30 87 178.7 256> 568.856 124.144<143 256>
VStem: -30 122<567.684 681.288> 46 131<0 489> 140 116<568.856 687.144>
LayerCount: 2
Fore
SplineSet
177 0 m 1xc4
 46 0 l 1
 46 489 l 1
 177 489 l 1
 177 0 l 1xc4
EndSplineSet
Refer: 131 168 S 1 0 0 1.17117 -34 -117.45 2
EndChar

StartChar: igrave
Encoding: 236 236 214
Width: 223
Flags: HW
HStem: 0 21G<46 177> 469 20G<46 177>
VStem: 46 131<0 489>
LayerCount: 2
Fore
SplineSet
177 0 m 1
 46 0 l 1
 46 489 l 1
 177 489 l 1
 177 0 l 1
EndSplineSet
Refer: 124 96 S 1.1986 -0.0478629 0.0580157 0.988843 -158.737 -5.3086 2
EndChar

StartChar: Dcroat
Encoding: 272 272 229
Width: 493
Flags: W
HStem: -6 97<192.469 302.819> 283 101<0 61 191 265> 562 115<191.452 312.847>
VStem: 61 130<91.3865 283 384 560.997> 333 135<124.337 541.152>
LayerCount: 2
Fore
SplineSet
0 283 m 1
 0 384 l 1
 61 384 l 1
 61 664 l 1
 93 672 192 677 244 677 c 0
 446.796875 677 468 661 468 345 c 4
 468 16 436.708007812 -6 219 -6 c 4
 177 -6 86 -2 61 2 c 1
 61 283 l 1
 0 283 l 1
265 384 m 1
 265 283 l 1
 191 283 l 1
 191 93 l 1
 198 91 238 91 245 91 c 0
 308 91 333 98 333 350 c 0
 333 548 327 562 247 562 c 0
 237 562 199 561 191 559 c 1
 191 384 l 1
 265 384 l 1
EndSplineSet
Validated: 1
Position2: "'cpsp' +BBgEPQRCBDUEQAQyBDAEOwAA +BD8EQAQ+BD8EOARBBD0ESwRF lookup 0 subtable" dx=10 dy=0 dh=20 dv=0
EndChar

StartChar: Eng
Encoding: 330 330 230
Width: 516
Flags: W
HStem: -202 21G<292.429 368.82> 664 20G<347.768 463>
VStem: 53 116<203.2 429> 63 115<10 335.889> 348 115<404.95 681>
LayerCount: 2
Fore
SplineSet
178 10 m 1xd8
 63 7 l 1xd8
 53 661 l 1
 183 664 l 1
 341 253 l 1
 343 253 l 1
 348 684 l 1
 463 681 l 1
 458.113634124 453.816834859 457 230 450.629495201 -2.9452960431 c 1
 444.032831997 -140.707756241 436.639648438 -147.186523438 301 -202 c 5
 259 -104 l 1
 319 -79 333 -77 323 0 c 1
 171 429 l 1
 169 429 l 1xe8
 178 10 l 1xd8
EndSplineSet
Validated: 33
Position2: "'cpsp' +BBgEPQRCBDUEQAQyBDAEOwAA +BD8EQAQ+BD8EOARBBD0ESwRF lookup 0 subtable" dx=10 dy=0 dh=20 dv=0
EndChar

StartChar: Hbar
Encoding: 294 294 231
Width: 515
Flags: W
HStem: 0 21G<58 189> 245 122<189 326> 470 89<14 58 189 326 457 501> 664 20G<58 189>
VStem: 58 131<0 245 367 470 559 684> 326 131<-20 245 367 470 559 664>
LayerCount: 2
Fore
SplineSet
501 470 m 1
 457 470 l 1
 457 -20 l 1
 326 -20 l 1
 326 245 l 1
 189 245 l 1
 189 0 l 1
 58 0 l 1
 58 470 l 1
 14 470 l 1
 14 559 l 1
 58 559 l 1
 58 684 l 5
 189 684 l 5
 189 559 l 1
 326 559 l 1
 326 664 l 1
 457 664 l 1
 457 559 l 1
 501 559 l 1
 501 470 l 1
326 367 m 1
 326 470 l 1
 189 470 l 1
 189 367 l 1
 326 367 l 1
EndSplineSet
Validated: 1
Position2: "'cpsp' +BBgEPQRCBDUEQAQyBDAEOwAA +BD8EQAQ+BD8EOARBBD0ESwRF lookup 0 subtable" dx=10 dy=0 dh=20 dv=0
EndChar

StartChar: Tbar
Encoding: 358 358 232
Width: 393
Flags: W
HStem: 293 89<262 337> 306 88<50 131> 547 131<12 131> 561 129<262 377>
VStem: 131 131<-20 293 390 553>
LayerCount: 2
Fore
SplineSet
382 567 m 1x18
 262 561 l 1
 262 382 l 1
 342 378 l 1
 337 290 l 1
 262 293 l 1x98
 262 -20 l 1
 131 -20 l 1
 131 301 l 1
 44 306 l 5
 50 394 l 1
 131 390 l 1
 131 553 l 1
 12 547 l 1
 7 678 l 1x68
 377 690 l 1
 382 567 l 1x18
EndSplineSet
Validated: 1
Position2: "'cpsp' +BBgEPQRCBDUEQAQyBDAEOwAA +BD8EQAQ+BD8EOARBBD0ESwRF lookup 0 subtable" dx=10 dy=0 dh=20 dv=0
EndChar

StartChar: uni021C
Encoding: 540 540 233
Width: 388
Flags: W
HStem: 565 117<48.8039 186.693>
VStem: 201 125<423.573 552.146> 231 134<78.7462 271.619>
LayerCount: 2
Fore
SplineSet
56 -113 m 5xa0
 18 -18 l 5
 196 30 231 67 231 177 c 0xa0
 231 257.30946763 232 318 75 265 c 1
 47 359 l 1
 192 408 201 424 201 500 c 0
 201 540 180 565 140 565 c 0
 110 565 75 554 54 545 c 1
 22 659 l 5
 78 674 126 682 160 682 c 4
 296 682 326 680 326 531 c 0xc0
 326 446 316 412 234 362 c 1
 234 360 l 1
 334 346 365 340 365 183 c 0
 365 -2 250 -66 56 -113 c 5xa0
EndSplineSet
Validated: 33
Position2: "'cpsp' +BBgEPQRCBDUEQAQyBDAEOwAA +BD8EQAQ+BD8EOARBBD0ESwRF lookup 0 subtable" dx=10 dy=0 dh=20 dv=0
EndChar

StartChar: dcroat
Encoding: 273 273 234
Width: 447
Flags: W
HStem: -8 97<175.643 260.607> 377 120<176.82 256.211> 533 91<142 270 401 461> 682 20G<270 401>
VStem: 29 130<105.45 363.481> 270 131<96.2462 371.153 458 533 624 702>
LayerCount: 2
Fore
SplineSet
461 533 m 1
 401 533 l 1
 401 195 l 2
 401 148 403 45 405 0 c 1
 292 -10 l 1
 285 35 l 5
 283 35 l 5
 265 1 226 -8 181 -8 c 0
 77 -8 29 0 29 244 c 4
 29 479 44 497 186 497 c 4
 229 497 256 486 268 458 c 1
 270 458 l 1
 270 533 l 1
 142 533 l 1
 142 624 l 1
 270 624 l 1
 270 702 l 1
 401 702 l 1
 401 624 l 1
 461 624 l 1
 461 533 l 1
270 162 m 6
 270 291 l 6
 270 361 257.460558341 377 222 377 c 0
 176 377 159 365 159 231 c 4
 159 94 184 89 221 89 c 0
 244.848153504 89 270 97 270 162 c 6
EndSplineSet
Validated: 1
EndChar

StartChar: eng
Encoding: 331 331 235
Width: 458
Flags: W
HStem: 387 110<189.966 348>
VStem: 46 131<20 377.131> 271 131<-64.1797 240.6> 281 131<128.4 381.869>
LayerCount: 2
Fore
SplineSet
46 20 m 5xd0
 46 242 l 2
 46 296 45 416 40 489 c 1
 155 499 l 1
 161 463 l 1
 163 463 l 1
 186 490 231 497 282 497 c 0
 414 497 412 453 412 344 c 2xd0
 402 36 l 2
 402 -117 396 -131 232 -189 c 1
 193 -90 l 1
 262 -68 271 -58 271 18 c 2xe0
 281 336 l 2
 281 378 271 387 233 387 c 0
 211 387 193 382 184 353 c 0
 180 343 177 327 177 308 c 2
 177 20 l 5
 46 20 l 5xd0
EndSplineSet
Validated: 33
EndChar

StartChar: hbar
Encoding: 295 295 236
Width: 458
Flags: W
HStem: 0 21G<46 177 281 412> 533 81<-15 46 177 309> 672 20G<46 177>
VStem: 46 131<0 371.786 438 533 614 692> 281 131<0 375.917>
LayerCount: 2
Fore
SplineSet
412 0 m 1
 281 0 l 1
 281 297 l 2
 281 345 272 387 233 387 c 0
 211 387 192 374 182 341 c 0
 180 333 177 315 177 304 c 2
 177 0 l 1
 46 0 l 1
 46 533 l 1
 -15 533 l 1
 -15 614 l 1
 46 614 l 1
 46 692 l 1
 177 692 l 1
 177 614 l 1
 309 614 l 1
 309 533 l 1
 177 533 l 1
 177 438 l 1
 179 438 l 1
 190 455 205 469 221 480 c 0
 240 491 263 497 287 497 c 0
 377 497 412 421 412 297 c 2
 412 0 l 1
EndSplineSet
Validated: 1
EndChar

StartChar: kgreenlandic
Encoding: 312 312 237
Width: 413
Flags: W
HStem: 0 21G<45 176> 479 20G<276.357 333.442>
VStem: 45 131<0 249 275 482>
LayerCount: 2
Fore
SplineSet
176 482 m 1
 176 275 l 1
 178 275 l 1
 286 499 l 1
 388 456 l 1
 298 279 l 1
 414 10 l 1
 278 -20 l 1
 176 249 l 1
 176 0 l 5
 45 0 l 5
 45 482 l 1
 176 482 l 1
EndSplineSet
Validated: 1
EndChar

StartChar: napostrophe
Encoding: 329 329 238
Width: 458
Flags: HW
HStem: 0 21G<46 177> 377 120<195.298 279.252>
VStem: 26 95<564.327 695.956> 46 131<0 370.563> 281 131<10 373.689>
LayerCount: 2
Fore
SplineSet
63 510 m 1xe8
 -4 553 l 1
 9 569 26 599 26 632 c 0
 26 658 21 681 8 691 c 1
 88 713 l 5
 105 703 121 669 121 636 c 0
 121 575 81 525 63 510 c 1xe8
EndSplineSet
Refer: 79 110 N 1 0 0 1 0 0 2
EndChar

StartChar: tbar
Encoding: 359 359 239
Width: 311
Flags: W
HStem: -6 108<144.946 275.012> 244 82<13 69 200 265> 396 93<21 69 200 296>
VStem: 69 131<105.956 244 326 396 489 600>
LayerCount: 2
Fore
SplineSet
296 396 m 1
 200 396 l 1
 200 326 l 1
 265 326 l 1
 265 244 l 1
 200 244 l 1
 200 173 l 6
 200 105 214 102 240 102 c 0
 253 102 263 103 274 105 c 1
 285 -1 l 1
 264 -4 230 -6 195 -6 c 4
 94.892578125 -6 69 5 69 165 c 6
 69 244 l 1
 13 244 l 1
 13 326 l 1
 69 326 l 1
 69 396 l 1
 21 396 l 1
 21 489 l 1
 69 489 l 1
 69 600 l 1
 200 611 l 1
 200 489 l 1
 296 489 l 1
 296 396 l 1
EndSplineSet
Validated: 1
EndChar

StartChar: uni021D
Encoding: 541 541 240
Width: 361
Flags: W
HStem: -200 86<35.3721 84.7551> 109 104<61 108.168> 381 116<40.1699 182.932>
VStem: 185 120<275.929 377.758> 212 130<-42.2331 101.13>
LayerCount: 2
Fore
SplineSet
37 -200 m 1xe8
 17 -114 l 5
 206 -55 212 -53 212 55 c 0xe8
 212 115.691948395 141.133789062 136.872070312 61 109 c 1
 42 213 l 1
 112 231 185 259 185 325 c 0
 185 367 190 381 128 381 c 0
 98 381 69 375 43 366 c 1
 19 475 l 1
 46 484 92 497 146 497 c 0
 286 497 305 471 305 357 c 0xf0
 305 288 268 240 214 215 c 1
 214 212 l 1
 286 197 342 151 342 62 c 0
 342 -105 306 -153 37 -200 c 1xe8
EndSplineSet
Validated: 33
EndChar

StartChar: IJ
Encoding: 306 306 241
Width: 484
Flags: W
HStem: 22 20.3042G<57.8494 189.151> 654 20G<303 434>
VStem: 58 131<22 664> 303 131<24.138 674>
LayerCount: 2
Fore
SplineSet
303 149 m 2
 303 674 l 1
 434 674 l 1
 434 155 l 2
 434 -50 428 -47 230 -162 c 1
 170 -46 l 1
 304 35 303 10 303 149 c 2
EndSplineSet
Refer: 42 73 N 1 0 0 0.966867 0 22 2
Validated: 33
Position2: "'cpsp' +BBgEPQRCBDUEQAQyBDAEOwAA +BD8EQAQ+BD8EOARBBD0ESwRF lookup 0 subtable" dx=10 dy=0 dh=20 dv=0
EndChar

StartChar: f_f
Encoding: 64256 64256 242
Width: 541
Flags: W
HStem: 0 21G<69 200> 386 103<13 69 200 314 445 520> 563 120<210.081 278> 587 112<464.254 540>
VStem: 69 131<0 386 489 546.545> 314 131<-20 386 489 570.006>
LayerCount: 2
Fore
SplineSet
445 -20 m 1xdc
 314 -20 l 1
 314 386 l 1
 200 386 l 1
 200 0 l 1
 69 0 l 1
 69 386 l 1
 13 386 l 1
 13 489 l 1
 69 489 l 1
 69 506 l 2
 69 663 92 679 280 683 c 1
 278 563 l 1xec
 208 556 200 542 200 508 c 2
 200 489 l 1
 314 489 l 1
 314 509 l 2
 314 673 310 693 540 699 c 1
 546 587 l 1
 454 573 445 572.893325555 445 512 c 2
 445 489 l 1
 520 489 l 1
 520 386 l 1
 445 386 l 1
 445 -20 l 1xdc
EndSplineSet
Validated: 33
LCarets2: 1 0
Ligature2: "'liga' Standard Ligatures lookup 18 subtable" f f
EndChar

StartChar: f_f_i
Encoding: 64259 64259 243
Width: 745
Flags: W
HStem: 0 21G<69 200 568.495 700> 396 93<3 69 200 325 456 559> 593 107<228.064 282.454 480.518 649.401>
VStem: 69 131<0 396 489 567.642> 325 131<-20 396 489 566.689> 559 131<151.6 396> 569 131<7 277.2>
LayerCount: 2
Fore
SplineSet
658 690 m 1xfc
 650 587 l 1
 598 593 562 593 548 593 c 0
 476 593 456 553 456 507 c 2
 456 489 l 1
 690 489 l 1xfc
 700 7 l 5
 569 0 l 1xfa
 559 396 l 1
 456 396 l 1
 456 -20 l 1
 325 -20 l 1
 325 396 l 1
 200 396 l 1
 200 0 l 1
 69 0 l 1
 69 396 l 1
 3 396 l 1
 3 489 l 1
 69 489 l 1
 69 502 l 2
 69 633.966834599 102 681 282 699 c 1
 289 592 l 1
 202 575 200 561.039700522 200 506 c 2
 200 489 l 1
 325 489 l 1
 325 515 l 2
 325 578 365 700 542 700 c 0
 558 700 610 698 658 690 c 1xfc
EndSplineSet
Validated: 1
LCarets2: 2 0 0
Ligature2: "'liga' Standard Ligatures lookup 18 subtable" f f i
EndChar

StartChar: f_f_j
Encoding: 57347 57347 244
Width: 745
Flags: W
HStem: -200 104<492 541.157> 0 21G<69 200 325 456> 396 93<3 69 200 325 456 569> 589 103<217.013 293.605> 593 107<480.518 642.488>
VStem: 69 131<0 396 489 571.243> 325 131<0 396 489 566.689> 569 131<-68.0803 396>
LayerCount: 2
Fore
SplineSet
658 680 m 1xef
 640 577 l 1
 617 585 587 593 548 593 c 0xef
 476 593 456 553 456 507 c 2
 456 489 l 1
 700 489 l 1
 700 35 l 2
 700 -74 677 -125 635 -158 c 0
 599 -187 539 -200 492 -200 c 1
 482 -96 l 1
 505 -93 530 -88 546 -70 c 0
 565 -50 569 -15 569 60 c 2
 569 396 l 1
 456 396 l 1
 456 0 l 1
 325 0 l 1
 325 396 l 1
 200 396 l 1
 200 0 l 1
 69 0 l 1
 69 396 l 1
 3 396 l 1
 3 489 l 1
 69 489 l 1
 69 502 l 2
 69 570 92 626 140 660 c 0
 169 681 206 692 248 692 c 0
 279 692 306 685 322 679 c 1
 289 582 l 1
 280 586 270 589 255 589 c 0xf7
 240 589 226 582 218 572 c 0
 203 556 200 530 200 506 c 2
 200 489 l 1
 325 489 l 1
 325 515 l 2
 325 578 365 700 542 700 c 0
 589 700 632 692 658 680 c 1xef
EndSplineSet
Validated: 1
Ligature2: "'liga' Standard Ligatures lookup 18 subtable" f f j
EndChar

StartChar: f_f_l
Encoding: 64260 64260 245
Width: 745
Flags: W
HStem: 0 21G<325 456> 396.515 92.9414<1.41699 64.0908 198.295 325 456 528> 662.235 20G<187.561 272.264>
VStem: 64.0908 130.918<250.648 395.886 489.456 562.658> 81.0146 130.918<10.7559 206.169> 325 131<0 396 489 575.622> 560 131<-10 449.667> 569 131<141.889 582.218>
LayerCount: 2
Fore
SplineSet
270.244140625 682.235351562 m 1xf4
 281.020507812 575.548828125 l 1
 200.248046875 567.690429688 192.462890625 561.451171875 194.408203125 506.446289062 c 2
 195.008789062 489.456054688 l 1
 325 489 l 1
 325 508 l 2
 325 544 329.3984375 616.4765625 372 657 c 0
 413 696 449 698 700 684 c 5xf5
 691 -13 l 1
 560 -10 l 1xe6
 569 581 l 5
 453 589 456 573.354750766 456 514 c 2
 456 489 l 1
 528 489 l 1
 528 396 l 1
 456 396 l 1
 456 0 l 1
 325 0 l 1
 325 396 l 1
 198.294921875 396.514648438 l 1
 211.932617188 10.755859375 l 1
 81.0146484375 6.126953125 l 1xed
 67.3759765625 395.885742188 l 1
 1.4169921875 396.5546875 l 1
 -1.8681640625 489.49609375 l 1
 64.0908203125 488.828125 l 1
 63.630859375 497.8203125 l 2
 57.9072265625 659.71875 104.877929688 661.37890625 270.244140625 682.235351562 c 1xf4
EndSplineSet
Validated: 33
LCarets2: 2 0 0
Ligature2: "'liga' Standard Ligatures lookup 18 subtable" f f l
EndChar

StartChar: f_i
Encoding: 65537 -1 246
Width: 489
Flags: W
HStem: -2.37891 21G<78.7049 210.36 297.047 429.62> 390.885 92.9355<-1.26855 61.2178> 398.23 92.9355<195.595 310.165> 586 113<201.729 338>
VStem: 61.2178 130.909<262.469 393.346 491.166 587.556> 79.4512 130.909<2.50586 185.224> 297.047 131.862<3.15723 193.941> 310.165 136.117<288.783 398.743>
LayerCount: 2
Fore
SplineSet
210.360351562 2.505859375 m 1xb5
 79.451171875 -2.37890625 l 1
 64.685546875 393.345703125 l 1
 -1.2685546875 390.884765625 l 1
 -4.736328125 483.8203125 l 1xd5
 61.2177734375 486.28125 l 1
 60.248046875 512.262695312 l 2
 53.4598180612 694.136640519 74 737 347 699 c 5
 338 586 l 1
 206 603 187.759752854 608.083837989 191.455078125 509.153320312 c 2
 192.126953125 491.166015625 l 1
 446.282226562 485.606445312 l 1xb9
 428.909179688 -2.8818359375 l 1
 297.046875 3.1572265625 l 1xb2
 310.165039062 398.743164062 l 1
 195.594726562 398.23046875 l 1
 210.360351562 2.505859375 l 1xb5
EndSplineSet
Validated: 33
LCarets2: 1 0
Ligature2: "'liga' Standard Ligatures lookup 18 subtable" f i
EndChar

StartChar: f_j
Encoding: 57348 57348 247
Width: 489
Flags: W
HStem: -200 21G<228.308 333> 587 103<213.074 373>
VStem: 69 131<20 399.841 499.965 586.439> 299.437 136.955<208.184 394.629> 312 132<-48.9524 246.445>
LayerCount: 2
Fore
SplineSet
200 20 m 1xf0
 69 20 l 1
 66.810546875 407.107421875 l 1
 0.912109375 410.768554688 l 1
 6.0703125 503.625976562 l 1
 67.96875 499.96484375 l 1
 69.4111328125 525.924804688 l 2
 79.4797751246 707.13991544 84 725 392 690 c 1
 373 587 l 1
 212 613 205.154896727 607.713725781 199.765625 510.669921875 c 2
 198.767578125 492.698242188 l 1
 436.391601562 480.163085938 l 5xf0
 444 35 l 2
 443 -135 430 -133 236 -200 c 1
 196 -96 l 1
 302 -55 313 -54 312 60 c 2xe8
 299.436523438 394.62890625 l 5
 197.608398438 399.840820312 l 1
 200 20 l 1xf0
EndSplineSet
Validated: 33
LCarets2: 1 0
Ligature2: "'liga' Standard Ligatures lookup 18 subtable" f j
EndChar

StartChar: f_l
Encoding: 65538 -1 248
Width: 489
Flags: W
HStem: 0 21G<302 434.288> 396 93<3 69 200 261>
VStem: 69 131<-20 396 489 579.043> 302 132<4 414.9> 312 132<208.2 592.414>
LayerCount: 2
Fore
SplineSet
200 -20 m 1xe8
 69 -20 l 1
 69 396 l 1
 3 396 l 1
 3 489 l 1
 69 489 l 1
 69 508 l 2
 69 680.983902674 82 712 444 694 c 1xe8
 434 0 l 1
 302 4 l 5xf0
 312 591 l 1
 204 601 200 571.418517314 200 514 c 2
 200 489 l 1
 261 489 l 1
 261 396 l 1
 200 396 l 1
 200 -20 l 1xe8
EndSplineSet
Validated: 33
LCarets2: 1 0
Ligature2: "'liga' Standard Ligatures lookup 18 subtable" f l
EndChar

StartChar: ij
Encoding: 307 307 249
Width: 447
Flags: W
HStem: 0 21G<55.591 187> 473 20G<46 177.409 269.544 401> 548.999 140<51.159 171.874> 560 129<281 398>
VStem: 46 131<150.7 489> 51.159 120.715<550.085 687.914> 56 131<4 342.3> 260 131<-50.4003 347> 270 131<181.7 485> 281 117<561 688>
LayerCount: 2
Fore
SplineSet
187 4 m 1xc2
 56 0 l 1xc2
 46 489 l 1
 177 493 l 1xc8
 187 4 l 1xc2
184 -210 m 1
 134 -106 l 1
 234 -62 257.289143817 -69.0065864195 260 50 c 6xc1
 270 489 l 1
 401 485 l 5xc080
 391 25 l 6xc1
 387.49929145 -136.032593292 355 -139 184 -210 c 1
EndSplineSet
Refer: 130 729 N 1 0 0 1 190 0 2
Refer: 130 729 N 1.03175 0 0 1.08527 -42.7302 -58.7519 2
Validated: 1
EndChar

StartChar: zero.slash
Encoding: 63032 63032 250
Width: 426
Flags: W
HStem: -8 112<175.079 247.065> 546 112<180.864 247.813>
VStem: 23 124<250.268 496.172> 279 124<153.063 403.01>
LayerCount: 2
Fore
SplineSet
152 247 m 1
 261 501 l 1
 253 528 238 546 215 546 c 0
 171 546 147 476 147 325 c 0
 147 299 149 275 152 247 c 1
274 406 m 1
 165 145 l 1
 174 121 189 104 212 104 c 0
 257 104 279 176 279 325 c 0
 279 352 278 377 274 406 c 1
218 658 m 0
 368 658 403 483 403 328 c 0
 403 95 318 -8 213 -8 c 0
 71 -8 23 155 23 322 c 0
 23 509 83 658 218 658 c 0
EndSplineSet
Validated: 1
AlternateSubs2: "'aalt' +BBIEQQQ1 +BDAEOwRMBEIENQRABD0EMARCBDgEMgQ9BEsENQAA +BDIEMARABDgEMAQ9BEIESwAA lookup 1 subtable" zero.fitted zero.oldstyle zero.taboldstyle zero.superior zero.inferior zero.numerator zero.denominator
EndChar

StartChar: Euro
Encoding: 8364 8364 251
Width: 426
Flags: W
HStem: -8 112<234.329 373.958> 238 67<34 70 206 362> 352 68<24 71 209 342> 536 122<235.585 386.634>
VStem: 70 131<146.207 238 305 352>
LayerCount: 2
Fore
SplineSet
372 123 m 1
 386 15 l 1
 367 6 325 -8 281 -8 c 0
 149.380859375 -8 99 33 75 238 c 1
 34 238 l 1
 34 305 l 1
 70 305 l 1
 70 309 70 313 70 317 c 0
 70 329 71 342 71 352 c 1
 24 352 l 1
 24 420 l 1
 78 420 l 1
 104 611 158.095703125 658 293 658 c 0
 336 658 386 646 405 638 c 1
 384 519 l 5
 371 526 323 536 298 536 c 4
 231.155273438 536 222 511 209 420 c 1
 342 420 l 1
 342 352 l 1
 202 352 l 1
 201 342 201 329 201 316 c 0
 201 312 201 309 201 305 c 1
 362 305 l 1
 362 238 l 1
 206 238 l 1
 215 135 226.201171875 104 296 104 c 0
 323 104 356 115 372 123 c 1
EndSplineSet
Validated: 1
Substitution2: "'onum' Oldstyle Figures lookup 14 subtable" Euro.taboldstyle
Substitution2: "'aalt' +BBIEQQQ1 +BDAEOwRMBEIENQRABD0EMARCBDgEMgQ9BEsENQAA +BDIEMARABDgEMAQ9BEIESwAA lookup 0 subtable" Euro.taboldstyle
EndChar

StartChar: estimated
Encoding: 8494 8494 253
Width: 817
Flags: W
HStem: -11 30<306.111 512.485> 316 29<172 646> 631 30<306.439 513.582>
VStem: 35 137<217.068 316 345 432.932> 646 136<345 432.932>
LayerCount: 2
Fore
SplineSet
782 316 m 2
 177 316 l 2
 174 316 172 315 172 312 c 2
 172 129 l 2
 172 121 176 114 181 108 c 0
 238 47 320 19 410 19 c 0
 506 19 592 52 650 120 c 1
 680 96 l 5
 616 31 529 -11 409 -11 c 0
 203 -11 35 139 35 325 c 0
 35 511 203 661 409 661 c 0
 615 661 782 511 782 325 c 0
 782 322 782 319 782 316 c 2
646 350 m 2
 646 524 l 2
 646 533 642 540 636 546 c 0
 578 604 498 631 410 631 c 0
 320 631 240 603 182 543 c 0
 176 537 172 529 172 520 c 2
 172 350 l 2
 172 347 174 345 177 345 c 2
 641 345 l 2
 644 345 646 347 646 350 c 2
EndSplineSet
Validated: 1
EndChar

StartChar: zero.oldstyle
Encoding: 63280 63280 254
Width: 431
Flags: W
HStem: -8 90<170.563 260.074> 387 110<166.372 269.772>
VStem: 29 122<99.2032 375.596> 280 122<99.1914 378.515>
LayerCount: 2
Fore
SplineSet
215 -8 m 4
 52 -8 29 14 29 245 c 0
 29 494 58 497 215 497 c 0
 378 497 402 496 402 245 c 0
 402 28 378 -8 215 -8 c 4
215 82 m 0
 256 82 280 88 280 235 c 4
 280 386 272 387 215 387 c 4
 164 387 151 374 151 235 c 4
 151 88 176 82 215 82 c 0
EndSplineSet
Validated: 1
Substitution2: "'tnum' Tabular Numbers lookup 17 subtable" zero.taboldstyle
AlternateSubs2: "'aalt' +BBIEQQQ1 +BDAEOwRMBEIENQRABD0EMARCBDgEMgQ9BEsENQAA +BDIEMARABDgEMAQ9BEIESwAA lookup 1 subtable" zero.taboldstyle
EndChar

StartChar: one.oldstyle
Encoding: 63281 63281 255
Width: 321
Flags: W
HStem: 0 21G<129 258> 480 20G<119.051 258>
VStem: 129 129<0 354>
LayerCount: 2
Fore
SplineSet
258 0 m 1
 129 0 l 1
 129 354 l 1
 127 354 l 1
 60 313 l 5
 13 421 l 1
 155 500 l 1
 258 493 l 1
 258 0 l 1
EndSplineSet
Validated: 1
Substitution2: "'tnum' Tabular Numbers lookup 17 subtable" one.taboldstyle
AlternateSubs2: "'aalt' +BBIEQQQ1 +BDAEOwRMBEIENQRABD0EMARCBDgEMgQ9BEsENQAA +BDIEMARABDgEMAQ9BEIESwAA lookup 1 subtable" one.taboldstyle
EndChar

StartChar: two.oldstyle
Encoding: 63282 63282 256
Width: 365
Flags: W
HStem: 0 107<176 337> 381 116<51.6198 240>
VStem: 196 124<250.708 378.035>
LayerCount: 2
Fore
SplineSet
337 -6 m 1
 18 0 l 1
 18 86 l 1
 62 128 l 2
 133 195 196 252 196 317 c 0
 196 379 188 381 142 381 c 4
 119 381 78 371 46 357 c 5
 15 463 l 5
 54 479 135 497 195 497 c 0
 285 497 320 482 320 341 c 0
 320 253 269 193 202 131 c 2
 176 109 l 1
 176 107 l 1
 343 102 l 1
 337 -6 l 1
EndSplineSet
Validated: 1
Substitution2: "'tnum' Tabular Numbers lookup 17 subtable" two.taboldstyle
AlternateSubs2: "'aalt' +BBIEQQQ1 +BDAEOwRMBEIENQRABD0EMARCBDgEMgQ9BEsENQAA +BDIEMARABDgEMAQ9BEIESwAA lookup 1 subtable" two.taboldstyle
EndChar

StartChar: three.oldstyle
Encoding: 63283 63283 257
Width: 357
Flags: W
HStem: -125 96<37.2988 192.735> 139 100<66 105.342> 380 117<43.519 253.5>
VStem: 194 122<273.424 376.09> 205 130<-17.9747 118.976>
LayerCount: 2
Fore
SplineSet
26 -113 m 1xe8
 39 -22 l 1
 51 -26 87 -29 111 -29 c 0
 196 -29 205 -19 205 69 c 0xe8
 205 119 166 140 106 140 c 0
 92 140 76 140 66 139 c 1
 65 239 l 1
 92 241 l 2
 146 246 194 274 194 321 c 0
 194 375 187 380 145 380 c 0
 115 380 65 372 43 362 c 1
 25 468 l 1
 50 483 138 497 193 497 c 0
 314 497 316 479 316 358 c 0xf0
 316 246 286 222 231 209 c 5
 231 206 l 5
 303 192 335 166 335 68 c 0
 335 -114 312 -125 149 -125 c 0
 107 -125 45 -119 26 -113 c 1xe8
EndSplineSet
Validated: 1
Substitution2: "'tnum' Tabular Numbers lookup 17 subtable" three.taboldstyle
AlternateSubs2: "'aalt' +BBIEQQQ1 +BDAEOwRMBEIENQRABD0EMARCBDgEMgQ9BEsENQAA +BDIEMARABDgEMAQ9BEIESwAA lookup 1 subtable" three.taboldstyle
EndChar

StartChar: four.oldstyle
Encoding: 63284 63284 258
Width: 419
Flags: W
HStem: -118 21G<226 338> 471 20G<201.011 338>
VStem: 226 112<-118 13 133 333>
LayerCount: 2
Fore
SplineSet
396 9 m 5
 338 13 l 5
 338 -118 l 1
 226 -118 l 1
 226 19 l 5
 12 29 l 5
 12 127 l 1
 212 491 l 1
 338 481 l 1
 338 125 l 1
 403 120 l 1
 396 9 l 5
226 133 m 1
 229 333 l 1
 227 333 l 1
 122 144 l 1
 122 141 l 1
 226 133 l 1
EndSplineSet
Validated: 1
Substitution2: "'tnum' Tabular Numbers lookup 17 subtable" four.taboldstyle
AlternateSubs2: "'aalt' +BBIEQQQ1 +BDAEOwRMBEIENQRABD0EMARCBDgEMgQ9BEsENQAA +BDIEMARABDgEMAQ9BEIESwAA lookup 1 subtable" four.taboldstyle
EndChar

StartChar: five.oldstyle
Encoding: 63285 63285 259
Width: 361
Flags: W
HStem: -124 106<40.9079 192.1> 368 121<169 313>
VStem: 204 131<-7.40839 152.988>
LayerCount: 2
Fore
SplineSet
31 -112 m 1
 42 -12 l 1
 56 -15 104 -18 134 -18 c 0
 187 -18 204 -9 204 77 c 0
 204 162.069623317 200 171 36 171 c 5
 85 489 l 1
 313 489 l 1
 322 368 l 1
 169 368 l 1
 153 268 l 1
 253.193327192 256.657359186 335 262 335 88 c 0
 335 -112 305 -124 143 -124 c 0
 112 -124 47 -119 31 -112 c 1
EndSplineSet
Validated: 1
Substitution2: "'tnum' Tabular Numbers lookup 17 subtable" five.taboldstyle
AlternateSubs2: "'aalt' +BBIEQQQ1 +BDAEOwRMBEIENQRABD0EMARCBDgEMgQ9BEsENQAA +BDIEMARABDgEMAQ9BEIESwAA lookup 1 subtable" five.taboldstyle
EndChar

StartChar: six.oldstyle
Encoding: 63286 63286 260
Width: 432
Flags: W
HStem: -8 84<170.475 262.183> 298 102<171.043 321.834> 506 108<242.768 361.648>
VStem: 30 130<82.9374 356.996> 272 130<80.8893 285.563>
LayerCount: 2
Fore
SplineSet
361 614 m 1
 371 506 l 1
 216.073718811 491.245116077 176 478 170 377 c 1
 188 401 225 400 259 400 c 0
 383 400 402 393 402 209 c 0
 402 11 385 -8 217 -8 c 0
 43 -8 30 6 30 240 c 0
 30 536 147 602 361 614 c 1
218 76 m 4
 265 76 272 87 272 186 c 4
 272 261 270 298 213 298 c 4
 172.278320312 298 160 288 160 200 c 4
 160 78 170 76 218 76 c 4
EndSplineSet
Validated: 33
Substitution2: "'tnum' Tabular Numbers lookup 17 subtable" six.taboldstyle
AlternateSubs2: "'aalt' +BBIEQQQ1 +BDAEOwRMBEIENQRABD0EMARCBDgEMgQ9BEsENQAA +BDIEMARABDgEMAQ9BEIESwAA lookup 1 subtable" six.taboldstyle
EndChar

StartChar: seven.oldstyle
Encoding: 63287 63287 261
Width: 360
Flags: W
HStem: 377 112<27 211>
LayerCount: 2
Fore
SplineSet
338 489 m 5
 342 405 l 1
 330 340 203 18 126 -128 c 1
 5 -102 l 1
 78 30 183 269 211 375 c 1
 211 377 l 1
 17 377 l 1
 27 489 l 1
 338 489 l 5
EndSplineSet
Validated: 1
Substitution2: "'tnum' Tabular Numbers lookup 17 subtable" seven.taboldstyle
AlternateSubs2: "'aalt' +BBIEQQQ1 +BDAEOwRMBEIENQRABD0EMARCBDgEMgQ9BEsENQAA +BDIEMARABDgEMAQ9BEIESwAA lookup 1 subtable" seven.taboldstyle
EndChar

StartChar: eight.oldstyle
Encoding: 63288 63288 262
Width: 440
Flags: W
HStem: -8 77<167.64 275.113> 525 92<180.293 267.474>
VStem: 31 124<77.99 228.861> 48 121<388.749 517.804> 276 118<378.209 518.231> 285 124<76.1444 214.76>
LayerCount: 2
Fore
SplineSet
322 317 m 5xd8
 322 313 l 5
 377 281 409 258 409 162 c 4
 409 0 385 -8 218 -8 c 0
 54 -8 31 6 31 151 c 4xe4
 31 248 72 270 126 305 c 1
 126 308 l 1
 75 344 48 360 48 441 c 4
 48 604 65 617 229 617 c 0
 379 617 394 600 394 452 c 4
 394 362 375 350 322 317 c 5xd8
226 525 m 0
 188 526 169 514 169 449 c 0
 169 411 191 378 233 354 c 1
 257 376 276 404 276 449 c 0xd8
 276 524 251 524 226 525 c 0
221 69 m 0
 261 69 285 70 285 149 c 0
 285 202 251 237 209 261 c 1
 177 240 155 204 155 156 c 0xe4
 155 72 181 69 221 69 c 0
EndSplineSet
Validated: 33
Substitution2: "'tnum' Tabular Numbers lookup 17 subtable" eight.taboldstyle
AlternateSubs2: "'aalt' +BBIEQQQ1 +BDAEOwRMBEIENQRABD0EMARCBDgEMgQ9BEsENQAA +BDIEMARABDgEMAQ9BEIESwAA lookup 1 subtable" eight.taboldstyle
EndChar

StartChar: nine.oldstyle
Encoding: 63289 63289 263
Width: 432
Flags: W
HStem: -121 96<59 211.545> 93 86<104.185 260.218> 392 105<166.871 263.414>
VStem: 30 129<183.61 387.033>
LayerCount: 2
Fore
SplineSet
59 -121 m 1
 48 -25 l 1
 220 -17 250 -22 268 122 c 5
 252 99 213 93 171 93 c 0
 42 93 30 158 30 285 c 0
 30 474 50 497 217 497 c 0
 388 497 412 480 395 256 c 0
 372.600585938 -39.1513671875 366 -113 59 -121 c 1
220 179 m 0
 261.666988818 179 266 197 271 277 c 4
 278.062257881 389.9961261 260 392 213 392 c 0
 168 392 159 384 159 293 c 0
 159 179 166 179 220 179 c 0
EndSplineSet
Validated: 33
Substitution2: "'tnum' Tabular Numbers lookup 17 subtable" nine.taboldstyle
AlternateSubs2: "'aalt' +BBIEQQQ1 +BDAEOwRMBEIENQRABD0EMARCBDgEMgQ9BEsENQAA +BDIEMARABDgEMAQ9BEIESwAA lookup 1 subtable" nine.taboldstyle
EndChar

StartChar: percent.oldstyle
Encoding: 63042 63042 264
Width: 678
Flags: W
HStem: -6 70<503.499 557.38> 219 70<120.815 176.435> 323 69<504.654 557.803> 548 69<122.654 175.803>
VStem: 18 88<302.772 529.741> 190 88<300.23 538.02> 400 88<78.2018 304.741> 572 88<75.2415 313.028>
LayerCount: 2
Fore
SplineSet
150 617 m 0
 247 617 278 510 278 421 c 0
 278 283 215 219 149 219 c 0
 58 219 18 318 18 416 c 0
 18 521 65 617 150 617 c 0
149 548 m 0
 120 548 106 500 106 419 c 0
 105 335 118 289 149 289 c 0
 180 289 190 337 190 417 c 0
 190 494 181 548 149 548 c 0
208 -10 m 1
 140 -10 l 1
 469 619 l 1
 537 619 l 1
 208 -10 l 1
532 392 m 0
 629 392 660 285 660 196 c 0
 660 58 597 -6 532 -6 c 0
 440 -6 400 94 400 191 c 0
 400 296 447 392 532 392 c 0
531 323 m 0
 502 323 488 276 488 194 c 0
 487 110 501 64 532 64 c 0
 562 64 572 112 572 193 c 0
 572 269 563 323 531 323 c 0
EndSplineSet
Validated: 33
Substitution2: "'lnum' Lining Figures lookup 15 subtable" percent
Substitution2: "'aalt' +BBIEQQQ1 +BDAEOwRMBEIENQRABD0EMARCBDgEMgQ9BEsENQAA +BDIEMARABDgEMAQ9BEIESwAA lookup 0 subtable" percent
EndChar

StartChar: zero.fitted
Encoding: 63033 63033 265
Width: 426
Flags: W
HStem: -8 112<181.685 246.787> 546 112<185.604 245.477>
VStem: 23 132<150.883 495.48> 271 132<153.063 508.563>
LayerCount: 2
Fore
SplineSet
218 658 m 0
 368 658 403 483 403 328 c 0
 403 95 318 -8 213 -8 c 0
 71 -8 23 155 23 322 c 0
 23 509 83 658 218 658 c 0
216 546 m 0
 175 546 154 476 155 325 c 0
 153 173 172 104 216 104 c 0
 257 104 271 176 271 325 c 0
 271 464 258 546 216 546 c 0
EndSplineSet
Validated: 33
Substitution2: "'zero' Slashed Zero lookup 19 subtable" zero.slashfitted
Substitution2: "'tnum' Tabular Numbers lookup 17 subtable" zero
AlternateSubs2: "'aalt' +BBIEQQQ1 +BDAEOwRMBEIENQRABD0EMARCBDgEMgQ9BEsENQAA +BDIEMARABDgEMAQ9BEIESwAA lookup 1 subtable" zero zero.slashfitted
EndChar

StartChar: one.fitted
Encoding: 63196 63196 266
Width: 317
Flags: W
HStem: 0 21G<130 259> 630 20G<106.299 259>
VStem: 130 129<0 507>
LayerCount: 2
Fore
SplineSet
130 0 m 1
 130 507 l 1
 128 507 l 1
 38 460 l 5
 -4 573 l 1
 145 650 l 1
 259 650 l 1
 259 0 l 1
 130 0 l 1
EndSplineSet
Validated: 1
Substitution2: "'tnum' Tabular Numbers lookup 17 subtable" one
AlternateSubs2: "'aalt' +BBIEQQQ1 +BDAEOwRMBEIENQRABD0EMARCBDgEMgQ9BEsENQAA +BDIEMARABDgEMAQ9BEIESwAA lookup 1 subtable" one
EndChar

StartChar: two.fitted
Encoding: 63034 63034 267
Width: 376
Flags: W
HStem: 0 115<157 355> 549 109<56.9307 190.897>
VStem: 218 129<368.159 522.942>
LayerCount: 2
Fore
SplineSet
355 0 m 1
 0 0 l 1
 0 88 l 1
 65 171 l 2
 149 278 218 367 218 460 c 0
 218 512 188 549 135 549 c 0
 94 549 61 531 37 516 c 1
 14 618 l 1
 44 637 99 658 158 658 c 0
 300 658 347 563 347 470 c 0
 347 348 270 250 196 163 c 2
 157 117 l 1
 157 115 l 1
 355 115 l 1
 355 0 l 1
EndSplineSet
Validated: 1
Substitution2: "'tnum' Tabular Numbers lookup 17 subtable" two
AlternateSubs2: "'aalt' +BBIEQQQ1 +BDAEOwRMBEIENQRABD0EMARCBDgEMgQ9BEsENQAA +BDIEMARABDgEMAQ9BEIESwAA lookup 1 subtable" two
EndChar

StartChar: three.fitted
Encoding: 63035 63035 268
Width: 361
Flags: W
HStem: -8 107<14.9363 178.588> 296 96<69 158.959> 551 107<41.2982 171.679>
VStem: 192 130<423.484 531.351> 209 131<131.69 257.533>
LayerCount: 2
Fore
SplineSet
-5 21 m 1xe8
 14 124 l 1
 39 109 76 99 110 99 c 0
 174 99 209 138 209 193 c 0xe8
 209 265 153 296 87 296 c 2
 69 296 l 1
 69 392 l 1
 82 392 l 2
 130 393 192 413 192 476 c 0
 192 523 162 551 116 551 c 0
 87 551 58 540 34 525 c 1
 17 624 l 1
 44 641 97 658 150 658 c 0
 265 658 322 584 322 501 c 0xf0
 322 436 286 382 229 355 c 1
 229 353 l 1
 292 332 340 276 340 188 c 0
 340 89 264 -8 123 -8 c 0
 70 -8 24 5 -5 21 c 1xe8
EndSplineSet
Validated: 1
Substitution2: "'tnum' Tabular Numbers lookup 17 subtable" three
AlternateSubs2: "'aalt' +BBIEQQQ1 +BDAEOwRMBEIENQRABD0EMARCBDgEMgQ9BEsENQAA +BDIEMARABDgEMAQ9BEIESwAA lookup 1 subtable" three
EndChar

StartChar: four.fitted
Encoding: 63036 63036 269
Width: 418
Flags: W
HStem: 0 21G<229 345> 155 105<117 229 345 409> 630 20G<207.531 345>
VStem: 229 116<0 155 260 498.403>
LayerCount: 2
Fore
SplineSet
345 0 m 1
 229 0 l 1
 229 155 l 1
 6 155 l 1
 6 245 l 1
 218 650 l 1
 345 650 l 1
 345 260 l 1
 409 260 l 1
 409 155 l 1
 345 155 l 1
 345 0 l 1
117 260 m 1
 229 260 l 1
 229 393 l 2
 229 428 232 466 235 500 c 1
 232 500 l 1
 217 464 204 435 186 399 c 2
 117 262 l 1
 117 260 l 1
EndSplineSet
Validated: 1
Substitution2: "'tnum' Tabular Numbers lookup 17 subtable" four
AlternateSubs2: "'aalt' +BBIEQQQ1 +BDAEOwRMBEIENQRABD0EMARCBDgEMgQ9BEsENQAA +BDIEMARABDgEMAQ9BEIESwAA lookup 1 subtable" four
EndChar

StartChar: five.fitted
Encoding: 63037 63037 270
Width: 373
Flags: W
HStem: -8 107<18.2699 180.476> 536 114<165 338>
VStem: 220 129<137.733 280.612>
LayerCount: 2
Fore
SplineSet
338 650 m 1
 338 536 l 1
 165 536 l 1
 150 420 l 1
 157 420 163 420 170 420 c 0
 198 419 255 406 293 371 c 0
 329 336 349 287 349 222 c 0
 349 95 265 -8 123 -8 c 0
 76 -8 27 4 1 18 c 1
 21 122 l 1
 45 110 78 99 113 99 c 0
 178 99 220 140 220 210 c 0
 220 297 154 326 79 326 c 0
 61 326 46 326 32 324 c 1
 69 650 l 1
 338 650 l 1
EndSplineSet
Validated: 1
Substitution2: "'tnum' Tabular Numbers lookup 17 subtable" five
AlternateSubs2: "'aalt' +BBIEQQQ1 +BDAEOwRMBEIENQRABD0EMARCBDgEMgQ9BEsENQAA +BDIEMARABDgEMAQ9BEIESwAA lookup 1 subtable" five
EndChar

StartChar: six.fitted
Encoding: 63038 63038 271
Width: 426
Flags: W
HStem: -8 95<182.791 255.233> 552 106<260.511 355>
VStem: 23 133<126.313 311.255> 277 129<108.115 306.496>
LayerCount: 2
Fore
SplineSet
355 658 m 1
 355 552 l 1
 339 551 321 549 301 545 c 0
 215 526 172 454 156 372 c 1
 159 372 l 1
 182 403 216 424 259 424 c 0
 347 424 406 345 406 222 c 0
 406 108 348 -8 221 -8 c 0
 98 -8 23 99 23 260 c 0
 23 402 70 499 130 563 c 0
 172 610 235 641 289 651 c 0
 320 657 341 657 355 658 c 1
219 87 m 0
 263 87 277 145 277 223 c 0
 276 278 258 330 216 330 c 0
 195 330 175 316 163 286 c 0
 159 279 156 259 156 229 c 0
 156 144 180 87 219 87 c 0
EndSplineSet
Validated: 1
Substitution2: "'tnum' Tabular Numbers lookup 17 subtable" six
AlternateSubs2: "'aalt' +BBIEQQQ1 +BDAEOwRMBEIENQRABD0EMARCBDgEMgQ9BEsENQAA +BDIEMARABDgEMAQ9BEIESwAA lookup 1 subtable" six
EndChar

StartChar: seven.fitted
Encoding: 63039 63039 272
Width: 352
Flags: W
HStem: 0 21G<22 157.234> 535 115<0 221>
LayerCount: 2
Fore
SplineSet
0 650 m 1
 354 650 l 1
 354 564 l 1
 150 0 l 1
 22 0 l 1
 221 533 l 1
 221 535 l 1
 0 535 l 1
 0 650 l 1
EndSplineSet
Validated: 1
Substitution2: "'tnum' Tabular Numbers lookup 17 subtable" seven
AlternateSubs2: "'aalt' +BBIEQQQ1 +BDAEOwRMBEIENQRABD0EMARCBDgEMgQ9BEsENQAA +BDIEMARABDgEMAQ9BEIESwAA lookup 1 subtable" seven
EndChar

StartChar: eight.fitted
Encoding: 63040 63040 273
Width: 426
Flags: W
HStem: -8 88<172.952 255.736> 570 88<176.548 253.514>
VStem: 20 127<104.526 259.25> 38 123<428.3 555.008> 270 120<418.253 556.877> 278 127<100.968 248.92>
LayerCount: 2
Fore
SplineSet
210 -8 m 0xc4
 99 -8 20 63 20 169 c 0xe4
 20 250 65 308 118 342 c 1
 118 344 l 1
 63 380 38 436 38 487 c 0
 38 593 122 658 222 658 c 0
 315 658 390 595 390 498 c 0xd8
 390 455 373 397 305 354 c 1
 305 352 l 1
 365 319 405 259 405 182 c 0
 405 62 317 -8 210 -8 c 0xc4
215 80 m 0
 256 80 278 122 278 177 c 0
 278 238 240 278 203 297 c 1
 170 274 147 234 147 184 c 0
 147 128 170 80 215 80 c 0
217 570 m 0
 179 570 161 531 161 491 c 0
 161 445 187 413 225 393 c 1
 253 408 270 448 270 486 c 0xd8
 270 530 255 570 217 570 c 0
EndSplineSet
Validated: 1
Substitution2: "'tnum' Tabular Numbers lookup 17 subtable" eight
AlternateSubs2: "'aalt' +BBIEQQQ1 +BDAEOwRMBEIENQRABD0EMARCBDgEMgQ9BEsENQAA +BDIEMARABDgEMAQ9BEIESwAA lookup 1 subtable" eight
EndChar

StartChar: nine.fitted
Encoding: 63041 63041 274
Width: 426
Flags: W
HStem: -8 109<74 178.166> 236 90<134.61 249.271> 563 95<177.085 245.75>
VStem: 24 129<350.686 537.165> 270 132<352.474 530.265>
LayerCount: 2
Fore
SplineSet
74 -8 m 1
 74 101 l 1
 99 101 112 102 134 106 c 0
 159 111 188 124 210 145 c 0
 238 172 262 218 273 276 c 1
 270 276 l 1
 249 253 219 236 177 236 c 0
 93 236 24 311 24 430 c 0
 24 542 93 658 218 658 c 0
 339 658 402 548 402 391 c 0
 402 244 355 141 295 77 c 0
 255 34 198 5 135 -5 c 0
 114 -8 94 -8 74 -8 c 1
211 563 m 0
 177 563 152 520 153 441 c 0
 154 378 174 326 214 326 c 0
 237 326 257 343 264 360 c 0
 269 373 270 386 270 429 c 0
 270 515 246 563 211 563 c 0
EndSplineSet
Validated: 33
Substitution2: "'tnum' Tabular Numbers lookup 17 subtable" nine
AlternateSubs2: "'aalt' +BBIEQQQ1 +BDAEOwRMBEIENQRABD0EMARCBDgEMgQ9BEsENQAA +BDIEMARABDgEMAQ9BEIESwAA lookup 1 subtable" nine
EndChar

StartChar: zero.slashfitted
Encoding: 57352 57352 275
Width: 426
Flags: W
HStem: -8 112<175.079 247.065> 546 112<180.864 247.813>
VStem: 23 124<250.268 496.172> 279 124<153.063 403.01>
LayerCount: 2
Fore
SplineSet
152 247 m 1
 261 501 l 1
 253 528 238 546 215 546 c 0
 171 546 147 476 147 325 c 0
 147 299 149 275 152 247 c 1
274 406 m 1
 165 145 l 1
 174 121 189 104 212 104 c 0
 257 104 279 176 279 325 c 0
 279 352 278 377 274 406 c 1
218 658 m 0
 368 658 403 483 403 328 c 0
 403 95 318 -8 213 -8 c 0
 71 -8 23 155 23 322 c 0
 23 509 83 658 218 658 c 0
EndSplineSet
Validated: 1
AlternateSubs2: "'aalt' +BBIEQQQ1 +BDAEOwRMBEIENQRABD0EMARCBDgEMgQ9BEsENQAA +BDIEMARABDgEMAQ9BEIESwAA lookup 1 subtable" zero.fitted zero.oldstyle zero.taboldstyle zero.superior zero.inferior zero.numerator zero.denominator
EndChar

StartChar: zero.taboldstyle
Encoding: 63043 63043 276
Width: 431
Flags: W
HStem: -8 100<177.129 253.651> 397 100<176.287 254.065>
VStem: 29 122<121.354 368.048> 280 122<121.354 368.048>
LayerCount: 2
Fore
SplineSet
215 -8 m 0
 124 -8 29 63 29 245 c 0
 29 426 124 497 215 497 c 0
 307 497 402 426 402 245 c 0
 402 63 307 -8 215 -8 c 0
215 92 m 0
 256 92 280 139 280 245 c 0
 280 351 255 397 215 397 c 0
 175 397 151 351 151 245 c 0
 151 139 176 92 215 92 c 0
EndSplineSet
Validated: 1
Substitution2: "'pnum' Proportional Numbers lookup 16 subtable" zero.oldstyle
Substitution2: "'lnum' Lining Figures lookup 15 subtable" zero
AlternateSubs2: "'aalt' +BBIEQQQ1 +BDAEOwRMBEIENQRABD0EMARCBDgEMgQ9BEsENQAA +BDIEMARABDgEMAQ9BEIESwAA lookup 1 subtable" zero zero.oldstyle
EndChar

StartChar: one.taboldstyle
Encoding: 63044 63044 277
Width: 431
Flags: W
HStem: 0 21G<193 323> 473 20G<171.579 323>
VStem: 193 130<0 379>
LayerCount: 2
Fore
SplineSet
323 0 m 1
 193 0 l 1
 193 379 l 1
 191 379 l 1
 55 319 l 1
 36 417 l 1
 220 493 l 1
 323 493 l 1
 323 0 l 1
EndSplineSet
Validated: 1
Substitution2: "'pnum' Proportional Numbers lookup 16 subtable" one.oldstyle
Substitution2: "'lnum' Lining Figures lookup 15 subtable" one
AlternateSubs2: "'aalt' +BBIEQQQ1 +BDAEOwRMBEIENQRABD0EMARCBDgEMgQ9BEsENQAA +BDIEMARABDgEMAQ9BEIESwAA lookup 1 subtable" one one.oldstyle
EndChar

StartChar: two.taboldstyle
Encoding: 63045 63045 278
Width: 431
Flags: W
HStem: 0 108<209.092 375> 391 106<91.2312 210.367>
VStem: 229 123<249.123 372.477>
LayerCount: 2
Fore
SplineSet
375 0 m 1
 50 0 l 1
 50 76 l 1
 95 118 l 2
 165 185 229 252 229 317 c 0
 229 366 200 391 154 391 c 0
 126 391 99 380 78 367 c 1
 48 453 l 1
 82 475 137 497 197 497 c 0
 288 497 352 438 352 341 c 0
 352 253 302 193 234 131 c 1
 208 105 l 1
 208 103 l 1
 231 105 273 108 296 108 c 2
 375 108 l 1
 375 0 l 1
EndSplineSet
Validated: 1
Substitution2: "'pnum' Proportional Numbers lookup 16 subtable" two.oldstyle
Substitution2: "'lnum' Lining Figures lookup 15 subtable" two
AlternateSubs2: "'aalt' +BBIEQQQ1 +BDAEOwRMBEIENQRABD0EMARCBDgEMgQ9BEsENQAA +BDIEMARABDgEMAQ9BEIESwAA lookup 1 subtable" two two.oldstyle
EndChar

StartChar: three.taboldstyle
Encoding: 63046 63046 279
Width: 431
Flags: W
HStem: -125 106<62.7098 203.702> 149 100<101 140.388> 390 107<77.4193 215.469>
VStem: 229 122<282.88 376.733> 240 130<14.5412 122.597>
LayerCount: 2
Fore
SplineSet
51 -113 m 1xe8
 64 -12 l 1
 76 -16 102 -19 126 -19 c 0
 194 -19 240 16 240 69 c 0xe8
 240 119 201 150 141 150 c 0
 128 150 111 150 101 149 c 1
 100 249 l 1
 128 251 l 2
 182 256 229 284 229 331 c 0
 229 370 202 390 161 390 c 0
 130 390 100 382 79 372 c 1
 60 468 l 1
 85 483 133 497 188 497 c 0
 285 497 351 439 351 358 c 0xf0
 351 284 302 232 246 219 c 1
 246 216 l 1
 318 202 370 147 370 68 c 0
 370 -54 260 -125 144 -125 c 0
 102 -125 70 -119 51 -113 c 1xe8
EndSplineSet
Validated: 1
Substitution2: "'pnum' Proportional Numbers lookup 16 subtable" three.oldstyle
Substitution2: "'lnum' Lining Figures lookup 15 subtable" three
AlternateSubs2: "'aalt' +BBIEQQQ1 +BDAEOwRMBEIENQRABD0EMARCBDgEMgQ9BEsENQAA +BDIEMARABDgEMAQ9BEIESwAA lookup 1 subtable" three three.oldstyle
EndChar

StartChar: four.taboldstyle
Encoding: 63047 63047 280
Width: 431
Flags: W
HStem: -118 21G<232 344> 39 102<128 232 344 409> 471 20G<207.011 344>
VStem: 232 112<-118 39 141 361.455>
LayerCount: 2
Fore
SplineSet
409 39 m 1
 344 39 l 1
 344 -118 l 1
 232 -118 l 1
 232 39 l 1
 18 39 l 1
 18 127 l 1
 218 491 l 1
 344 491 l 1
 344 141 l 1
 409 141 l 1
 409 39 l 1
232 141 m 1
 232 269 l 2
 232 300 232 330 236 363 c 1
 233 363 l 1
 224 334 205 290 190 261 c 2
 128 144 l 1
 128 141 l 1
 232 141 l 1
EndSplineSet
Validated: 1
Substitution2: "'pnum' Proportional Numbers lookup 16 subtable" four.oldstyle
Substitution2: "'lnum' Lining Figures lookup 15 subtable" four
AlternateSubs2: "'aalt' +BBIEQQQ1 +BDAEOwRMBEIENQRABD0EMARCBDgEMgQ9BEsENQAA +BDIEMARABDgEMAQ9BEIESwAA lookup 1 subtable" four four.oldstyle
EndChar

StartChar: five.taboldstyle
Encoding: 63048 63048 281
Width: 431
Flags: W
HStem: -124 106<61.9312 194.245> 378 111<202 349>
VStem: 235 131<19.6747 140.274>
LayerCount: 2
Fore
SplineSet
51 -112 m 1
 63 -12 l 1
 77 -15 95 -18 125 -18 c 0
 178 -18 235 13 235 77 c 0
 235 104 227 129 209 145 c 0
 182 171 126 182 67 181 c 1
 116 489 l 1
 364 489 l 1
 349 378 l 1
 202 378 l 1
 183 268 l 1
 237 262 287 242 321 209 c 0
 350 180 366 140 366 88 c 0
 366 -41 264 -124 134 -124 c 0
 103 -124 68 -119 51 -112 c 1
EndSplineSet
Validated: 33
Substitution2: "'pnum' Proportional Numbers lookup 16 subtable" five.oldstyle
Substitution2: "'lnum' Lining Figures lookup 15 subtable" five
AlternateSubs2: "'aalt' +BBIEQQQ1 +BDAEOwRMBEIENQRABD0EMARCBDgEMgQ9BEsENQAA +BDIEMARABDgEMAQ9BEIESwAA lookup 1 subtable" five five.oldstyle
EndChar

StartChar: six.taboldstyle
Encoding: 63049 63049 282
Width: 431
Flags: W
HStem: -8 94<183.587 253.802> 308 92<194.416 296.5> 516 98<285.666 361.786>
VStem: 31 130<108.849 333.331> 273 130<103.286 287.83>
LayerCount: 2
Fore
SplineSet
361 614 m 1
 372 516 l 1
 245 504 188 434 172 358 c 1
 174 358 l 1
 191 382 226 400 260 400 c 0
 333 400 403 335 403 209 c 0
 403 75 316 -8 217 -8 c 0
 119 -8 31 63 31 240 c 0
 31 438 148 602 361 614 c 1
219 86 m 0
 246 86 273 113 273 196 c 0
 273 271 248 308 214 308 c 0
 199 308 187 299 177 287 c 0
 167 274 161 247 161 210 c 0
 161 113 189 86 219 86 c 0
EndSplineSet
Validated: 1
Substitution2: "'pnum' Proportional Numbers lookup 16 subtable" six.oldstyle
Substitution2: "'lnum' Lining Figures lookup 15 subtable" six
AlternateSubs2: "'aalt' +BBIEQQQ1 +BDAEOwRMBEIENQRABD0EMARCBDgEMgQ9BEsENQAA +BDIEMARABDgEMAQ9BEIESwAA lookup 1 subtable" six six.oldstyle
EndChar

StartChar: seven.taboldstyle
Encoding: 63050 63050 283
Width: 431
Flags: W
HStem: -118 21G<43 202> 377 112<54 249>
LayerCount: 2
Fore
SplineSet
380 489 m 1
 380 415 l 1
 367 350 240 28 164 -118 c 1
 43 -102 l 1
 116 30 221 269 249 375 c 1
 249 377 l 1
 54 377 l 1
 54 489 l 1
 380 489 l 1
EndSplineSet
Validated: 1
Substitution2: "'pnum' Proportional Numbers lookup 16 subtable" seven.oldstyle
Substitution2: "'lnum' Lining Figures lookup 15 subtable" seven
AlternateSubs2: "'aalt' +BBIEQQQ1 +BDAEOwRMBEIENQRABD0EMARCBDgEMgQ9BEsENQAA +BDIEMARABDgEMAQ9BEIESwAA lookup 1 subtable" seven seven.oldstyle
EndChar

StartChar: eight.taboldstyle
Encoding: 63051 63051 284
Width: 431
Flags: W
HStem: -8 87<171.421 258.497> 535 82<178.087 254.451>
VStem: 25 124<102.705 238.882> 42 120<399.853 518.971> 270 117<388.67 522.341> 278 124<97.8767 223.991>
LayerCount: 2
Fore
SplineSet
306 327 m 1xd8
 306 323 l 1
 360 291 402 243 402 172 c 0
 402 55 311 -8 211 -8 c 0
 102 -8 25 60 25 161 c 0xe4
 25 229 66 280 119 315 c 1
 119 318 l 1
 68 354 42 401 42 451 c 0
 42 556 124 617 223 617 c 0
 308 617 387 565 387 462 c 0
 387 404 359 360 306 327 c 1xd8
219 535 m 0
 182 536 162 498 162 459 c 0
 162 421 184 388 227 364 c 1
 251 386 270 414 270 459 c 0xd8
 270 511 244 534 219 535 c 0
215 79 m 0
 254 79 278 114 278 159 c 0
 278 212 244 247 202 271 c 1
 171 250 149 214 149 166 c 0xe4
 149 122 174 79 215 79 c 0
EndSplineSet
Validated: 33
Substitution2: "'pnum' Proportional Numbers lookup 16 subtable" eight.oldstyle
Substitution2: "'lnum' Lining Figures lookup 15 subtable" eight
AlternateSubs2: "'aalt' +BBIEQQQ1 +BDAEOwRMBEIENQRABD0EMARCBDgEMgQ9BEsENQAA +BDIEMARABDgEMAQ9BEIESwAA lookup 1 subtable" eight eight.oldstyle
EndChar

StartChar: nine.taboldstyle
Encoding: 63052 63052 285
Width: 431
Flags: W
HStem: -121 96<59 135.668> 93 86<137.5 241.749> 402 95<178.355 248.565>
VStem: 30 128<201.409 383.887> 271 129<198.418 378.571>
LayerCount: 2
Fore
SplineSet
59 -121 m 1
 48 -25 l 1
 180 -12 241 49 260 131 c 1
 258 132 l 1
 242 109 213 93 171 93 c 0
 104 93 30 158 30 285 c 0
 30 416 116 497 217 497 c 0
 314 497 400 416 400 256 c 0
 400 37 275 -114 59 -121 c 1
220 179 m 0
 234 179 246 188 255 200 c 0
 264 212 271 239 271 277 c 0
 271 365 245 402 213 402 c 0
 187 402 158 377 158 293 c 0
 158 214 186 179 220 179 c 0
EndSplineSet
Validated: 1
Substitution2: "'pnum' Proportional Numbers lookup 16 subtable" nine.oldstyle
Substitution2: "'lnum' Lining Figures lookup 15 subtable" nine
AlternateSubs2: "'aalt' +BBIEQQQ1 +BDAEOwRMBEIENQRABD0EMARCBDgEMgQ9BEsENQAA +BDIEMARABDgEMAQ9BEIESwAA lookup 1 subtable" nine nine.oldstyle
EndChar

StartChar: dollar.taboldstyle
Encoding: 63059 63059 286
Width: 431
Flags: W
HStem: 4 94<83.9089 164> 394 95<262 331.964>
VStem: 58 122<321.438 384.187> 164 84<-70 4> 178 84<489 565> 254 122<108.241 180.18>
LayerCount: 2
Fore
SplineSet
248 -70 m 1xd4
 164 -70 l 1
 164 4 l 1xd4
 121 6 82 17 56 30 c 1
 76 123 l 1
 104 109 151 98 182 98 c 0
 227 98 254 114 254 142 c 0
 254 167 236 184 173 213 c 0
 91 252 58 290 58 352 c 0xe4
 58 410 102 461 178 481 c 1
 178 565 l 1
 262 565 l 1
 262 489 l 1xc8
 305 488 333 478 358 467 c 1
 333 375 l 1
 311 386 282 394 249 394 c 0
 204 394 180 377 180 355 c 0xe0
 180 333 193 320 265 290 c 0
 339 258 376 211 376 150 c 0
 376 77 324 26 248 10 c 1
 248 -70 l 1xd4
EndSplineSet
Validated: 1
Substitution2: "'lnum' Lining Figures lookup 15 subtable" dollar
AlternateSubs2: "'aalt' +BBIEQQQ1 +BDAEOwRMBEIENQRABD0EMARCBDgEMgQ9BEsENQAA +BDIEMARABDgEMAQ9BEIESwAA lookup 1 subtable" dollar
EndChar

StartChar: cent.taboldstyle
Encoding: 63060 63060 287
Width: 431
Flags: W
HStem: 53 89<273 331.015> 376 156<201.61 271.814>
VStem: 51 118<178.194 339.856> 197 76<-14 53 465.43 532>
LayerCount: 2
Fore
SplineSet
332 155 m 1
 342 66 l 1
 328 60 303 54 273 53 c 1
 273 -14 l 1
 197 -14 l 1
 197 56 l 1
 99 76 51 158 51 257 c 0
 51 364 111 440 197 462 c 1
 197 532 l 1
 273 532 l 1
 273 468 l 1
 299 466 322 460 337 453 c 1
 322 363 l 1
 306 370 284 376 255 376 c 0
 203 376 169 331 169 257 c 0
 169 184 207 142 260 142 c 0
 289 142 311 147 332 155 c 1
EndSplineSet
Validated: 1
Substitution2: "'lnum' Lining Figures lookup 15 subtable" cent
AlternateSubs2: "'aalt' +BBIEQQQ1 +BDAEOwRMBEIENQRABD0EMARCBDgEMgQ9BEsENQAA +BDIEMARABDgEMAQ9BEIESwAA lookup 1 subtable" cent
EndChar

StartChar: Euro.taboldstyle
Encoding: 63054 63054 288
Width: 431
Flags: W
HStem: -8 108<229.396 386.563> 168 62<42 75 206 354> 277 72<32 75 206 344> 430 108<233.451 379.418>
VStem: 74 131<230 277>
LayerCount: 2
Fore
SplineSet
385 114 m 1
 398 11 l 1
 379 2 315 -8 276 -8 c 0
 157.7265625 -8 114 9 81 168 c 5
 42 168 l 5
 42 230 l 5
 75 230 l 5
 74 240 74 246 74 250 c 4
 74 257 74 266 75 277 c 5
 32 277 l 5
 32 349 l 5
 83 349 l 5
 116 513 160.34765625 538 281 538 c 0
 316 538 376 531 396 523 c 1
 377 421 l 1
 364 425 313 430 290 430 c 0
 237.615234375 430 213.512695312 397.83203125 206 349 c 5
 344 349 l 5
 344 277 l 5
 206 277 l 5
 205 267 205 258 205 251 c 4
 205 246 205 240 206 230 c 5
 354 230 l 5
 354 168 l 5
 206 168 l 5
 218.348632812 120.6640625 240.376953125 100 294 100 c 0
 316 100 369 106 385 114 c 1
EndSplineSet
Validated: 1
Substitution2: "'lnum' Lining Figures lookup 15 subtable" Euro
Substitution2: "'aalt' +BBIEQQQ1 +BDAEOwRMBEIENQRABD0EMARCBDgEMgQ9BEsENQAA +BDIEMARABDgEMAQ9BEIESwAA lookup 0 subtable" Euro
EndChar

StartChar: florin.taboldstyle
Encoding: 63055 63055 289
Width: 431
Flags: W
HStem: -126 102<25.588 104.384> 250 101<80 145 276 367> 514 103<310.619 395.969>
LayerCount: 2
Fore
SplineSet
80 250 m 1
 80 351 l 1
 152 351 l 1
 157 408 l 2
 166 526 229 617 349 617 c 0
 374 617 396 612 411 605 c 1
 394 508 l 1
 382 512 370 514 356 514 c 0
 309 514 288 470 282 409 c 2
 276 351 l 1
 367 351 l 1
 367 250 l 1
 269 250 l 1
 252 71 l 2
 242 -35 205 -126 81 -126 c 0
 54 -126 26 -120 9 -111 c 1
 28 -16 l 1
 40 -21 55 -24 66 -24 c 0
 94 -24 120 -5 128 75 c 2
 145 250 l 1
 80 250 l 1
EndSplineSet
Validated: 1
Substitution2: "'lnum' Lining Figures lookup 15 subtable" florin
Substitution2: "'aalt' +BBIEQQQ1 +BDAEOwRMBEIENQRABD0EMARCBDgEMgQ9BEsENQAA +BDIEMARABDgEMAQ9BEIESwAA lookup 0 subtable" florin
EndChar

StartChar: sterling.taboldstyle
Encoding: 63057 63057 290
Width: 431
Flags: W
HStem: 0 108<193 386> 0 79<39 75.6308> 224 75<45 102 239 338> 441 110<238.646 346.759>
VStem: 95 125<299.939 422.468> 121 120<136.717 223.531>
LayerCount: 2
Fore
SplineSet
386 0 m 1xb4
 39 0 l 1
 39 79 l 1
 91 101 121 141 121 186 c 0x74
 121 198 120 212 118 224 c 1
 45 224 l 1
 45 299 l 1
 102 299 l 1
 98 319 95 340 95 361 c 0
 95 465 164 551 281 551 c 0
 322 551 347 542 363 534 c 1
 344 428 l 1
 330 435 313 441 288 441 c 0
 245 441 220 411 220 360 c 0x78
 220 341 223 319 227 299 c 1
 338 299 l 1
 338 224 l 1
 239 224 l 1
 240 216 241 210 241 204 c 0
 241 159 217 128 193 110 c 1
 193 108 l 1
 386 108 l 1
 386 0 l 1xb4
EndSplineSet
Validated: 1
Substitution2: "'lnum' Lining Figures lookup 15 subtable" sterling
Substitution2: "'aalt' +BBIEQQQ1 +BDAEOwRMBEIENQRABD0EMARCBDgEMgQ9BEsENQAA +BDIEMARABDgEMAQ9BEIESwAA lookup 0 subtable" sterling
EndChar

StartChar: yen.taboldstyle
Encoding: 63058 63058 291
Width: 431
Flags: W
HStem: 0 21G<155 275> 108 67<36 155 275 394> 221 66<36 127 303 394>
VStem: 155 120<0 108 175 221>
LayerCount: 2
Fore
SplineSet
275 0 m 1
 155 0 l 1
 155 108 l 1
 36 108 l 1
 36 175 l 1
 155 175 l 1
 155 221 l 1
 36 221 l 1
 36 287 l 1
 127 287 l 1
 13 530 l 1
 144 530 l 1
 191 396 l 2
 204 360 213 328 219 301 c 1
 221 301 l 1
 228 329 236 361 249 398 c 2
 295 530 l 1
 418 530 l 1
 303 287 l 1
 394 287 l 1
 394 221 l 1
 275 221 l 1
 275 175 l 1
 394 175 l 1
 394 108 l 1
 275 108 l 1
 275 0 l 1
EndSplineSet
Validated: 1
Substitution2: "'lnum' Lining Figures lookup 15 subtable" yen
Substitution2: "'aalt' +BBIEQQQ1 +BDAEOwRMBEIENQRABD0EMARCBDgEMgQ9BEsENQAA +BDIEMARABDgEMAQ9BEIESwAA lookup 0 subtable" yen
EndChar

StartChar: numbersign.taboldstyle
Encoding: 63056 63056 292
Width: 431
Flags: W
HStem: 147 75<15 87 171 233 317 391> 337 75<37 111 195 257 340 411>
LayerCount: 2
Fore
SplineSet
171 222 m 1
 242 222 l 1
 257 337 l 1
 185 337 l 1
 171 222 l 1
139 -32 m 1
 64 -32 l 1
 87 147 l 1
 15 147 l 1
 15 222 l 1
 97 222 l 1
 111 337 l 1
 37 337 l 1
 37 412 l 1
 121 412 l 1
 143 586 l 1
 217 586 l 1
 195 412 l 1
 267 412 l 1
 289 586 l 1
 363 586 l 1
 340 412 l 1
 411 412 l 1
 411 337 l 1
 331 337 l 1
 317 222 l 1
 391 222 l 1
 391 147 l 1
 307 147 l 1
 285 -32 l 1
 210 -32 l 1
 233 147 l 1
 161 147 l 1
 139 -32 l 1
EndSplineSet
Validated: 1
Substitution2: "'lnum' Lining Figures lookup 15 subtable" numbersign
Substitution2: "'aalt' +BBIEQQQ1 +BDAEOwRMBEIENQRABD0EMARCBDgEMgQ9BEsENQAA +BDIEMARABDgEMAQ9BEIESwAA lookup 0 subtable" numbersign
EndChar

StartChar: zero.superior
Encoding: 8304 8304 293
Width: 291
Flags: W
HStem: 412 77<122.9 170.43> 735 77<122.92 170.96>
VStem: 16 93<496.202 725.925> 182 93<494.592 729.452>
LayerCount: 2
Fore
SplineSet
146 412 m 0
 48 412 16 513 16 610 c 0
 16 718 55 812 148 812 c 0
 251 812 275 704 275 614 c 0
 275 480 222 412 146 412 c 0
147 489 m 0
 170 489 182 522 182 612 c 0
 182 696 172 735 148 735 c 0
 125 735 109 701 109 612 c 0
 109 522 123 489 147 489 c 0
EndSplineSet
Validated: 1
EndChar

StartChar: one.superior
Encoding: 65539 -1 294
Width: 239
Flags: W
HStem: 413 21G<88 182.514>
VStem: 88 94<417 624.9> 98 94<529.7 714>
LayerCount: 2
Fore
SplineSet
182 413 m 1xc0
 88 417 l 1xc0
 98 714 l 1
 96 714 l 1
 46 691 l 1
 8 760 l 1
 108 807 l 1
 192 802 l 5xa0
 182 413 l 1xc0
EndSplineSet
Validated: 1
EndChar

StartChar: two.superior
Encoding: 65540 -1 295
Width: 274
Flags: W
HStem: 417 80<125 241> 723 89<28.3305 191.015>
VStem: 146 101<621.208 721.705>
LayerCount: 2
Fore
SplineSet
18 417 m 1
 8 480 l 1
 53 530 l 2
 106.552486188 589.502762431 146 625 146 670 c 0
 146 715 145 723 116 723 c 0
 92 723 52 717 32 710 c 1
 13 789 l 1
 38 800 93 812 141 812 c 0
 237 812 247 781 247 699 c 0
 247 626 191 571 142 519 c 2
 125 500 l 1
 125 497 l 1
 251 497 l 1
 241 417 l 5
 18 417 l 1
EndSplineSet
Validated: 1
EndChar

StartChar: three.superior
Encoding: 65541 -1 296
Width: 260
Flags: W
HStem: 412 61<27.176 140.67> 421 59<28.339 95.7344> 583 62<59 130.631> 731 81<32.1416 180.807>
VStem: 140 92<657.273 728.931> 145 98<476.464 573.539>
LayerCount: 2
Fore
SplineSet
35 713 m 5xb8
 21 789 l 5
 45 798 98 812 135 812 c 0
 223 812 232 796 232 717 c 0xb8
 232 673 207 633 167 616 c 1
 167 614 l 1
 209 606 243 579 243 533 c 0
 243 423 226 412 111 412 c 0xb4
 74 412 34 416 16 421 c 5
 30 480 l 5x74
 43 476 70 473 97 473 c 0
 130 473 145 474 145 536 c 0xb4
 145 573 113 583 71 583 c 2
 59 583 l 1
 59 645 l 1
 67 645 l 2
 99 645 140 657 140 690 c 0
 140 726 131 731 104 731 c 0
 81 731 52 721 35 713 c 5xb8
EndSplineSet
Validated: 1
EndChar

StartChar: four.superior
Encoding: 8308 8308 297
Width: 301
Flags: W
HStem: 417 21G<158 243> 506 69<88 158 243 285>
VStem: 158 85<417 506 575 711.199>
LayerCount: 2
Fore
SplineSet
243 417 m 1
 158 417 l 1
 158 506 l 1
 10 506 l 1
 10 566 l 1
 151 808 l 1
 243 808 l 1
 243 575 l 1
 285 575 l 1
 285 506 l 1
 243 506 l 1
 243 417 l 1
158 575 m 1
 158 646 l 2
 158 672 160 695 161 712 c 1
 159 712 l 1
 150 693 145 678 134 660 c 2
 88 577 l 1
 88 575 l 1
 158 575 l 1
EndSplineSet
Validated: 1
EndChar

StartChar: five.superior
Encoding: 8309 8309 298
Width: 275
Flags: W
HStem: 412 75<26.9482 147.825> 606 64<118 142.405> 728 79<124 241>
VStem: 159 93<499.461 589.041>
LayerCount: 2
Fore
SplineSet
241 807 m 1
 241 728 l 1
 124 728 l 1
 118 670 l 2
 120 670 130 670 132 670 c 0
 155 670 191 662 215 641 c 0
 239 620 252 590 252 550 c 0
 252 476 198 412 102 412 c 0
 67 412 33 420 16 429 c 1
 30 501 l 1
 46 494 70 487 95 487 c 0
 133 487 159 506 159 543 c 0
 159 589 121 606 68 606 c 0
 55 606 45 605 34 604 c 1
 56 807 l 1
 241 807 l 1
EndSplineSet
Validated: 1
EndChar

StartChar: six.superior
Encoding: 8310 8310 299
Width: 295
Flags: W
HStem: 412 68<122.294 176.14> 611 64<121.259 207.5> 738 74<156.815 242>
VStem: 19 93<487.014 637.96> 185 93<484.524 606.501>
LayerCount: 2
Fore
SplineSet
242 812 m 1
 242 738 l 1
 231 738 220 737 207 735 c 0
 150 727 124 691 113 647 c 1
 115 647 l 1
 131 664 152 675 179 675 c 0
 236 675 278 628 278 552 c 0
 278 482 235 412 153 412 c 0
 68 412 19 479 19 576 c 0
 19 660 48 719 87 756 c 0
 118 786 160 804 200 809 c 0
 220 811 233 812 242 812 c 1
151 480 m 0
 177 480 185 515 185 553 c 0
 185 580 175 611 148 611 c 0
 135 611 122 602 116 587 c 0
 114 582 112 571 112 553 c 0
 112 514 125 480 151 480 c 0
EndSplineSet
Validated: 1
EndChar

StartChar: seven.superior
Encoding: 8311 8311 300
Width: 259
Flags: W
HStem: 417 21G<25 126> 727 80<12 155>
VStem: 12 238<747 807>
LayerCount: 2
Fore
SplineSet
12 807 m 1
 250 807 l 1
 250 747 l 1
 118 417 l 1
 25 417 l 1
 155 725 l 1
 155 727 l 1
 12 727 l 1
 12 807 l 1
EndSplineSet
Validated: 1
EndChar

StartChar: eight.superior
Encoding: 8312 8312 301
Width: 300
Flags: W
HStem: 412 62<117.834 181.732> 752 60<121.972 178.858>
VStem: 20 89<480.95 579.381> 30 87<666.52 748.652> 184 84<658.937 749.587> 189 90<478.555 573.453>
LayerCount: 2
Fore
SplineSet
154 812 m 0xd0
 221 812 268 772 268 714 c 0xd8
 268 687 257 653 217 629 c 1
 217 628 l 1
 252 611 279 576 279 529 c 0
 279 454 221 412 147 412 c 0
 69 412 20 457 20 521 c 0xe4
 20 567 45 600 79 620 c 1
 79 621 l 1
 45 642 30 675 30 706 c 0
 30 772 85 812 154 812 c 0xd0
151 474 m 0
 176 474 189 497 189 525 c 0
 189 558 165 581 143 589 c 1
 125 579 109 557 109 529 c 0xe4
 109 498 125 474 151 474 c 0
152 752 m 0
 127 752 117 729 117 708 c 0
 117 684 133 666 157 656 c 1
 173 662 184 685 184 705 c 0xd8
 184 727 175 752 152 752 c 0
EndSplineSet
Validated: 1
EndChar

StartChar: nine.superior
Encoding: 8313 8313 302
Width: 291
Flags: W
HStem: 412 75<49 137.711> 555 62<115.994 174.493> 744 68<116.422 168.977>
VStem: 16 92<621.1 739.31> 178 94<583.619 739.133>
LayerCount: 2
Fore
SplineSet
49 412 m 1
 49 487 l 1
 64 487 73 487 88 489 c 0
 106 492 125 499 140 510 c 0
 158 524 172 549 179 577 c 1
 177 577 l 1
 164 564 145 555 119 555 c 0
 64 555 16 600 16 673 c 0
 16 742 64 812 146 812 c 0
 229 812 272 743 272 648 c 0
 272 560 242 499 204 461 c 0
 175 434 135 417 88 413 c 0
 74 411 61 412 49 412 c 1
143 744 m 0
 122 744 108 718 108 679 c 0
 108 648 119 617 144 617 c 0
 159 617 171 626 174 634 c 0
 177 642 178 650 178 675 c 0
 178 714 166 744 143 744 c 0
EndSplineSet
Validated: 33
EndChar

StartChar: period.superior
Encoding: 63208 63208 303
Width: 152
Flags: W
HStem: 412 118<34.8672 119.154>
VStem: 23 107<422.717 518.162>
LayerCount: 2
Fore
SplineSet
76 412 m 0
 46 412 23 435 23 471 c 0
 23 506 48 530 77 530 c 0
 106 530 130 508 130 471 c 0
 130 435 108 412 76 412 c 0
EndSplineSet
Validated: 1
EndChar

StartChar: comma.superior
Encoding: 63202 63202 304
Width: 152
Flags: W
HStem: 343 176
VStem: 42 93<461.809 513>
LayerCount: 2
Fore
SplineSet
59 349 m 1
 -1 343 l 1
 18 399 34 461 42 513 c 1
 135 519 l 1
 115 461 90 399 59 349 c 1
EndSplineSet
Validated: 1
EndChar

StartChar: dollar.superior
Encoding: 63204 63204 305
Width: 267
Flags: W
HStem: 365 133<97.8279 151.431> 701 81<166.361 227.296>
VStem: 26 89<654.838 713.906> 97 59<365 426> 106 59<799 872> 153 89<501.21 565.87>
LayerCount: 2
Fore
SplineSet
156 365 m 1xd0
 97 365 l 1
 97 426 l 1xd0
 68 428 51 434 34 442 c 1
 49 512 l 1
 68 503 82 498 110 498 c 0
 138 498 153 510 153 530 c 0
 153 582.381839639 26 607.266601562 26 680 c 0xe4
 26 778 40 799 106 799 c 5
 106 872 l 1
 165 872 l 1
 165 798 l 1xc8
 194 796 225 790 241 782 c 1
 226 701 l 1
 213 708 180 717 157 717 c 0
 125 717 115 703 115 687 c 0
 115 644.14453125 242 603.641468256 242 537 c 0xe4
 242 452 230 426 156 426 c 1
 156 365 l 1xd0
EndSplineSet
Validated: 1
EndChar

StartChar: hyphen.superior
Encoding: 63206 63206 307
Width: 160
Flags: W
HStem: 574 65<18 142>
VStem: 18 124<574 639>
LayerCount: 2
Fore
SplineSet
18 639 m 1
 142 639 l 1
 142 574 l 1
 18 574 l 1
 18 639 l 1
EndSplineSet
Validated: 1
EndChar

StartChar: parenleft.superior
Encoding: 8317 8317 308
Width: 163
Flags: W
VStem: 29 73<458.545 748.635>
LayerCount: 2
Fore
SplineSet
99 847 m 1
 165 847 l 1
 130 792 102 715 102 602 c 0
 102 494 130 417 165 360 c 1
 99 360 l 1
 65 406 29 487 29 602 c 0
 29 719 65 801 99 847 c 1
EndSplineSet
Validated: 1
EndChar

StartChar: parenright.superior
Encoding: 8318 8318 309
Width: 163
Flags: W
VStem: 61 73<459.602 749.329>
LayerCount: 2
Fore
SplineSet
64 360 m 1
 -2 360 l 1
 33 416 61 495 61 605 c 0
 61 714 33 791 -2 847 c 1
 64 847 l 1
 98 802 134 722 134 604 c 0
 134 490 98 407 64 360 c 1
EndSplineSet
Validated: 1
EndChar

StartChar: zero.inferior
Encoding: 8320 8320 310
Width: 291
Flags: W
HStem: -152 77<122.9 170.43> 171 77<122.92 170.96>
VStem: 16 93<-67.7984 161.925> 182 93<-69.4078 165.452>
LayerCount: 2
Fore
SplineSet
146 -152 m 0
 48 -152 16 -51 16 46 c 0
 16 154 55 248 148 248 c 0
 251 248 275 140 275 50 c 0
 275 -84 222 -152 146 -152 c 0
147 -75 m 0
 170 -75 182 -42 182 48 c 0
 182 132 172 171 148 171 c 0
 125 171 109 137 109 48 c 0
 109 -42 123 -75 147 -75 c 0
EndSplineSet
Validated: 1
EndChar

StartChar: one.inferior
Encoding: 8321 8321 311
Width: 239
Flags: W
HStem: -147 21G<98 192> 223 20G<65.4468 192>
VStem: 98 94<-147 160>
LayerCount: 2
Fore
SplineSet
192 -147 m 1
 98 -147 l 1
 98 160 l 1
 96 160 l 1
 26 127 l 1
 8 196 l 1
 108 243 l 1
 192 243 l 1
 192 -147 l 1
EndSplineSet
Validated: 1
EndChar

StartChar: two.inferior
Encoding: 8322 8322 312
Width: 274
Flags: W
HStem: -147 80<125 251> 169 79<31.1968 138.66>
VStem: 146 101<57.2471 161.175>
LayerCount: 2
Fore
SplineSet
8 -147 m 1
 8 -94 l 1
 54 -37 l 2
 106 26 146 71 146 116 c 0
 146 154 125 169 96 169 c 0
 72 169 48 158 32 146 c 1
 13 215 l 1
 33 233 73 248 121 248 c 0
 217 248 247 188 247 135 c 0
 247 62 191 7 142 -45 c 2
 125 -64 l 1
 125 -67 l 1
 251 -67 l 1
 251 -147 l 1
 8 -147 l 1
EndSplineSet
Validated: 1
EndChar

StartChar: three.inferior
Encoding: 8323 8323 313
Width: 260
Flags: W
HStem: -152 71<16.696 133.456> 29 62<59 130.631> 177 71<31.7052 134.749>
VStem: 140 92<102.857 171.067> 145 98<-69.1948 14.2767>
LayerCount: 2
Fore
SplineSet
35 159 m 1xf0
 21 225 l 1
 43 237 78 248 115 248 c 0
 199 248 232 199 232 153 c 0xf0
 232 109 207 79 167 62 c 1
 167 60 l 1
 209 52 243 15 243 -31 c 0
 243 -101 185 -152 91 -152 c 0
 54 -152 25 -144 6 -133 c 1
 20 -64 l 1
 37 -73 60 -81 87 -81 c 0
 120 -81 145 -59 145 -28 c 0xe8
 145 9 113 29 71 29 c 2
 59 29 l 1
 59 91 l 1
 67 91 l 2
 99 91 140 103 140 136 c 0
 140 162 121 177 94 177 c 0
 71 177 54 170 35 159 c 1xf0
EndSplineSet
Validated: 1
EndChar

StartChar: four.inferior
Encoding: 8324 8324 314
Width: 301
Flags: W
HStem: -147 21G<158 243> -58 69<88 158 243 285> 224 20G<139.347 243>
VStem: 158 85<-147 -58 11 147.199>
LayerCount: 2
Fore
SplineSet
243 -147 m 1
 158 -147 l 1
 158 -58 l 1
 10 -58 l 1
 10 2 l 1
 151 244 l 1
 243 244 l 1
 243 11 l 1
 285 11 l 1
 285 -58 l 1
 243 -58 l 1
 243 -147 l 1
158 11 m 1
 158 82 l 2
 158 108 160 131 161 148 c 1
 159 148 l 1
 150 129 145 114 134 96 c 2
 88 13 l 1
 88 11 l 1
 158 11 l 1
EndSplineSet
Validated: 1
EndChar

StartChar: five.inferior
Encoding: 8325 8325 315
Width: 275
Flags: W
HStem: -152 75<26.9482 147.825> 42 64<118 142.405> 164 79<124 241>
VStem: 159 93<-64.5389 25.0408>
LayerCount: 2
Fore
SplineSet
241 243 m 1
 241 164 l 1
 124 164 l 1
 118 106 l 2
 120 106 130 106 132 106 c 0
 155 106 191 98 215 77 c 0
 239 56 252 26 252 -14 c 0
 252 -88 198 -152 102 -152 c 0
 67 -152 33 -144 16 -135 c 1
 30 -63 l 1
 46 -70 70 -77 95 -77 c 0
 133 -77 159 -58 159 -21 c 0
 159 25 121 42 68 42 c 0
 55 42 45 41 34 40 c 1
 56 243 l 1
 241 243 l 1
EndSplineSet
Validated: 1
EndChar

StartChar: six.inferior
Encoding: 8326 8326 316
Width: 295
Flags: W
HStem: -152 68<122.294 176.14> 47 64<121.259 207.5> 174 74<156.815 242>
VStem: 19 93<-76.9859 73.9595> 185 93<-79.4764 42.5014>
LayerCount: 2
Fore
SplineSet
242 248 m 1
 242 174 l 1
 231 174 220 173 207 171 c 0
 150 163 124 127 113 83 c 1
 115 83 l 1
 131 100 152 111 179 111 c 0
 236 111 278 64 278 -12 c 0
 278 -82 235 -152 153 -152 c 0
 68 -152 19 -85 19 12 c 0
 19 96 48 155 87 192 c 0
 118 222 160 240 200 245 c 0
 220 247 233 248 242 248 c 1
151 -84 m 0
 177 -84 185 -49 185 -11 c 0
 185 16 175 47 148 47 c 0
 135 47 122 38 116 23 c 0
 114 18 112 7 112 -11 c 0
 112 -50 125 -84 151 -84 c 0
EndSplineSet
Validated: 1
EndChar

StartChar: seven.inferior
Encoding: 8327 8327 317
Width: 259
Flags: W
HStem: -147 21G<25 126> 163 80<12 155>
VStem: 12 238<183 243>
LayerCount: 2
Fore
SplineSet
12 243 m 1
 250 243 l 1
 250 183 l 1
 118 -147 l 1
 25 -147 l 1
 155 161 l 1
 155 163 l 1
 12 163 l 1
 12 243 l 1
EndSplineSet
Validated: 1
EndChar

StartChar: eight.inferior
Encoding: 8328 8328 318
Width: 300
Flags: W
HStem: -152 62<117.834 181.732> 188 60<121.972 178.858>
VStem: 20 89<-83.0497 15.381> 30 87<102.52 184.652> 184 84<94.9375 185.587> 189 90<-85.4453 9.45334>
LayerCount: 2
Fore
SplineSet
154 248 m 0xd0
 221 248 268 208 268 150 c 0xd8
 268 123 257 89 217 65 c 1
 217 64 l 1
 252 47 279 12 279 -35 c 0
 279 -110 221 -152 147 -152 c 0
 69 -152 20 -107 20 -43 c 0xe4
 20 3 45 36 79 56 c 1
 79 57 l 1
 45 78 30 111 30 142 c 0
 30 208 85 248 154 248 c 0xd0
151 -90 m 0
 176 -90 189 -67 189 -39 c 0
 189 -6 165 17 143 25 c 1
 125 15 109 -7 109 -35 c 0xe4
 109 -66 125 -90 151 -90 c 0
152 188 m 0
 127 188 117 165 117 144 c 0
 117 120 133 102 157 92 c 1
 173 98 184 121 184 141 c 0xd8
 184 163 175 188 152 188 c 0
EndSplineSet
Validated: 1
EndChar

StartChar: nine.inferior
Encoding: 8329 8329 319
Width: 291
Flags: W
HStem: -152 75<49 137.711> -9 62<115.994 174.493> 180 68<116.422 168.977>
VStem: 16 92<57.0996 175.31> 178 94<19.6186 175.133>
LayerCount: 2
Fore
SplineSet
49 -152 m 1
 49 -77 l 1
 64 -77 73 -77 88 -75 c 0
 106 -72 125 -65 140 -54 c 0
 158 -40 172 -15 179 13 c 1
 177 13 l 1
 164 0 145 -9 119 -9 c 0
 64 -9 16 36 16 109 c 0
 16 178 64 248 146 248 c 0
 229 248 272 179 272 84 c 0
 272 -4 242 -65 204 -103 c 0
 175 -130 135 -147 88 -151 c 0
 74 -153 61 -152 49 -152 c 1
143 180 m 0
 122 180 108 154 108 115 c 0
 108 84 119 53 144 53 c 0
 159 53 171 62 174 70 c 0
 177 78 178 86 178 111 c 0
 178 150 166 180 143 180 c 0
EndSplineSet
Validated: 33
EndChar

StartChar: period.inferior
Encoding: 63207 63207 320
Width: 152
Flags: W
HStem: -152 118<34.8672 119.154>
VStem: 23 107<-141.283 -45.8384>
LayerCount: 2
Fore
SplineSet
76 -152 m 0
 46 -152 23 -129 23 -93 c 0
 23 -58 48 -34 77 -34 c 0
 106 -34 130 -56 130 -93 c 0
 130 -129 108 -152 76 -152 c 0
EndSplineSet
Validated: 1
EndChar

StartChar: comma.inferior
Encoding: 63201 63201 321
Width: 152
Flags: W
HStem: -221 176
VStem: 42 93<-102.191 -51>
LayerCount: 2
Fore
SplineSet
59 -215 m 1
 -1 -221 l 1
 18 -165 34 -103 42 -51 c 1
 135 -45 l 1
 115 -103 90 -165 59 -215 c 1
EndSplineSet
Validated: 1
EndChar

StartChar: cent.inferior
Encoding: 63199 63199 323
Width: 267
Flags: W
HStem: -91 67<127.084 129 188 220.113>
VStem: 24 94<-15.0574 105.829> 130 59<-152 -92 190.363 269>
LayerCount: 2
Fore
SplineSet
188 -152 m 1
 129 -152 l 1
 129 -91 l 1
 40 -76 24 -28.2283952138 24 47 c 0
 24 118 42 174 130 188 c 1
 130 269 l 1
 189 269 l 1
 189 193 l 1
 207 191 233 188 244 182 c 1
 233 102 l 1
 224 107 192.99609375 110.647460938 175 111 c 0
 124 112 118 94 118 48 c 0
 118 3 126 -24 179 -24 c 0
 200 -24 212 -22 220 -18 c 1
 227 -86 l 5
 219 -89 210 -91 188 -92 c 5
 188 -152 l 1
EndSplineSet
Validated: 33
EndChar

StartChar: hyphen.inferior
Encoding: 63205 63205 324
Width: 160
Flags: W
HStem: 10 65<18 142>
VStem: 18 124<10 75>
LayerCount: 2
Fore
SplineSet
18 75 m 1
 142 75 l 1
 142 10 l 1
 18 10 l 1
 18 75 l 1
EndSplineSet
Validated: 1
EndChar

StartChar: parenleft.inferior
Encoding: 8333 8333 325
Width: 163
Flags: W
VStem: 29 73<-105.455 184.635>
LayerCount: 2
Fore
SplineSet
99 283 m 1
 165 283 l 1
 130 228 102 151 102 38 c 0
 102 -70 130 -147 165 -204 c 1
 99 -204 l 1
 65 -158 29 -77 29 38 c 0
 29 155 65 237 99 283 c 1
EndSplineSet
Validated: 1
EndChar

StartChar: parenright.inferior
Encoding: 8334 8334 326
Width: 163
Flags: W
VStem: 61 73<-104.398 185.329>
LayerCount: 2
Fore
SplineSet
64 -204 m 1
 -2 -204 l 1
 33 -148 61 -69 61 41 c 0
 61 150 33 227 -2 283 c 1
 64 283 l 1
 98 238 134 158 134 40 c 0
 134 -74 98 -157 64 -204 c 1
EndSplineSet
Validated: 1
EndChar

StartChar: zero.numerator
Encoding: 63073 63073 327
Width: 291
Flags: W
HStem: 258 77<122.9 170.43> 581 77<122.92 170.96>
VStem: 16 93<342.202 571.925> 182 93<340.592 575.452>
LayerCount: 2
Fore
SplineSet
146 258 m 0
 48 258 16 359 16 456 c 0
 16 564 55 658 148 658 c 0
 251 658 275 550 275 460 c 0
 275 326 222 258 146 258 c 0
147 335 m 0
 170 335 182 368 182 458 c 0
 182 542 172 581 148 581 c 0
 125 581 109 547 109 458 c 0
 109 368 123 335 147 335 c 0
EndSplineSet
Validated: 1
Substitution2: "Single Substitution lookup 21 subtable" zero.denominator
EndChar

StartChar: one.numerator
Encoding: 63074 63074 328
Width: 239
Flags: W
HStem: 263 21G<98 192> 633 20G<65.4468 192>
VStem: 98 94<263 570>
LayerCount: 2
Fore
SplineSet
192 263 m 1
 98 263 l 1
 98 570 l 1
 96 570 l 1
 26 537 l 1
 8 606 l 1
 108 653 l 1
 192 653 l 1
 192 263 l 1
EndSplineSet
Validated: 1
Substitution2: "Single Substitution lookup 21 subtable" one.denominator
EndChar

StartChar: two.numerator
Encoding: 63075 63075 329
Width: 274
Flags: W
HStem: 263 80<125 251> 579 79<31.1968 138.66>
VStem: 146 101<467.247 571.175>
LayerCount: 2
Fore
SplineSet
8 263 m 1
 8 316 l 1
 54 373 l 2
 106 436 146 481 146 526 c 0
 146 564 125 579 96 579 c 0
 72 579 48 568 32 556 c 1
 13 625 l 1
 33 643 73 658 121 658 c 0
 217 658 247 598 247 545 c 0
 247 472 191 417 142 365 c 2
 125 346 l 1
 125 343 l 1
 251 343 l 1
 251 263 l 1
 8 263 l 1
EndSplineSet
Validated: 1
Substitution2: "Single Substitution lookup 21 subtable" two.denominator
EndChar

StartChar: three.numerator
Encoding: 63076 63076 330
Width: 260
Flags: W
HStem: 258 71<16.696 133.456> 439 62<59 130.631> 587 71<31.7052 134.749>
VStem: 140 92<512.857 581.067> 145 98<340.805 424.277>
LayerCount: 2
Fore
SplineSet
35 569 m 1xf0
 21 635 l 1
 43 647 78 658 115 658 c 0
 199 658 232 609 232 563 c 0xf0
 232 519 207 489 167 472 c 1
 167 470 l 1
 209 462 243 425 243 379 c 0
 243 309 185 258 91 258 c 0
 54 258 25 266 6 277 c 1
 20 346 l 1
 37 337 60 329 87 329 c 0
 120 329 145 351 145 382 c 0xe8
 145 419 113 439 71 439 c 2
 59 439 l 1
 59 501 l 1
 67 501 l 2
 99 501 140 513 140 546 c 0
 140 572 121 587 94 587 c 0
 71 587 54 580 35 569 c 1xf0
EndSplineSet
Validated: 1
Substitution2: "Single Substitution lookup 21 subtable" three.denominator
EndChar

StartChar: four.numerator
Encoding: 63077 63077 331
Width: 301
Flags: W
HStem: 263 21G<158 243> 352 69<88 158 243 285> 634 20G<139.347 243>
VStem: 158 85<263 352 421 557.199>
LayerCount: 2
Fore
SplineSet
243 263 m 1
 158 263 l 1
 158 352 l 1
 10 352 l 1
 10 412 l 1
 151 654 l 1
 243 654 l 1
 243 421 l 1
 285 421 l 1
 285 352 l 1
 243 352 l 1
 243 263 l 1
158 421 m 1
 158 492 l 2
 158 518 160 541 161 558 c 1
 159 558 l 1
 150 539 145 524 134 506 c 2
 88 423 l 1
 88 421 l 1
 158 421 l 1
EndSplineSet
Validated: 1
Substitution2: "Single Substitution lookup 21 subtable" four.denominator
EndChar

StartChar: five.numerator
Encoding: 63078 63078 332
Width: 275
Flags: W
HStem: 258 75<26.9482 147.825> 452 64<118 142.405> 574 79<124 241>
VStem: 159 93<345.461 435.041>
LayerCount: 2
Fore
SplineSet
241 653 m 1
 241 574 l 1
 124 574 l 1
 118 516 l 2
 120 516 130 516 132 516 c 0
 155 516 191 508 215 487 c 0
 239 466 252 436 252 396 c 0
 252 322 198 258 102 258 c 0
 67 258 33 266 16 275 c 1
 30 347 l 1
 46 340 70 333 95 333 c 0
 133 333 159 352 159 389 c 0
 159 435 121 452 68 452 c 0
 55 452 45 451 34 450 c 1
 56 653 l 1
 241 653 l 1
EndSplineSet
Validated: 1
Substitution2: "Single Substitution lookup 21 subtable" five.denominator
EndChar

StartChar: six.numerator
Encoding: 63079 63079 333
Width: 295
Flags: W
HStem: 258 68<122.294 176.14> 457 64<121.259 207.5> 584 74<156.815 242>
VStem: 19 93<333.014 483.96> 185 93<330.524 452.501>
LayerCount: 2
Fore
SplineSet
242 658 m 1
 242 584 l 1
 231 584 220 583 207 581 c 0
 150 573 124 537 113 493 c 1
 115 493 l 1
 131 510 152 521 179 521 c 0
 236 521 278 474 278 398 c 0
 278 328 235 258 153 258 c 0
 68 258 19 325 19 422 c 0
 19 506 48 565 87 602 c 0
 118 632 160 650 200 655 c 0
 220 657 233 658 242 658 c 1
151 326 m 0
 177 326 185 361 185 399 c 0
 185 426 175 457 148 457 c 0
 135 457 122 448 116 433 c 0
 114 428 112 417 112 399 c 0
 112 360 125 326 151 326 c 0
EndSplineSet
Validated: 1
Substitution2: "Single Substitution lookup 21 subtable" six.denominator
EndChar

StartChar: seven.numerator
Encoding: 63080 63080 334
Width: 259
Flags: W
HStem: 263 21G<25 126> 573 80<12 155>
VStem: 12 238<593 653>
LayerCount: 2
Fore
SplineSet
12 653 m 1
 250 653 l 1
 250 593 l 1
 118 263 l 1
 25 263 l 1
 155 571 l 1
 155 573 l 1
 12 573 l 1
 12 653 l 1
EndSplineSet
Validated: 1
Substitution2: "Single Substitution lookup 21 subtable" seven.denominator
EndChar

StartChar: eight.numerator
Encoding: 63081 63081 335
Width: 300
Flags: W
HStem: 258 62<117.834 181.732> 598 60<121.972 178.858>
VStem: 20 89<326.95 425.381> 30 87<512.52 594.652> 184 84<504.937 595.587> 189 90<324.555 419.453>
LayerCount: 2
Fore
SplineSet
154 658 m 0xd0
 221 658 268 618 268 560 c 0xd8
 268 533 257 499 217 475 c 1
 217 474 l 1
 252 457 279 422 279 375 c 0
 279 300 221 258 147 258 c 0
 69 258 20 303 20 367 c 0xe4
 20 413 45 446 79 466 c 1
 79 467 l 1
 45 488 30 521 30 552 c 0
 30 618 85 658 154 658 c 0xd0
151 320 m 0
 176 320 189 343 189 371 c 0
 189 404 165 427 143 435 c 1
 125 425 109 403 109 375 c 0xe4
 109 344 125 320 151 320 c 0
152 598 m 0
 127 598 117 575 117 554 c 0
 117 530 133 512 157 502 c 1
 173 508 184 531 184 551 c 0xd8
 184 573 175 598 152 598 c 0
EndSplineSet
Validated: 1
Substitution2: "Single Substitution lookup 21 subtable" eight.denominator
EndChar

StartChar: nine.numerator
Encoding: 63082 63082 336
Width: 291
Flags: W
HStem: 258 75<49 137.711> 401 62<115.994 174.493> 590 68<116.422 168.977>
VStem: 16 92<467.1 585.31> 178 94<429.619 585.133>
LayerCount: 2
Fore
SplineSet
49 258 m 1
 49 333 l 1
 64 333 73 333 88 335 c 0
 106 338 125 345 140 356 c 0
 158 370 172 395 179 423 c 1
 177 423 l 1
 164 410 145 401 119 401 c 0
 64 401 16 446 16 519 c 0
 16 588 64 658 146 658 c 0
 229 658 272 589 272 494 c 0
 272 406 242 345 204 307 c 0
 175 280 135 263 88 259 c 0
 74 257 61 258 49 258 c 1
143 590 m 0
 122 590 108 564 108 525 c 0
 108 494 119 463 144 463 c 0
 159 463 171 472 174 480 c 0
 177 488 178 496 178 521 c 0
 178 560 166 590 143 590 c 0
EndSplineSet
Validated: 33
Substitution2: "Single Substitution lookup 21 subtable" nine.denominator
EndChar

StartChar: period.numerator
Encoding: 63084 63084 337
Width: 152
Flags: W
HStem: 258 118<34.8672 119.154>
VStem: 23 107<268.717 364.162>
LayerCount: 2
Fore
SplineSet
76 258 m 0
 46 258 23 281 23 317 c 0
 23 352 48 376 77 376 c 0
 106 376 130 354 130 317 c 0
 130 281 108 258 76 258 c 0
EndSplineSet
Validated: 1
Substitution2: "Single Substitution lookup 21 subtable" period.denominator
EndChar

StartChar: comma.numerator
Encoding: 63083 63083 338
Width: 152
Flags: W
HStem: 189 176
VStem: 42 93<307.809 359>
LayerCount: 2
Fore
SplineSet
59 195 m 1
 -1 189 l 1
 18 245 34 307 42 359 c 1
 135 365 l 1
 115 307 90 245 59 195 c 1
EndSplineSet
Validated: 1
Substitution2: "Single Substitution lookup 21 subtable" comma.denominator
EndChar

StartChar: dollar.numerator
Encoding: 63023 63023 339
Width: 267
Flags: W
HStem: 211 133<97.2336 151.431> 573 125<115.947 164.534>
VStem: 26 89<510.351 570.426> 97 59<211 274.219> 106 59<641.597 698> 153 89<347.563 411.176>
LayerCount: 2
Fore
SplineSet
156 211 m 1xd0
 97 211 l 1
 97 272 l 1xd0
 68 274 41 280 24 288 c 1
 39 362 l 1
 59 351 82 344 110 344 c 0
 138 344 153 356 153 376 c 0
 153 395 144 407 104 429 c 0
 50 459 26 487 26 536 c 0xe4
 26 581 54 620 106 637 c 1
 106 698 l 1
 165 698 l 1
 165 644 l 1xc8
 194 642 215 636 231 628 c 1
 216 557 l 1
 203 564 180 573 157 573 c 0
 125 573 115 559 115 543 c 0
 115 526 121 517 166 493 c 0
 223 463 242 427 242 383 c 0xe4
 242 330 209 290 156 277 c 1
 156 211 l 1xd0
EndSplineSet
Validated: 1
Substitution2: "Single Substitution lookup 21 subtable" dollar.denominator
EndChar

StartChar: cent.numerator
Encoding: 63022 63022 340
Width: 267
Flags: W
HStem: 316 70<188 229.251> 531 128<131.925 188.61>
VStem: 24 94<401.33 518.155> 129 59<258 316 599.933 659>
LayerCount: 2
Fore
SplineSet
188 258 m 1
 129 258 l 1
 129 319 l 1
 97 325 72 340 53 364 c 0
 35 387 24 420 24 457 c 0
 24 528 66 583 130 598 c 1
 130 659 l 1
 189 659 l 1
 189 603 l 1
 207 601 223 598 234 592 c 1
 223 522 l 1
 207 530 193 531 175 531 c 0
 141 531 118 504 118 458 c 0
 118 413 145 386 179 386 c 0
 200 386 214 389 230 395 c 1
 237 325 l 1
 225 320 210 317 188 316 c 1
 188 258 l 1
EndSplineSet
Validated: 1
Substitution2: "Single Substitution lookup 21 subtable" cent.denominator
EndChar

StartChar: hyphen.numerator
Encoding: 63024 63024 341
Width: 160
Flags: W
HStem: 420 65<18 142>
VStem: 18 124<420 485>
LayerCount: 2
Fore
SplineSet
18 485 m 1
 142 485 l 1
 142 420 l 1
 18 420 l 1
 18 485 l 1
EndSplineSet
Validated: 1
Substitution2: "Single Substitution lookup 21 subtable" hyphen.denominator
EndChar

StartChar: parenleft.numerator
Encoding: 63025 63025 342
Width: 163
Flags: W
HStem: 673 20G<82 165>
VStem: 29 73<304.545 594.635>
LayerCount: 2
Fore
SplineSet
99 693 m 1
 165 693 l 1
 130 638 102 561 102 448 c 0
 102 340 130 263 165 206 c 1
 99 206 l 1
 65 252 29 333 29 448 c 0
 29 565 65 647 99 693 c 1
EndSplineSet
Validated: 1
Substitution2: "Single Substitution lookup 21 subtable" parenleft.denominator
EndChar

StartChar: parenright.numerator
Encoding: 63026 63026 343
Width: 163
Flags: W
HStem: 673 20G<-2 81>
VStem: 61 73<305.602 595.329>
LayerCount: 2
Fore
SplineSet
64 206 m 1
 -2 206 l 1
 33 262 61 341 61 451 c 0
 61 560 33 637 -2 693 c 1
 64 693 l 1
 98 648 134 568 134 450 c 0
 134 336 98 253 64 206 c 1
EndSplineSet
Validated: 1
Substitution2: "Single Substitution lookup 21 subtable" parenright.denominator
EndChar

StartChar: zero.denominator
Encoding: 63061 63061 344
Width: 291
Flags: W
HStem: -5 77<122.9 170.43> 318 77<122.92 170.96>
VStem: 16 93<79.2016 308.925> 182 93<77.5922 312.452>
LayerCount: 2
Fore
SplineSet
146 -5 m 0
 48 -5 16 96 16 193 c 0
 16 301 55 395 148 395 c 0
 251 395 275 287 275 197 c 0
 275 63 222 -5 146 -5 c 0
147 72 m 0
 170 72 182 105 182 195 c 0
 182 279 172 318 148 318 c 0
 125 318 109 284 109 195 c 0
 109 105 123 72 147 72 c 0
EndSplineSet
Validated: 1
EndChar

StartChar: one.denominator
Encoding: 63062 63062 345
Width: 239
Flags: W
HStem: 0 21G<98 192>
VStem: 98 94<0 307>
LayerCount: 2
Fore
SplineSet
192 0 m 1
 98 0 l 1
 98 307 l 1
 96 307 l 1
 26 274 l 1
 8 343 l 1
 108 390 l 1
 192 390 l 1
 192 0 l 1
EndSplineSet
Validated: 1
EndChar

StartChar: two.denominator
Encoding: 63063 63063 346
Width: 274
Flags: W
HStem: 0 80<125 251> 316 79<31.1968 138.66>
VStem: 146 101<204.247 308.175>
LayerCount: 2
Fore
SplineSet
8 0 m 1
 8 53 l 1
 54 110 l 2
 106 173 146 218 146 263 c 0
 146 301 125 316 96 316 c 0
 72 316 48 305 32 293 c 1
 13 362 l 1
 33 380 73 395 121 395 c 0
 217 395 247 335 247 282 c 0
 247 209 191 154 142 102 c 2
 125 83 l 1
 125 80 l 1
 251 80 l 1
 251 0 l 1
 8 0 l 1
EndSplineSet
Validated: 1
EndChar

StartChar: three.denominator
Encoding: 63064 63064 347
Width: 260
Flags: W
HStem: -5 71<16.696 133.456> 176 62<59 130.631> 324 71<31.7052 134.749>
VStem: 140 92<249.857 318.067> 145 98<77.8052 161.277>
LayerCount: 2
Fore
SplineSet
35 306 m 1xf0
 21 372 l 1
 43 384 78 395 115 395 c 0
 199 395 232 346 232 300 c 0xf0
 232 256 207 226 167 209 c 1
 167 207 l 1
 209 199 243 162 243 116 c 0
 243 46 185 -5 91 -5 c 0
 54 -5 25 3 6 14 c 1
 20 83 l 1
 37 74 60 66 87 66 c 0
 120 66 145 88 145 119 c 0xe8
 145 156 113 176 71 176 c 2
 59 176 l 1
 59 238 l 1
 67 238 l 2
 99 238 140 250 140 283 c 0
 140 309 121 324 94 324 c 0
 71 324 54 317 35 306 c 1xf0
EndSplineSet
Validated: 1
EndChar

StartChar: four.denominator
Encoding: 63065 63065 348
Width: 301
Flags: W
HStem: 0 21G<158 243> 89 69<88 158 243 285>
VStem: 158 85<0 89 158 294.199>
LayerCount: 2
Fore
SplineSet
243 0 m 1
 158 0 l 1
 158 89 l 1
 10 89 l 1
 10 149 l 1
 151 391 l 1
 243 391 l 1
 243 158 l 1
 285 158 l 1
 285 89 l 1
 243 89 l 1
 243 0 l 1
158 158 m 1
 158 229 l 2
 158 255 160 278 161 295 c 1
 159 295 l 1
 150 276 145 261 134 243 c 2
 88 160 l 1
 88 158 l 1
 158 158 l 1
EndSplineSet
Validated: 1
EndChar

StartChar: five.denominator
Encoding: 63066 63066 349
Width: 275
Flags: W
HStem: -5 75<26.9482 147.825> 189 64<118 142.405> 311 79<124 241>
VStem: 159 93<82.4611 172.041>
LayerCount: 2
Fore
SplineSet
241 390 m 1
 241 311 l 1
 124 311 l 1
 118 253 l 2
 120 253 130 253 132 253 c 0
 155 253 191 245 215 224 c 0
 239 203 252 173 252 133 c 0
 252 59 198 -5 102 -5 c 0
 67 -5 33 3 16 12 c 1
 30 84 l 1
 46 77 70 70 95 70 c 0
 133 70 159 89 159 126 c 0
 159 172 121 189 68 189 c 0
 55 189 45 188 34 187 c 1
 56 390 l 1
 241 390 l 1
EndSplineSet
Validated: 1
EndChar

